{
.appVersion = "3143";
.formatVersion = 3;
axes = (
{
name = Weight;
tag = wght;
}
);
classes = (
{
automatic = 1;

glyphs = (
{
color = 1;
glyphname = A;
kernLeft = A;
kernRight = A;
lastChange = "2022-11-03 19:14:07 +0000";
layers = (
{
anchors = (
{
name = bottom;
pos = (292,0);
},
{
name = ogonek;
pos = (546,0);
},
{
name = top;
pos = (292,697);
}
);
layerId = "F91D9E91-C1BC-4259-B0D8-112C0CBA2B8E";
shapes = (
{
closed = 1;
nodes = (
(59,0,l),
(292,675,l),
(525,0,l),
(548,0,l),
(304,697,l),
(279,697,l),
(36,0,l)
);
},
{
closed = 1;
nodes = (
(460,208,l),
(453,227,l),
(131,227,l),
(124,208,l)
);
}
);
width = 584;
},
{
anchors = (
{
name = bottom;
pos = (350,0);
},
{
name = ogonek;
pos = (676,0);
},
{
name = top;
pos = (350,697);
}
);
layerId = "957254E3-B7AD-4837-9092-D4428001DE8E";
shapes = (
{
closed = 1;
nodes = (
(173,0,l),
(350,463,l),
(525,0,l),
(696,0,l),
(407,697,l),
(292,697,l),
(2,0,l)
);
},
{
closed = 1;
nodes = (
(491,118,l),
(440,258,l),
(259,258,l),
(210,118,l)
);
}
);
width = 698;
},
{
anchors = (
{
name = bottom;
pos = (319,0);
},
{
name = ogonek;
pos = (608,0);
},
{
name = top;
pos = (319,697);
}
);
layerId = m003;
shapes = (
{
closed = 1;
nodes = (
(114,0,l),
(319,571,l),
(523,0,l),
(619,0,l),
(353,697,l),
(283,697,l),
(17,0,l)
);
},
{
closed = 1;
nodes = (
(473,164,l),
(444,243,l),
(192,243,l),
(165,164,l)
);
}
);
width = 637;
}
);
note = A;
unicode = 65;
},
{
color = 1;
glyphname = AE;
kernLeft = A;
kernRight = E;
lastChange = "2021-11-14 09:56:48 +0000";
layers = (
{
anchors = (
{
name = bottom;
pos = (421,0);
},
{
name = top;
pos = (421,697);
}
);
layerId = "F91D9E91-C1BC-4259-B0D8-112C0CBA2B8E";
shapes = (
{
closed = 1;
nodes = (
(59,0,l),
(294,678,l),
(377,678,l),
(377,0,l),
(800,0,l),
(800,19,l),
(399,19,l),
(399,341,l),
(746,341,l),
(746,361,l),
(399,361,l),
(399,678,l),
(800,678,l),
(800,697,l),
(279,697,l),
(36,0,l)
);
},
{
closed = 1;
nodes = (
(385,208,l),
(385,228,l),
(132,228,l),
(125,208,l)
);
}
);
width = 844;
},
{
anchors = (
{
name = bottom;
pos = (482,0);
},
{
name = top;
pos = (482,697);
}
);
layerId = "957254E3-B7AD-4837-9092-D4428001DE8E";
shapes = (
{
closed = 1;
nodes = (
(173,0,l),
(385,559,l),
(413,559,l),
(413,0,l),
(903,0,l),
(903,140,l),
(571,140,l),
(571,278,l),
(864,278,l),
(864,418,l),
(571,418,l),
(571,557,l),
(903,557,l),
(903,697,l),
(291,697,l),
(2,0,l)
);
},
{
closed = 1;
nodes = (
(450,118,l),
(450,262,l),
(243,262,l),
(194,118,l)
);
}
);
width = 949;
},
{
anchors = (
{
name = bottom;
pos = (449,0);
},
{
name = top;
pos = (449,697);
}
);
layerId = m003;
shapes = (
{
closed = 1;
nodes = (
(114,0,l),
(337,620,l),
(393,620,l),
(393,0,l),
(849,0,l),
(849,79,l),
(482,79,l),
(482,310,l),
(802,310,l),
(802,390,l),
(482,390,l),
(482,618,l),
(849,618,l),
(849,697,l),
(283,697,l),
(17,0,l)
);
},
{
closed = 1;
nodes = (
(415,164,l),
(415,245,l),
(185,245,l),
(157,164,l)
);
}
);
width = 896;
}
);
metricLeft = "=A";
metricRight = "=E";
note = AE;
unicode = 198;
},
{
color = 1;
glyphname = B;
kernLeft = B;
kernRight = B;
lastChange = "2021-11-14 09:56:48 +0000";
layers = (
{
anchors = (
{
name = bottom;
pos = (283,0);
},
{
name = top;
pos = (283,697);
}
);
layerId = "F91D9E91-C1BC-4259-B0D8-112C0CBA2B8E";
shapes = (
{
closed = 1;
nodes = (
(295,0,ls),
(438,0,o),
(513,63,o),
(513,186,cs),
(513,289,o),
(460,353,o),
(372,366,c),
(440,389,o),
(480,447,o),
(480,526,cs),
(480,633,o),
(407,697,o),
(284,697,cs),
(97,697,l),
(97,0,l)
);
},
{
closed = 1;
nodes = (
(117,352,l),
(333,352,ls),
(434,352,o),
(493,291,o),
(493,186,cs),
(493,75,o),
(426,19,o),
(295,19,cs),
(117,19,l)
);
},
{
closed = 1;
nodes = (
(117,678,l),
(284,678,ls),
(395,678,o),
(460,621,o),
(460,524,cs),
(460,432,o),
(401,371,o),
(311,371,cs),
(117,371,l)
);
}
);
width = 583;
},
{
anchors = (
{
name = bottom;
pos = (298,0);
},
{
name = top;
pos = (298,697);
}
);
layerId = "957254E3-B7AD-4837-9092-D4428001DE8E";
shapes = (
{
closed = 1;
nodes = (
(356,0,ls),
(498,0,o),
(586,80,o),
(586,209,cs),
(586,290,o),
(553,347,o),
(480,379,c),
(523,409,o),
(548,459,o),
(548,520,cs),
(548,630,o),
(462,697,o),
(319,697,cs),
(59,697,l),
(59,0,l)
);
},
{
closed = 1;
nodes = (
(216,289,l),
(343,289,ls),
(398,289,o),
(429,263,o),
(429,216,cs),
(429,168,o),
(401,144,o),
(343,144,cs),
(216,144,l)
);
},
{
closed = 1;
nodes = (
(216,553,l),
(319,553,ls),
(365,553,o),
(391,532,o),
(391,495,cs),
(391,453,o),
(364,429,o),
(319,429,cs),
(216,429,l)
);
}
);
width = 618;
},
{
anchors = (
{
name = bottom;
pos = (292,0);
},
{
name = top;
pos = (292,697);
}
);
layerId = m003;
shapes = (
{
closed = 1;
nodes = (
(326,0,ls),
(469,0,o),
(550,72,o),
(550,197,cs),
(550,289,o),
(507,350,o),
(426,373,c),
(482,399,o),
(514,454,o),
(514,523,cs),
(514,632,o),
(434,697,o),
(302,697,cs),
(79,697,l),
(79,0,l)
);
},
{
closed = 1;
nodes = (
(167,321,l),
(339,321,ls),
(417,321,o),
(463,277,o),
(463,201,cs),
(463,121,o),
(415,81,o),
(320,81,cs),
(167,81,l)
);
},
{
closed = 1;
nodes = (
(167,616,l),
(302,616,ls),
(381,616,o),
(427,577,o),
(427,510,cs),
(427,442,o),
(383,400,o),
(316,400,cs),
(167,400,l)
);
}
);
width = 601;
}
);
metricLeft = H;
note = B;
unicode = 66;
},
{
color = 1;
glyphname = C;
kernLeft = C;
kernRight = C;
lastChange = "2021-11-14 09:56:48 +0000";
layers = (
{
anchors = (
{
name = bottom;
pos = (368,0);
},
{
name = top;
pos = (368,697);
}
);
layerId = "F91D9E91-C1BC-4259-B0D8-112C0CBA2B8E";
shapes = (
{
closed = 1;
nodes = (
(500,-6,o),
(598,61,o),
(641,172,c),
(623,179,l),
(584,80,o),
(498,14,o),
(373,14,cs),
(199,14,o),
(88,144,o),
(88,349,cs),
(88,552,o),
(199,683,o),
(373,683,cs),
(498,683,o),
(584,617,o),
(623,518,c),
(641,525,l),
(598,636,o),
(501,703,o),
(373,703,cs),
(188,703,o),
(68,563,o),
(68,349,cs),
(68,135,o),
(188,-6,o),
(373,-6,cs)
);
}
);
width = 696;
},
{
anchors = (
{
name = bottom;
pos = (356,0);
},
{
name = top;
pos = (356,697);
}
);
layerId = "957254E3-B7AD-4837-9092-D4428001DE8E";
shapes = (
{
closed = 1;
nodes = (
(526,-18,o),
(642,64,o),
(690,198,c),
(542,251,l),
(515,176,o),
(455,132,o),
(373,132,cs),
(261,132,o),
(189,213,o),
(189,349,cs),
(189,484,o),
(261,565,o),
(373,565,cs),
(455,565,o),
(515,521,o),
(542,446,c),
(690,499,l),
(642,633,o),
(526,715,o),
(373,715,cs),
(171,715,o),
(32,568,o),
(32,349,cs),
(32,129,o),
(171,-18,o),
(373,-18,cs)
);
}
);
width = 713;
},
{
anchors = (
{
name = bottom;
pos = (361,0);
},
{
name = top;
pos = (361,697);
}
);
layerId = m003;
shapes = (
{
closed = 1;
nodes = (
(512,-12,o),
(619,63,o),
(665,185,c),
(583,215,l),
(548,125,o),
(474,72,o),
(372,72,cs),
(229,72,o),
(138,179,o),
(138,349,cs),
(138,518,o),
(229,625,o),
(372,625,cs),
(474,625,o),
(548,572,o),
(583,482,c),
(665,513,l),
(619,635,o),
(512,709,o),
(372,709,cs),
(179,709,o),
(50,565,o),
(50,349,cs),
(50,132,o),
(180,-12,o),
(372,-12,cs)
);
}
);
width = 704;
}
);
metricLeft = O;
note = C;
unicode = 67;
},
{
color = 1;
glyphname = D;
kernLeft = D;
kernRight = D;
lastChange = "2021-11-14 10:14:10 +0000";
layers = (
{
anchors = (
{
name = bottom;
pos = (339,0);
},
{
name = center;
pos = (137,349);
},
{
name = top;
pos = (339,697);
}
);
layerId = "F91D9E91-C1BC-4259-B0D8-112C0CBA2B8E";
shapes = (
{
closed = 1;
nodes = (
(273,0,ls),
(499,0,o),
(624,122,o),
(624,343,cs),
(624,568,o),
(496,697,o),
(274,697,cs),
(97,697,l),
(97,0,l)
);
},
{
closed = 1;
nodes = (
(117,678,l),
(273,678,ls),
(483,678,o),
(602,559,o),
(602,343,cs),
(602,131,o),
(486,19,o),
(271,19,cs),
(117,19,l)
);
}
);
width = 692;
},
{
anchors = (
{
name = bottom;
pos = (322,0);
},
{
name = center;
pos = (182,349);
},
{
name = top;
pos = (322,697);
}
);
layerId = "957254E3-B7AD-4837-9092-D4428001DE8E";
shapes = (
{
closed = 1;
nodes = (
(268,0,ls),
(506,0,o),
(636,121,o),
(636,343,cs),
(636,569,o),
(502,697,o),
(269,697,cs),
(59,697,l),
(59,0,l)
);
},
{
closed = 1;
nodes = (
(216,553,l),
(266,553,ls),
(397,553,o),
(478,511,o),
(478,349,cs),
(478,181,o),
(394,144,o),
(252,144,cs),
(216,144,l)
);
}
);
width = 668;
},
{
anchors = (
{
name = bottom;
pos = (331,0);
},
{
name = center;
pos = (147,349);
},
{
name = top;
pos = (331,697);
}
);
layerId = m003;
shapes = (
{
closed = 1;
nodes = (
(271,0,ls),
(503,0,o),
(631,122,o),
(631,343,cs),
(631,568,o),
(500,697,o),
(272,697,cs),
(79,697,l),
(79,0,l)
);
},
{
closed = 1;
nodes = (
(167,616,l),
(271,616,ls),
(441,616,o),
(542,535,o),
(542,346,cs),
(542,156,o),
(441,81,o),
(263,81,cs),
(167,81,l)
);
}
);
width = 682;
}
);
metricLeft = H;
metricRight = O;
note = D;
unicode = 68;
},
{
color = 1;
glyphname = E;
kernLeft = H;
kernRight = E;
lastChange = "2021-11-14 09:56:48 +0000";
layers = (
{
anchors = (
{
name = bottom;
pos = (322,0);
},
{
name = ogonek;
pos = (546,0);
},
{
name = top;
pos = (322,697);
},
{
name = topleft;
pos = (-8,697);
}
);
layerId = "F91D9E91-C1BC-4259-B0D8-112C0CBA2B8E";
shapes = (
{
closed = 1;
nodes = (
(546,0,l),
(546,19,l),
(117,19,l),
(117,342,l),
(494,342,l),
(494,361,l),
(117,361,l),
(117,678,l),
(546,678,l),
(546,697,l),
(97,697,l),
(97,0,l)
);
}
);
width = 590;
},
{
anchors = (
{
name = bottom;
pos = (293,0);
},
{
name = ogonek;
pos = (527,0);
},
{
name = top;
pos = (293,697);
},
{
name = topleft;
pos = (2,697);
}
);
layerId = "957254E3-B7AD-4837-9092-D4428001DE8E";
shapes = (
{
closed = 1;
nodes = (
(527,0,l),
(527,140,l),
(216,140,l),
(216,289,l),
(512,289,l),
(512,429,l),
(216,429,l),
(216,557,l),
(527,557,l),
(527,697,l),
(59,697,l),
(59,0,l)
);
}
);
width = 573;
},
{
anchors = (
{
name = bottom;
pos = (309,0);
},
{
name = ogonek;
pos = (538,0);
},
{
name = top;
pos = (309,697);
},
{
name = topleft;
pos = (-3,697);
}
);
layerId = m003;
shapes = (
{
closed = 1;
nodes = (
(538,0,l),
(538,79,l),
(167,79,l),
(167,316,l),
(504,316,l),
(504,395,l),
(167,395,l),
(167,618,l),
(538,618,l),
(538,697,l),
(79,697,l),
(79,0,l)
);
}
);
width = 585;
}
);
metricLeft = H;
note = E;
unicode = 69;
},
{
glyphname = Schwa;
kernLeft = O;
kernRight = D;
lastChange = "2021-11-14 09:56:48 +0000";
layers = (
{
anchors = (
{
name = bottom;
pos = (356,0);
},
{
name = top;
pos = (356,697);
}
);
layerId = "F91D9E91-C1BC-4259-B0D8-112C0CBA2B8E";
shapes = (
{
closed = 1;
nodes = (
(555,-6,o),
(664,124,o),
(664,351,cs),
(664,576,o),
(554,703,o),
(358,703,cs),
(227,703,o),
(138,647,o),
(91,524,c),
(110,517,l),
(153,631,o),
(233,683,o),
(358,683,cs),
(544,683,o),
(644,565,o),
(644,351,cs),
(644,137,o),
(544,14,o),
(366,14,cs),
(188,14,o),
(88,138,o),
(88,351,c),
(68,351,l),
(68,124,o),
(177,-6,o),
(366,-6,cs)
);
},
{
closed = 1;
nodes = (
(660,333,l),
(660,351,l),
(79,351,l),
(79,333,l)
);
}
);
width = 732;
},
{
anchors = (
{
name = bottom;
pos = (380,0);
},
{
name = top;
pos = (380,697);
}
);
layerId = "957254E3-B7AD-4837-9092-D4428001DE8E";
shapes = (
{
closed = 1;
nodes = (
(594,-18,o),
(734,127,o),
(734,348,cs),
(734,571,o),
(595,717,o),
(386,717,cs),
(230,717,o),
(115,637,o),
(64,505,c),
(209,448,l),
(236,527,o),
(301,567,o),
(386,567,cs),
(506,567,o),
(577,489,o),
(577,350,cs),
(577,211,o),
(504,132,o),
(383,132,cs),
(262,132,o),
(189,211,o),
(189,351,c),
(32,351,l),
(32,127,o),
(172,-18,o),
(383,-18,cs)
);
},
{
closed = 1;
nodes = (
(693,231,l),
(693,351,l),
(112,351,l),
(112,231,l)
);
}
);
width = 766;
},
{
anchors = (
{
name = bottom;
pos = (367,0);
},
{
name = top;
pos = (367,697);
}
);
layerId = m003;
shapes = (
{
closed = 1;
nodes = (
(574,-12,o),
(698,126,o),
(698,350,cs),
(698,574,o),
(573,710,o),
(372,710,cs),
(227,710,o),
(126,641,o),
(77,515,c),
(158,483,l),
(194,582,o),
(268,626,o),
(372,626,cs),
(524,626,o),
(610,528,o),
(610,351,cs),
(610,174,o),
(524,72,o),
(374,72,cs),
(225,72,o),
(138,174,o),
(138,351,c),
(50,351,l),
(50,126,o),
(174,-12,o),
(374,-12,cs)
);
},
{
closed = 1;
nodes = (
(676,283,l),
(676,351,l),
(95,351,l),
(95,283,l)
);
}
);
width = 749;
}
);
metricLeft = O;
metricRight = O;
unicode = 399;
},
{
color = 1;
glyphname = F;
kernLeft = H;
kernRight = F;
lastChange = "2021-11-14 09:56:48 +0000";
layers = (
{
anchors = (
{
name = bottom;
pos = (316,0);
},
{
name = top;
pos = (316,697);
}
);
layerId = "F91D9E91-C1BC-4259-B0D8-112C0CBA2B8E";
shapes = (
{
closed = 1;
nodes = (
(117,0,l),
(117,342,l),
(483,342,l),
(483,361,l),
(117,361,l),
(117,678,l),
(538,678,l),
(538,697,l),
(97,697,l),
(97,0,l)
);
}
);
width = 573;
},
{
anchors = (
{
name = bottom;
pos = (282,0);
},
{
name = top;
pos = (282,697);
}
);
layerId = "957254E3-B7AD-4837-9092-D4428001DE8E";
shapes = (
{
closed = 1;
nodes = (
(216,0,l),
(216,289,l),
(490,289,l),
(490,429,l),
(216,429,l),
(216,557,l),
(531,557,l),
(531,697,l),
(59,697,l),
(59,0,l)
);
}
);
width = 553;
},
{
anchors = (
{
name = bottom;
pos = (300,0);
},
{
name = top;
pos = (300,697);
}
);
layerId = m003;
shapes = (
{
closed = 1;
nodes = (
(167,0,l),
(167,316,l),
(487,316,l),
(487,395,l),
(167,395,l),
(167,618,l),
(536,618,l),
(536,697,l),
(79,697,l),
(79,0,l)
);
}
);
width = 565;
}
);
metricLeft = H;
note = F;
unicode = 70;
},
{
color = 1;
glyphname = G;
kernLeft = O;
kernRight = G;
lastChange = "2021-11-14 09:56:48 +0000";
layers = (
{
anchors = (
{
name = bottom;
pos = (373,0);
},
{
name = top;
pos = (373,697);
}
);
layerId = "F91D9E91-C1BC-4259-B0D8-112C0CBA2B8E";
shapes = (
{
closed = 1;
nodes = (
(477,-6,o),
(590,41,o),
(624,172,c),
(621,173,l),
(622,0,l),
(641,0,l),
(641,344,l),
(439,344,l),
(439,325,l),
(628,325,l),
(622,337,l),
(622,268,ls),
(622,69,o),
(487,14,o),
(373,14,cs),
(199,14,o),
(88,144,o),
(88,349,cs),
(88,552,o),
(199,683,o),
(373,683,cs),
(498,683,o),
(584,617,o),
(623,518,c),
(641,525,l),
(598,636,o),
(501,703,o),
(373,703,cs),
(188,703,o),
(68,563,o),
(68,349,cs),
(68,134,o),
(188,-6,o),
(372,-6,cs)
);
}
);
width = 722;
},
{
anchors = (
{
name = bottom;
pos = (373,0);
},
{
name = top;
pos = (373,697);
}
);
layerId = "957254E3-B7AD-4837-9092-D4428001DE8E";
shapes = (
{
closed = 1;
nodes = (
(452,-18,o),
(518,17,o),
(557,76,c),
(530,98,l),
(552,0,l),
(690,0,l),
(690,387,l),
(383,387,l),
(383,247,l),
(586,247,l),
(551,357,l),
(551,324,ls),
(551,168,o),
(452,132,o),
(373,132,cs),
(261,132,o),
(189,213,o),
(189,349,cs),
(189,484,o),
(261,565,o),
(373,565,cs),
(455,565,o),
(515,521,o),
(542,446,c),
(690,499,l),
(642,633,o),
(526,715,o),
(373,715,cs),
(171,715,o),
(32,568,o),
(32,349,cs),
(32,129,o),
(171,-18,o),
(363,-18,cs)
);
}
);
width = 738;
},
{
anchors = (
{
name = bottom;
pos = (372,0);
},
{
name = top;
pos = (372,697);
}
);
layerId = m003;
shapes = (
{
closed = 1;
nodes = (
(463,-12,o),
(554,29,o),
(590,125,c),
(575,136,l),
(587,0,l),
(665,0,l),
(665,366,l),
(411,366,l),
(411,287,l),
(607,287,l),
(587,347,l),
(587,296,ls),
(587,118,o),
(469,72,o),
(372,72,cs),
(229,72,o),
(138,179,o),
(138,349,cs),
(138,518,o),
(229,625,o),
(372,625,cs),
(474,625,o),
(548,572,o),
(583,482,c),
(665,513,l),
(619,635,o),
(512,709,o),
(372,709,cs),
(179,709,o),
(50,565,o),
(50,349,cs),
(50,132,o),
(179,-12,o),
(367,-12,cs)
);
}
);
width = 731;
}
);
metricLeft = O;
note = G;
unicode = 71;
},
{
color = 1;
glyphname = H;
kernLeft = H;
kernRight = H;
lastChange = "2021-11-14 09:56:48 +0000";
layers = (
{
anchors = (
{
name = bottom;
pos = (326,0);
},
{
name = center;
pos = (326,539);
},
{
name = top;
pos = (326,697);
},
{
name = topleft;
pos = (-7,697);
}
);
background = {
shapes = (
{
closed = 1;
nodes = (
(110,0,l),
(110,347,l),
(537,347,l),
(537,0,l),
(547,0,l),
(547,697,l),
(537,697,l),
(537,358,l),
(110,358,l),
(110,697,l),
(100,697,l),
(100,0,l)
);
}
);
};
layerId = "F91D9E91-C1BC-4259-B0D8-112C0CBA2B8E";
shapes = (
{
closed = 1;
nodes = (
(117,0,l),
(117,344,l),
(533,344,l),
(533,0,l),
(554,0,l),
(554,697,l),
(533,697,l),
(533,363,l),
(117,363,l),
(117,697,l),
(97,697,l),
(97,0,l)
);
}
);
width = 651;
},
{
anchors = (
{
name = bottom;
pos = (353,0);
},
{
name = center;
pos = (352,557);
},
{
name = top;
pos = (352,697);
},
{
name = topleft;
pos = (2,697);
}
);
layerId = "957254E3-B7AD-4837-9092-D4428001DE8E";
shapes = (
{
closed = 1;
nodes = (
(216,0,l),
(216,288,l),
(487,288,l),
(487,0,l),
(644,0,l),
(644,697,l),
(487,697,l),
(487,432,l),
(216,432,l),
(216,697,l),
(59,697,l),
(59,0,l)
);
}
);
width = 703;
},
{
anchors = (
{
name = bottom;
pos = (339,0);
},
{
name = center;
pos = (339,545);
},
{
name = top;
pos = (339,697);
},
{
name = topleft;
pos = (10,697);
}
);
layerId = m003;
shapes = (
{
closed = 1;
nodes = (
(167,0,l),
(167,316,l),
(511,316,l),
(511,0,l),
(599,0,l),
(599,697,l),
(511,697,l),
(511,398,l),
(167,398,l),
(167,697,l),
(79,697,l),
(79,0,l)
);
}
);
width = 678;
}
);
note = H;
unicode = 72;
},
{
color = 1;
glyphname = I;
kernLeft = H;
kernRight = H;
lastChange = "2021-11-14 09:56:48 +0000";
layers = (
{
anchors = (
{
name = bottom;
pos = (107,0);
},
{
name = ogonek;
pos = (117,0);
},
{
name = top;
pos = (107,697);
},
{
name = topleft;
pos = (-8,697);
}
);
layerId = "F91D9E91-C1BC-4259-B0D8-112C0CBA2B8E";
shapes = (
{
closed = 1;
nodes = (
(117,0,l),
(117,697,l),
(97,697,l),
(97,0,l)
);
}
);
width = 214;
},
{
anchors = (
{
name = bottom;
pos = (138,0);
},
{
name = ogonek;
pos = (216,0);
},
{
name = top;
pos = (138,697);
},
{
name = topleft;
pos = (2,697);
}
);
layerId = "957254E3-B7AD-4837-9092-D4428001DE8E";
shapes = (
{
closed = 1;
nodes = (
(216,0,l),
(216,697,l),
(59,697,l),
(59,0,l)
);
}
);
width = 275;
},
{
anchors = (
{
name = bottom;
pos = (124,0);
},
{
name = ogonek;
pos = (167,0);
},
{
name = top;
pos = (124,697);
},
{
name = topleft;
pos = (-3,697);
}
);
layerId = m003;
shapes = (
{
closed = 1;
nodes = (
(167,0,l),
(167,697,l),
(79,697,l),
(79,0,l)
);
}
);
width = 246;
}
);
metricLeft = H;
metricRight = H;
note = I;
unicode = 73;
},
{
color = 1;
glyphname = J;
kernLeft = J;
kernRight = J;
lastChange = "2021-11-14 09:56:48 +0000";
layers = (
{
anchors = (
{
name = bottom;
pos = (280,0);
},
{
name = top;
pos = (299,697);
}
);
layerId = "F91D9E91-C1BC-4259-B0D8-112C0CBA2B8E";
shapes = (
{
closed = 1;
nodes = (
(388,-6,o),
(459,86,o),
(459,256,cs),
(459,697,l),
(139,697,l),
(139,678,l),
(439,678,l),
(439,256,ls),
(439,97,o),
(376,14,o),
(254,14,cs),
(143,14,o),
(70,81,o),
(62,194,c),
(42,193,l),
(51,69,o),
(132,-6,o),
(254,-6,cs)
);
}
);
width = 549;
},
{
anchors = (
{
name = bottom;
pos = (290,0);
},
{
name = top;
pos = (300,697);
}
);
layerId = "957254E3-B7AD-4837-9092-D4428001DE8E";
shapes = (
{
closed = 1;
nodes = (
(408,-18,o),
(504,81,o),
(504,238,cs),
(504,697,l),
(95,697,l),
(95,557,l),
(346,557,l),
(346,247,ls),
(346,174,o),
(328,127,o),
(260,127,cs),
(202,127,o),
(176,158,o),
(171,242,c),
(16,225,l),
(26,72,o),
(120,-18,o),
(260,-18,cs)
);
}
);
width = 558;
},
{
anchors = (
{
name = bottom;
pos = (284,0);
},
{
name = top;
pos = (298,697);
}
);
layerId = m003;
shapes = (
{
closed = 1;
nodes = (
(397,-12,o),
(480,84,o),
(480,247,cs),
(480,697,l),
(116,697,l),
(116,618,l),
(392,618,l),
(392,252,ls),
(392,135,o),
(351,70,o),
(256,70,cs),
(173,70,o),
(122,117,o),
(115,218,c),
(28,209,l),
(37,71,o),
(126,-12,o),
(256,-12,cs)
);
}
);
width = 552;
}
);
note = J;
unicode = 74;
},
{
color = 1;
glyphname = K;
kernLeft = H;
kernRight = K;
lastChange = "2021-11-14 09:56:48 +0000";
layers = (
{
anchors = (
{
name = bottom;
pos = (294,0);
},
{
name = top;
pos = (294,697);
}
);
layerId = "F91D9E91-C1BC-4259-B0D8-112C0CBA2B8E";
shapes = (
{
closed = 1;
nodes = (
(551,697,l),
(523,697,l),
(111,269,l),
(111,241,l)
);
},
{
closed = 1;
nodes = (
(117,0,l),
(117,697,l),
(97,697,l),
(97,0,l)
);
},
{
closed = 1;
nodes = (
(554,0,l),
(283,428,l),
(268,414,l),
(530,0,l)
);
}
);
width = 590;
},
{
anchors = (
{
name = bottom;
pos = (341,0);
},
{
name = top;
pos = (341,697);
}
);
layerId = "957254E3-B7AD-4837-9092-D4428001DE8E";
shapes = (
{
closed = 1;
nodes = (
(675,697,l),
(464,697,l),
(185,400,l),
(185,202,l)
);
},
{
closed = 1;
nodes = (
(216,0,l),
(216,697,l),
(59,697,l),
(59,0,l)
);
},
{
closed = 1;
nodes = (
(677,0,l),
(398,444,l),
(281,335,l),
(491,0,l)
);
}
);
width = 682;
},
{
anchors = (
{
name = bottom;
pos = (318,0);
},
{
name = top;
pos = (318,697);
}
);
layerId = m003;
shapes = (
{
closed = 1;
nodes = (
(613,697,l),
(495,697,l),
(148,334,l),
(148,222,l)
);
},
{
closed = 1;
nodes = (
(167,0,l),
(167,697,l),
(79,697,l),
(79,0,l)
);
},
{
closed = 1;
nodes = (
(615,0,l),
(341,436,l),
(275,375,l),
(512,0,l)
);
}
);
width = 634;
}
);
metricLeft = "=I";
note = K;
unicode = 75;
},
{
color = 1;
glyphname = L;
kernLeft = H;
kernRight = L;
lastChange = "2021-11-14 09:56:48 +0000";
layers = (
{
anchors = (
{
name = bottom;
pos = (271,0);
},
{
name = center;
pos = (168,375);
},
{
name = top;
pos = (107,697);
},
{
name = topright;
pos = (389,493);
}
);
layerId = "F91D9E91-C1BC-4259-B0D8-112C0CBA2B8E";
shapes = (
{
closed = 1;
nodes = (
(454,0,l),
(454,19,l),
(117,19,l),
(117,697,l),
(97,697,l),
(97,0,l)
);
}
);
width = 480;
},
{
anchors = (
{
name = bottom;
pos = (281,0);
},
{
name = center;
pos = (156,323);
},
{
name = top;
pos = (138,697);
},
{
name = topright;
pos = (432,493);
}
);
layerId = "957254E3-B7AD-4837-9092-D4428001DE8E";
shapes = (
{
closed = 1;
nodes = (
(502,0,l),
(502,140,l),
(216,140,l),
(216,697,l),
(59,697,l),
(59,0,l)
);
}
);
width = 510;
},
{
anchors = (
{
name = bottom;
pos = (247,0);
},
{
name = center;
pos = (160,349);
},
{
name = top;
pos = (124,697);
},
{
name = topright;
pos = (411,493);
}
);
layerId = m003;
shapes = (
{
closed = 1;
nodes = (
(479,0,l),
(479,79,l),
(167,79,l),
(167,697,l),
(79,697,l),
(79,0,l)
);
}
);
width = 495;
}
);
metricLeft = H;
note = L;
unicode = 76;
},
{
color = 1;
glyphname = M;
kernLeft = H;
kernRight = H;
lastChange = "2021-11-14 09:56:48 +0000";
layers = (
{
anchors = (
{
name = bottom;
pos = (404,0);
},
{
name = top;
pos = (404,697);
}
);
layerId = "F91D9E91-C1BC-4259-B0D8-112C0CBA2B8E";
shapes = (
{
closed = 1;
nodes = (
(117,0,l),
(117,675,l),
(118,675,l),
(393,55,l),
(414,55,l),
(689,675,l),
(690,675,l),
(690,0,l),
(710,0,l),
(710,697,l),
(678,697,l),
(401,72,l),
(407,72,l),
(130,697,l),
(97,697,l),
(97,0,l)
);
}
);
width = 807;
},
{
anchors = (
{
name = bottom;
pos = (434,0);
},
{
name = top;
pos = (434,697);
}
);
layerId = "957254E3-B7AD-4837-9092-D4428001DE8E";
shapes = (
{
closed = 1;
nodes = (
(216,0,l),
(216,513,l),
(201,510,l),
(358,63,l),
(510,63,l),
(667,510,l),
(652,513,l),
(652,0,l),
(809,0,l),
(809,697,l),
(580,697,l),
(420,221,l),
(448,221,l),
(288,697,l),
(59,697,l),
(59,0,l)
);
}
);
width = 868;
},
{
anchors = (
{
name = bottom;
pos = (420,0);
},
{
name = top;
pos = (420,697);
}
);
layerId = m003;
shapes = (
{
closed = 1;
nodes = (
(167,0,l),
(167,595,l),
(160,594,l),
(377,59,l),
(463,59,l),
(679,594,l),
(672,595,l),
(672,0,l),
(760,0,l),
(760,697,l),
(631,697,l),
(412,146,l),
(428,146,l),
(209,697,l),
(79,697,l),
(79,0,l)
);
}
);
width = 839;
}
);
metricLeft = H;
metricRight = H;
note = M;
unicode = 77;
},
{
color = 1;
glyphname = N;
kernLeft = H;
kernRight = H;
lastChange = "2021-11-14 09:56:48 +0000";
layers = (
{
anchors = (
{
name = bottom;
pos = (317,0);
},
{
name = top;
pos = (317,697);
}
);
layerId = "F91D9E91-C1BC-4259-B0D8-112C0CBA2B8E";
shapes = (
{
closed = 1;
nodes = (
(117,0,l),
(117,673,l),
(116,673,l),
(524,0,l),
(553,0,l),
(553,697,l),
(533,697,l),
(533,24,l),
(533,24,l),
(125,697,l),
(97,697,l),
(97,0,l)
);
}
);
width = 650;
},
{
anchors = (
{
name = bottom;
pos = (350,0);
},
{
name = top;
pos = (350,697);
}
);
layerId = "957254E3-B7AD-4837-9092-D4428001DE8E";
shapes = (
{
closed = 1;
nodes = (
(216,0,l),
(216,492,l),
(176,492,l),
(478,0,l),
(639,0,l),
(639,697,l),
(482,697,l),
(482,206,l),
(523,206,l),
(219,697,l),
(59,697,l),
(59,0,l)
);
}
);
width = 698;
},
{
anchors = (
{
name = bottom;
pos = (334,0);
},
{
name = top;
pos = (334,697);
}
);
layerId = m003;
shapes = (
{
closed = 1;
nodes = (
(167,0,l),
(167,584,l),
(147,584,l),
(502,0,l),
(597,0,l),
(597,697,l),
(509,697,l),
(509,114,l),
(529,114,l),
(172,697,l),
(79,697,l),
(79,0,l)
);
}
);
width = 676;
}
);
metricLeft = H;
metricRight = H;
note = N;
unicode = 78;
},
{
glyphname = Nhookleft;
kernLeft = H;
kernRight = H;
lastChange = "2021-11-14 09:56:48 +0000";
layers = (
{
anchors = (
{
name = bottom;
pos = (318,0);
},
{
name = top;
pos = (318,697);
}
);
layerId = "F91D9E91-C1BC-4259-B0D8-112C0CBA2B8E";
shapes = (
{
closed = 1;
nodes = (
(118,0,l),
(118,672,l),
(117,672,l),
(525,0,l),
(554,0,l),
(554,697,l),
(533,697,l),
(533,25,l),
(533,25,l),
(125,697,l),
(97,697,l),
(97,0,l)
);
},
{
closed = 1;
nodes = (
(78,-160,o),
(118,-108,o),
(118,-28,cs),
(118,0,l),
(97,0,l),
(97,-7,o),
(97,-15,o),
(97,-35,cs),
(97,-90,o),
(71,-143,o),
(-8,-143,c),
(-8,-160,l)
);
}
);
width = 651;
},
{
anchors = (
{
name = bottom;
pos = (349,0);
},
{
name = top;
pos = (349,697);
}
);
layerId = "957254E3-B7AD-4837-9092-D4428001DE8E";
shapes = (
{
closed = 1;
nodes = (
(216,0,l),
(216,475,l),
(180,475,l),
(478,0,l),
(639,0,l),
(639,697,l),
(482,697,l),
(482,225,l),
(518,225,l),
(219,697,l),
(59,697,l),
(59,0,l)
);
},
{
closed = 1;
nodes = (
(156,-189,o),
(216,-107,o),
(216,-26,cs),
(216,0,l),
(59,0,l),
(59,-16,o),
(59,-23,o),
(59,-31,cs),
(59,-54,o),
(43,-87,o),
(-9,-87,c),
(-9,-189,l)
);
}
);
width = 698;
},
{
anchors = (
{
name = bottom;
pos = (334,0);
},
{
name = top;
pos = (334,697);
}
);
layerId = m003;
shapes = (
{
closed = 1;
nodes = (
(167,0,l),
(167,575,l),
(149,575,l),
(502,0,l),
(597,0,l),
(597,697,l),
(509,697,l),
(509,124,l),
(526,124,l),
(172,697,l),
(79,697,l),
(79,0,l)
);
},
{
closed = 1;
nodes = (
(117,-175,o),
(167,-108,o),
(167,-27,cs),
(167,0,l),
(79,0,l),
(79,-12,o),
(79,-19,o),
(79,-33,cs),
(79,-73,o),
(58,-116,o),
(-8,-116,c),
(-8,-175,l)
);
}
);
width = 676;
}
);
metricLeft = "=I@200";
metricRight = "=I";
unicode = 413;
},
{
color = 1;
glyphname = Eng;
kernLeft = H;
kernRight = H;
lastChange = "2021-11-14 09:56:48 +0000";
layers = (
{
layerId = "F91D9E91-C1BC-4259-B0D8-112C0CBA2B8E";
shapes = (
{
closed = 1;
nodes = (
(515,-160,o),
(553,-107,o),
(553,-25,cs),
(553,697,l),
(533,697,l),
(533,25,l),
(533,25,l),
(125,697,l),
(97,697,l),
(97,0,l),
(117,0,l),
(117,672,l),
(117,672,l),
(524,0,ls),
(529,-8,o),
(533,-16,o),
(533,-35,cs),
(533,-91,o),
(506,-143,o),
(428,-143,cs),
(411,-143,o),
(382,-137,o),
(362,-129,c),
(358,-145,l),
(378,-153,o),
(411,-160,o),
(431,-160,cs)
);
}
);
width = 650;
},
{
layerId = "957254E3-B7AD-4837-9092-D4428001DE8E";
shapes = (
{
closed = 1;
nodes = (
(593,-189,o),
(639,-89,o),
(639,8,cs),
(639,697,l),
(482,697,l),
(482,225,l),
(518,225,l),
(219,697,l),
(59,697,l),
(59,0,l),
(216,0,l),
(216,475,l),
(180,475,l),
(478,0,ls),
(488,-16,o),
(489,-30,o),
(489,-39,cs),
(489,-65,o),
(462,-87,o),
(410,-87,cs),
(401,-87,o),
(392,-87,o),
(383,-87,c),
(383,-186,l),
(411,-189,o),
(431,-189,o),
(453,-189,cs)
);
}
);
width = 698;
},
{
layerId = m003;
shapes = (
{
closed = 1;
nodes = (
(554,-175,o),
(597,-98,o),
(597,-9,cs),
(597,697,l),
(509,697,l),
(509,124,l),
(526,124,l),
(172,697,l),
(79,697,l),
(79,0,l),
(167,0,l),
(167,575,l),
(149,575,l),
(502,0,ls),
(508,-10,o),
(512,-20,o),
(512,-37,cs),
(512,-79,o),
(485,-116,o),
(420,-116,cs),
(408,-116,o),
(388,-113,o),
(373,-108,c),
(371,-166,l),
(397,-171,o),
(421,-175,o),
(443,-175,cs)
);
}
);
width = 676;
}
);
metricLeft = "=I";
metricRight = "=I";
note = Eng;
unicode = 330;
},
{
color = 1;
glyphname = O;
kernLeft = O;
kernRight = O;
lastChange = "2021-11-14 09:56:48 +0000";
layers = (
{
anchors = (
{
name = bottom;
pos = (374,0);
},
{
name = center;
pos = (374,349);
},
{
name = ogonek;
pos = (434,0);
},
{
name = top;
pos = (374,697);
},
{
name = topleft;
pos = (5,697);
},
{
name = topright;
pos = (697,493);
}
);
layerId = "F91D9E91-C1BC-4259-B0D8-112C0CBA2B8E";
shapes = (
{
closed = 1;
nodes = (
(559,-6,o),
(679,134,o),
(679,348,cs),
(679,562,o),
(558,703,o),
(373,703,cs),
(188,703,o),
(68,562,o),
(68,348,cs),
(68,134,o),
(188,-6,o),
(373,-6,cs)
);
},
{
closed = 1;
nodes = (
(199,14,o),
(88,143,o),
(88,348,cs),
(88,554,o),
(199,683,o),
(373,683,cs),
(548,683,o),
(659,553,o),
(659,348,cs),
(659,144,o),
(548,14,o),
(373,14,cs)
);
}
);
width = 747;
},
{
anchors = (
{
name = bottom;
pos = (374,0);
},
{
name = center;
pos = (374,349);
},
{
name = ogonek;
pos = (461,0);
},
{
name = top;
pos = (373,697);
},
{
name = topleft;
pos = (23,697);
},
{
name = topright;
pos = (684,493);
}
);
layerId = "957254E3-B7AD-4837-9092-D4428001DE8E";
shapes = (
{
closed = 1;
nodes = (
(575,-18,o),
(715,128,o),
(715,348,cs),
(715,569,o),
(577,715,o),
(373,715,cs),
(171,715,o),
(32,568,o),
(32,348,cs),
(32,129,o),
(171,-18,o),
(373,-18,cs)
);
},
{
closed = 1;
nodes = (
(261,132,o),
(189,213,o),
(189,348,cs),
(189,484,o),
(261,565,o),
(373,565,cs),
(486,565,o),
(557,482,o),
(557,348,cs),
(557,215,o),
(486,132,o),
(373,132,cs)
);
}
);
width = 747;
},
{
anchors = (
{
name = bottom;
pos = (373,0);
},
{
name = center;
pos = (373,349);
},
{
name = ogonek;
pos = (448,0);
},
{
name = top;
pos = (373,697);
},
{
name = topleft;
pos = (10,697);
},
{
name = topright;
pos = (656,493);
}
);
guides = (
{
pos = (1394,1394);
}
);
layerId = m003;
shapes = (
{
closed = 1;
nodes = (
(566,-12,o),
(697,131,o),
(697,348,cs),
(697,566,o),
(567,709,o),
(372,709,cs),
(180,709,o),
(50,566,o),
(50,348,cs),
(50,132,o),
(179,-12,o),
(372,-12,cs)
);
},
{
closed = 1;
nodes = (
(229,72,o),
(138,178,o),
(138,348,cs),
(138,519,o),
(229,625,o),
(372,625,cs),
(517,625,o),
(608,518,o),
(608,348,cs),
(608,179,o),
(517,72,o),
(372,72,cs)
);
}
);
width = 748;
}
);
note = O;
unicode = 79;
},
{
color = 1;
glyphname = OE;
kernLeft = O;
kernRight = E;
lastChange = "2021-11-14 09:56:48 +0000";
layers = (
{
anchors = (
{
name = bottom;
pos = (549,0);
},
{
name = top;
pos = (549,697);
}
);
layerId = "F91D9E91-C1BC-4259-B0D8-112C0CBA2B8E";
shapes = (
{
closed = 1;
nodes = (
(1024,0,l),
(1024,19,l),
(595,19,l),
(595,342,l),
(972,342,l),
(972,361,l),
(595,361,l),
(595,678,l),
(1024,678,l),
(1024,697,l),
(418,697,ls),
(196,697,o),
(68,568,o),
(68,343,cs),
(68,122,o),
(193,0,o),
(419,0,cs)
);
},
{
closed = 1;
nodes = (
(206,19,o),
(89,131,o),
(89,343,cs),
(89,559,o),
(209,678,o),
(418,678,cs),
(574,678,l),
(574,19,l),
(420,19,ls)
);
}
);
width = 1068;
},
{
anchors = (
{
name = bottom;
pos = (449,0);
},
{
name = top;
pos = (449,697);
}
);
layerId = "957254E3-B7AD-4837-9092-D4428001DE8E";
shapes = (
{
closed = 1;
nodes = (
(920,0,l),
(920,140,l),
(609,140,l),
(609,289,l),
(905,289,l),
(905,429,l),
(609,429,l),
(609,557,l),
(920,557,l),
(920,697,l),
(399,697,ls),
(166,697,o),
(32,569,o),
(32,343,cs),
(32,121,o),
(162,0,o),
(400,0,cs)
);
},
{
closed = 1;
nodes = (
(274,144,o),
(190,181,o),
(190,349,cs),
(190,511,o),
(271,553,o),
(402,553,cs),
(452,553,l),
(452,144,l),
(416,144,ls)
);
}
);
width = 966;
},
{
anchors = (
{
name = bottom;
pos = (631,0);
},
{
name = top;
pos = (631,697);
}
);
layerId = m003;
shapes = (
{
closed = 1;
nodes = (
(972,0,l),
(972,79,l),
(601,79,l),
(601,316,l),
(938,316,l),
(938,395,l),
(601,395,l),
(601,618,l),
(972,618,l),
(972,697,l),
(408,697,ls),
(180,697,o),
(50,568,o),
(50,343,cs),
(50,122,o),
(177,0,o),
(409,0,cs)
);
},
{
closed = 1;
nodes = (
(240,81,o),
(139,156,o),
(139,346,cs),
(139,535,o),
(239,616,o),
(410,616,cs),
(513,616,l),
(513,81,l),
(418,81,ls)
);
}
);
width = 1019;
}
);
metricLeft = O;
metricRight = E;
note = OE;
unicode = 338;
},
{
color = 1;
glyphname = P;
kernLeft = H;
kernRight = P;
lastChange = "2021-11-14 09:56:48 +0000";
layers = (
{
anchors = (
{
name = bottom;
pos = (264,0);
},
{
name = top;
pos = (264,697);
}
);
layerId = "F91D9E91-C1BC-4259-B0D8-112C0CBA2B8E";
shapes = (
{
closed = 1;
nodes = (
(117,0,l),
(117,318,l),
(268,318,ls),
(409,318,o),
(491,388,o),
(491,507,cs),
(491,627,o),
(408,697,o),
(268,697,cs),
(97,697,l),
(97,0,l)
);
},
{
closed = 1;
nodes = (
(117,678,l),
(267,678,ls),
(396,678,o),
(471,615,o),
(471,507,cs),
(471,399,o),
(395,337,o),
(267,337,cs),
(117,337,l)
);
}
);
width = 542;
},
{
anchors = (
{
name = bottom;
pos = (268,0);
},
{
name = top;
pos = (268,697);
}
);
layerId = "957254E3-B7AD-4837-9092-D4428001DE8E";
shapes = (
{
closed = 1;
nodes = (
(215,0,l),
(215,280,l),
(304,280,ls),
(463,280,o),
(546,353,o),
(546,492,cs),
(546,630,o),
(465,697,o),
(304,697,cs),
(59,697,l),
(59,0,l)
);
},
{
closed = 1;
nodes = (
(215,557,l),
(288,557,ls),
(357,557,o),
(389,543,o),
(389,490,cs),
(389,434,o),
(352,420,o),
(288,420,cs),
(215,420,l)
);
}
);
width = 567;
},
{
anchors = (
{
name = bottom;
pos = (267,0);
},
{
name = top;
pos = (267,697);
}
);
layerId = m003;
shapes = (
{
closed = 1;
nodes = (
(166,0,l),
(166,300,l),
(287,300,ls),
(436,300,o),
(519,371,o),
(519,500,cs),
(519,629,o),
(437,697,o),
(287,697,cs),
(79,697,l),
(79,0,l)
);
},
{
closed = 1;
nodes = (
(166,618,l),
(278,618,ls),
(377,618,o),
(431,580,o),
(431,499,cs),
(431,416,o),
(374,378,o),
(278,378,cs),
(166,378,l)
);
}
);
width = 554;
}
);
metricLeft = H;
note = P;
unicode = 80;
},
{
color = 1;
glyphname = Thorn;
kernLeft = H;
kernRight = Thorn;
lastChange = "2021-11-14 09:56:48 +0000";
layers = (
{
anchors = (
{
name = bottom;
pos = (313,0);
},
{
name = top;
pos = (313,697);
}
);
layerId = "F91D9E91-C1BC-4259-B0D8-112C0CBA2B8E";
shapes = (
{
closed = 1;
nodes = (
(165,0,l),
(165,214,l),
(315,214,ls),
(456,214,o),
(539,284,o),
(539,403,cs),
(539,523,o),
(455,593,o),
(318,593,cs),
(165,593,l),
(165,697,l),
(146,697,l),
(146,0,l)
);
},
{
closed = 1;
nodes = (
(165,575,l),
(315,575,ls),
(444,575,o),
(520,512,o),
(520,403,cs),
(520,295,o),
(445,233,o),
(315,233,cs),
(165,233,l)
);
}
);
width = 625;
},
{
anchors = (
{
name = bottom;
pos = (300,0);
},
{
name = top;
pos = (300,697);
}
);
layerId = "957254E3-B7AD-4837-9092-D4428001DE8E";
shapes = (
{
closed = 1;
nodes = (
(241,0,l),
(241,191,l),
(324,191,ls),
(480,191,o),
(571,270,o),
(571,404,cs),
(571,530,o),
(492,603,o),
(359,603,cs),
(241,603,l),
(241,697,l),
(98,697,l),
(98,0,l)
);
},
{
closed = 1;
nodes = (
(241,481,l),
(324,481,ls),
(388,481,o),
(428,460,o),
(428,399,cs),
(428,340,o),
(388,321,o),
(324,321,cs),
(241,321,l)
);
}
);
width = 606;
},
{
anchors = (
{
name = bottom;
pos = (313,0);
},
{
name = top;
pos = (313,697);
}
);
layerId = m003;
shapes = (
{
closed = 1;
nodes = (
(210,0,l),
(210,203,l),
(327,203,ls),
(474,203,o),
(562,278,o),
(562,403,cs),
(562,526,o),
(481,598,o),
(345,598,cs),
(210,598,l),
(210,697,l),
(129,697,l),
(129,0,l)
);
},
{
closed = 1;
nodes = (
(210,529,l),
(327,529,ls),
(423,529,o),
(481,486,o),
(481,401,cs),
(481,318,o),
(424,276,o),
(327,276,cs),
(210,276,l)
);
}
);
width = 631;
}
);
note = Thorn;
unicode = 222;
},
{
color = 1;
glyphname = Q;
kernLeft = O;
kernRight = Q;
lastChange = "2021-11-14 09:56:48 +0000";
layers = (
{
anchors = (
{
name = bottom;
pos = (379,0);
},
{
name = top;
pos = (379,697);
}
);
guides = (
{
angle = 90;
pos = (677,-136);
}
);
layerId = "F91D9E91-C1BC-4259-B0D8-112C0CBA2B8E";
shapes = (
{
closed = 1;
nodes = (
(559,-6,o),
(679,134,o),
(679,348,cs),
(679,562,o),
(558,703,o),
(373,703,cs),
(188,703,o),
(68,562,o),
(68,348,cs),
(68,135,o),
(188,-6,o),
(373,-6,cs)
);
},
{
closed = 1;
nodes = (
(687,-17,l),
(440,229,l),
(427,215,l),
(674,-30,l)
);
},
{
closed = 1;
nodes = (
(199,14,o),
(88,143,o),
(88,348,cs),
(88,554,o),
(199,683,o),
(373,683,cs),
(548,683,o),
(659,553,o),
(659,348,cs),
(659,144,o),
(548,14,o),
(373,14,cs)
);
}
);
width = 755;
},
{
anchors = (
{
name = bottom;
pos = (390,0);
},
{
name = top;
pos = (390,697);
}
);
layerId = "957254E3-B7AD-4837-9092-D4428001DE8E";
shapes = (
{
closed = 1;
nodes = (
(575,-18,o),
(715,128,o),
(715,348,cs),
(715,569,o),
(577,715,o),
(373,715,cs),
(171,715,o),
(32,568,o),
(32,348,cs),
(32,128,o),
(172,-18,o),
(373,-18,cs)
);
},
{
closed = 1;
nodes = (
(761,29,l),
(464,318,l),
(373,221,l),
(667,-62,l)
);
},
{
closed = 1;
nodes = (
(261,132,o),
(189,213,o),
(189,348,cs),
(189,484,o),
(261,565,o),
(373,565,cs),
(486,565,o),
(557,482,o),
(557,348,cs),
(557,215,o),
(486,132,o),
(373,132,cs)
);
}
);
width = 793;
},
{
anchors = (
{
name = bottom;
pos = (384,0);
},
{
name = top;
pos = (384,697);
}
);
layerId = m003;
shapes = (
{
closed = 1;
nodes = (
(566,-12,o),
(697,131,o),
(697,348,cs),
(697,566,o),
(567,709,o),
(372,709,cs),
(180,709,o),
(50,566,o),
(50,348,cs),
(50,132,o),
(180,-12,o),
(372,-12,cs)
);
},
{
closed = 1;
nodes = (
(723,6,l),
(451,273,l),
(399,218,l),
(670,-46,l)
);
},
{
closed = 1;
nodes = (
(229,72,o),
(138,178,o),
(138,348,cs),
(138,519,o),
(229,625,o),
(372,625,cs),
(517,625,o),
(608,518,o),
(608,348,cs),
(608,179,o),
(517,72,o),
(372,72,cs)
);
}
);
width = 774;
}
);
metricLeft = O;
metricRight = O;
note = Q;
unicode = 81;
},
{
color = 1;
glyphname = R;
kernLeft = H;
kernRight = R;
lastChange = "2021-11-14 09:56:48 +0000";
layers = (
{
anchors = (
{
name = bottom;
pos = (281,0);
},
{
name = top;
pos = (281,697);
}
);
layerId = "F91D9E91-C1BC-4259-B0D8-112C0CBA2B8E";
shapes = (
{
closed = 1;
nodes = (
(117,0,l),
(117,327,l),
(262,327,ls),
(279,327,o),
(304,328,o),
(321,330,c),
(433,347,o),
(491,411,o),
(491,511,cs),
(491,630,o),
(412,697,o),
(268,697,cs),
(97,697,l),
(97,0,l)
);
},
{
closed = 1;
nodes = (
(527,0,l),
(334,336,l),
(313,333,l),
(504,0,l)
);
},
{
closed = 1;
nodes = (
(117,678,l),
(267,678,ls),
(396,678,o),
(471,620,o),
(471,511,cs),
(471,404,o),
(398,346,o),
(267,346,cs),
(117,346,l)
);
}
);
width = 577;
},
{
anchors = (
{
name = bottom;
pos = (294,0);
},
{
name = top;
pos = (294,697);
}
);
layerId = "957254E3-B7AD-4837-9092-D4428001DE8E";
shapes = (
{
closed = 1;
nodes = (
(216,0,l),
(216,277,l),
(230,277,ls),
(250,277,o),
(288,277,o),
(325,277,c),
(465,284,o),
(546,355,o),
(546,491,cs),
(546,615,o),
(480,697,o),
(304,697,cs),
(59,697,l),
(59,0,l)
);
},
{
closed = 1;
nodes = (
(612,0,l),
(420,313,l),
(259,294,l),
(430,0,l)
);
},
{
closed = 1;
nodes = (
(216,557,l),
(288,557,ls),
(337,557,o),
(389,553,o),
(389,489,cs),
(389,424,o),
(338,417,o),
(288,417,cs),
(216,417,l)
);
}
);
width = 621;
},
{
anchors = (
{
name = bottom;
pos = (288,0);
},
{
name = top;
pos = (288,697);
}
);
layerId = m003;
shapes = (
{
closed = 1;
nodes = (
(167,0,l),
(167,303,l),
(247,303,ls),
(273,303,o),
(304,303,o),
(324,304,c),
(451,316,o),
(519,385,o),
(519,501,cs),
(519,623,o),
(446,697,o),
(287,697,cs),
(79,697,l),
(79,0,l)
);
},
{
closed = 1;
nodes = (
(570,0,l),
(378,325,l),
(288,314,l),
(469,0,l)
);
},
{
closed = 1;
nodes = (
(167,618,l),
(278,618,ls),
(367,618,o),
(431,587,o),
(431,500,cs),
(431,414,o),
(369,381,o),
(278,381,cs),
(167,381,l)
);
}
);
width = 598;
}
);
metricLeft = H;
note = R;
unicode = 82;
},
{
color = 1;
glyphname = S;
kernLeft = S;
kernRight = S;
lastChange = "2021-11-14 09:56:48 +0000";
layers = (
{
anchors = (
{
name = bottom;
pos = (274,0);
},
{
name = top;
pos = (274,697);
}
);
layerId = "F91D9E91-C1BC-4259-B0D8-112C0CBA2B8E";
shapes = (
{
closed = 1;
nodes = (
(400,-6,o),
(487,73,o),
(487,183,cs),
(487,295,o),
(397,336,o),
(290,376,cs),
(188,414,o),
(112,447,o),
(112,538,cs),
(112,621,o),
(179,684,o),
(279,684,cs),
(355,684,o),
(407,648,o),
(442,588,c),
(458,599,l),
(420,666,o),
(359,703,o),
(279,703,cs),
(168,703,o),
(92,632,o),
(92,537,cs),
(92,435,o),
(179,397,o),
(274,361,cs),
(372,324,o),
(467,290,o),
(467,181,cs),
(467,84,o),
(389,13,o),
(285,13,cs),
(174,13,o),
(94,71,o),
(75,180,c),
(55,175,l),
(74,64,o),
(159,-6,o),
(285,-6,cs)
);
}
);
width = 548;
},
{
anchors = (
{
name = bottom;
pos = (291,0);
},
{
name = top;
pos = (291,697);
}
);
layerId = "957254E3-B7AD-4837-9092-D4428001DE8E";
shapes = (
{
closed = 1;
nodes = (
(453,-15,o),
(553,76,o),
(553,204,cs),
(553,313,o),
(488,373,o),
(355,423,cs),
(254,461,o),
(228,486,o),
(228,520,cs),
(228,553,o),
(258,576,o),
(294,576,cs),
(334,576,o),
(368,550,o),
(394,504,c),
(519,580,l),
(474,670,o),
(396,715,o),
(299,715,cs),
(162,715,o),
(71,633,o),
(71,517,cs),
(71,410,o),
(131,346,o),
(274,291,cs),
(363,257,o),
(397,234,o),
(397,194,cs),
(397,149,o),
(357,124,o),
(306,124,cs),
(236,124,o),
(188,163,o),
(174,243,c),
(21,205,l),
(42,72,o),
(146,-15,o),
(301,-15,cs)
);
}
);
width = 583;
},
{
anchors = (
{
name = bottom;
pos = (282,0);
},
{
name = top;
pos = (282,697);
}
);
layerId = m003;
shapes = (
{
closed = 1;
nodes = (
(425,-11,o),
(519,75,o),
(519,193,cs),
(519,303,o),
(442,354,o),
(321,400,cs),
(224,436,o),
(169,464,o),
(169,529,cs),
(169,588,o),
(217,631,o),
(286,631,cs),
(343,631,o),
(387,601,o),
(418,547,c),
(488,590,l),
(446,668,o),
(377,709,o),
(289,709,cs),
(164,709,o),
(81,632,o),
(81,527,cs),
(81,421,o),
(158,371,o),
(274,327,cs),
(367,291,o),
(432,262,o),
(432,188,cs),
(432,117,o),
(372,68,o),
(295,68,cs),
(205,68,o),
(139,117,o),
(124,211,c),
(38,190,l),
(58,68,o),
(152,-11,o),
(292,-11,cs)
);
}
);
width = 564;
}
);
note = S;
unicode = 83;
},
{
color = 1;
glyphname = Germandbls;
kernLeft = S;
kernRight = S;
lastChange = "2021-11-14 09:56:48 +0000";
layers = (
{
anchors = (
{
name = bottom;
pos = (350,0);
},
{
name = top;
pos = (350,697);
}
);
layerId = "F91D9E91-C1BC-4259-B0D8-112C0CBA2B8E";
shapes = (
{
closed = 1;
nodes = (
(117,0,l),
(117,678,l),
(609,678,l),
(609,697,l),
(97,697,l),
(97,0,l)
);
},
{
closed = 1;
nodes = (
(551,-6,o),
(639,74,o),
(639,183,cs),
(639,297,o),
(544,337,o),
(439,377,cs),
(347,412,o),
(264,444,o),
(264,539,cs),
(264,621,o),
(328,679,o),
(425,680,c),
(414,690,l),
(312,688,o),
(243,627,o),
(243,539,cs),
(243,435,o),
(330,398,o),
(426,361,cs),
(529,322,o),
(618,287,o),
(618,181,cs),
(618,84,o),
(540,13,o),
(427,13,cs),
(320,13,o),
(244,76,o),
(226,180,c),
(206,175,l),
(225,64,o),
(310,-6,o),
(427,-6,cs)
);
}
);
width = 700;
},
{
anchors = (
{
name = bottom;
pos = (413,0);
},
{
name = top;
pos = (413,697);
}
);
layerId = "957254E3-B7AD-4837-9092-D4428001DE8E";
shapes = (
{
closed = 1;
nodes = (
(216,0,l),
(216,557,l),
(760,557,l),
(760,697,l),
(59,697,l),
(59,0,l)
);
},
{
closed = 1;
nodes = (
(685,-15,o),
(795,78,o),
(795,206,cs),
(795,315,o),
(730,363,o),
(597,423,cs),
(499,467,o),
(470,486,o),
(470,540,cs),
(470,557,o),
(470,573,o),
(470,590,c),
(313,590,l),
(313,573,o),
(313,557,o),
(313,540,cs),
(313,410,o),
(369,358,o),
(516,295,cs),
(607,256,o),
(639,234,o),
(639,192,cs),
(639,149,o),
(597,124,o),
(546,124,cs),
(476,124,o),
(426,162,o),
(419,244,c),
(263,205,l),
(284,72,o),
(398,-15,o),
(543,-15,cs)
);
}
);
width = 825;
},
{
anchors = (
{
name = bottom;
pos = (382,0);
},
{
name = top;
pos = (382,697);
}
);
layerId = m003;
shapes = (
{
closed = 1;
nodes = (
(167,0,l),
(167,618,l),
(685,618,l),
(685,697,l),
(79,697,l),
(79,0,l)
);
},
{
closed = 1;
nodes = (
(617,-11,o),
(717,76,o),
(717,194,cs),
(717,309,o),
(632,352,o),
(518,400,cs),
(422,440,o),
(366,465,o),
(366,539,cs),
(366,589,o),
(399,627,o),
(448,636,c),
(365,641,l),
(313,631,o),
(279,592,o),
(279,539,cs),
(279,420,o),
(354,377,o),
(471,329,cs),
(569,289,o),
(629,261,o),
(629,187,cs),
(629,117,o),
(569,68,o),
(487,68,cs),
(397,68,o),
(335,119,o),
(322,212,c),
(235,190,l),
(254,72,o),
(351,-11,o),
(485,-11,cs)
);
}
);
width = 762;
}
);
metricLeft = "=I";
metricRight = S;
unicode = 7838;
},
{
color = 1;
glyphname = T;
kernLeft = T;
kernRight = T;
lastChange = "2021-11-14 09:56:48 +0000";
layers = (
{
anchors = (
{
name = bottom;
pos = (299,0);
},
{
name = center;
pos = (299,349);
},
{
name = top;
pos = (299,697);
}
);
layerId = "F91D9E91-C1BC-4259-B0D8-112C0CBA2B8E";
shapes = (
{
closed = 1;
nodes = (
(309,0,l),
(309,678,l),
(572,678,l),
(572,697,l),
(25,697,l),
(25,678,l),
(288,678,l),
(288,0,l)
);
}
);
width = 598;
},
{
anchors = (
{
name = bottom;
pos = (291,0);
},
{
name = center;
pos = (291,349);
},
{
name = top;
pos = (291,697);
}
);
layerId = "957254E3-B7AD-4837-9092-D4428001DE8E";
shapes = (
{
closed = 1;
nodes = (
(371,0,l),
(371,557,l),
(574,557,l),
(574,697,l),
(8,697,l),
(8,557,l),
(212,557,l),
(212,0,l)
);
}
);
width = 582;
},
{
anchors = (
{
name = bottom;
pos = (293,0);
},
{
name = center;
pos = (293,349);
},
{
name = top;
pos = (293,697);
}
);
layerId = m003;
shapes = (
{
closed = 1;
nodes = (
(338,0,l),
(338,618,l),
(571,618,l),
(571,697,l),
(15,697,l),
(15,618,l),
(249,618,l),
(249,0,l)
);
}
);
width = 587;
}
);
note = T;
unicode = 84;
},
{
color = 1;
glyphname = U;
kernLeft = U;
kernRight = J;
lastChange = "2021-11-14 09:56:48 +0000";
layers = (
{
anchors = (
{
name = bottom;
pos = (324,0);
},
{
name = ogonek;
pos = (380,0);
},
{
name = top;
pos = (324,697);
},
{
name = topright;
pos = (615,493);
}
);
layerId = "F91D9E91-C1BC-4259-B0D8-112C0CBA2B8E";
shapes = (
{
closed = 1;
nodes = (
(475,-6,o),
(560,88,o),
(560,257,cs),
(560,697,l),
(540,697,l),
(540,258,ls),
(540,101,o),
(464,14,o),
(323,14,cs),
(183,14,o),
(109,99,o),
(109,253,cs),
(109,697,l),
(89,697,l),
(89,252,ls),
(89,86,o),
(173,-6,o),
(323,-6,cs)
);
}
);
width = 649;
},
{
anchors = (
{
name = bottom;
pos = (330,0);
},
{
name = ogonek;
pos = (425,0);
},
{
name = top;
pos = (330,697);
},
{
name = topright;
pos = (678,493);
}
);
layerId = "957254E3-B7AD-4837-9092-D4428001DE8E";
shapes = (
{
closed = 1;
nodes = (
(511,-18,o),
(605,72,o),
(605,257,cs),
(605,697,l),
(448,697,l),
(448,268,ls),
(448,174,o),
(429,126,o),
(329,126,cs),
(228,126,o),
(210,173,o),
(210,270,cs),
(210,697,l),
(53,697,l),
(53,252,ls),
(53,70,o),
(146,-18,o),
(329,-18,cs)
);
}
);
width = 658;
},
{
anchors = (
{
name = bottom;
pos = (328,0);
},
{
name = ogonek;
pos = (403,0);
},
{
name = top;
pos = (328,697);
},
{
name = topright;
pos = (638,493);
}
);
layerId = m003;
shapes = (
{
closed = 1;
nodes = (
(494,-12,o),
(583,81,o),
(583,257,cs),
(583,697,l),
(496,697,l),
(496,263,ls),
(496,137,o),
(447,69,o),
(327,69,cs),
(206,69,o),
(160,136,o),
(160,262,cs),
(160,697,l),
(72,697,l),
(72,252,ls),
(72,79,o),
(161,-12,o),
(327,-12,cs)
);
}
);
width = 656;
}
);
note = U;
unicode = 85;
},
{
color = 1;
glyphname = V;
kernLeft = V;
kernRight = V;
lastChange = "2021-11-14 09:56:48 +0000";
layers = (
{
anchors = (
{
name = bottom;
pos = (319,0);
},
{
name = top;
pos = (319,697);
}
);
layerId = "F91D9E91-C1BC-4259-B0D8-112C0CBA2B8E";
shapes = (
{
closed = 1;
nodes = (
(331,0,l),
(604,697,l),
(582,697,l),
(319,23,l),
(319,23,l),
(56,697,l),
(34,697,l),
(308,0,l)
);
}
);
width = 638;
},
{
anchors = (
{
name = bottom;
pos = (342,0);
},
{
name = top;
pos = (342,697);
}
);
layerId = "957254E3-B7AD-4837-9092-D4428001DE8E";
shapes = (
{
closed = 1;
nodes = (
(399,0,l),
(679,697,l),
(505,697,l),
(317,193,l),
(368,193,l),
(176,697,l),
(3,697,l),
(284,0,l)
);
}
);
width = 682;
},
{
anchors = (
{
name = bottom;
pos = (329,0);
},
{
name = top;
pos = (329,697);
}
);
layerId = m003;
shapes = (
{
closed = 1;
nodes = (
(363,0,l),
(639,697,l),
(542,697,l),
(317,107,l),
(342,107,l),
(114,697,l),
(17,697,l),
(295,0,l)
);
}
);
width = 656;
}
);
note = V;
unicode = 86;
},
{
color = 1;
glyphname = W;
kernLeft = W;
kernRight = W;
lastChange = "2021-11-14 09:56:48 +0000";
layers = (
{
anchors = (
{
name = bottom;
pos = (463,0);
},
{
name = top;
pos = (463,697);
}
);
layerId = "F91D9E91-C1BC-4259-B0D8-112C0CBA2B8E";
shapes = (
{
closed = 1;
nodes = (
(261,0,l),
(465,638,l),
(461,638,l),
(664,0,l),
(690,0,l),
(884,697,l),
(863,697,l),
(677,26,l),
(474,662,l),
(451,662,l),
(249,26,l),
(63,697,l),
(41,697,l),
(235,0,l)
);
}
);
width = 925;
},
{
anchors = (
{
name = bottom;
pos = (497,0);
},
{
name = top;
pos = (497,697);
}
);
layerId = "957254E3-B7AD-4837-9092-D4428001DE8E";
shapes = (
{
closed = 1;
nodes = (
(371,0,l),
(510,468,l),
(484,468,l),
(623,0,l),
(774,0,l),
(987,697,l),
(823,697,l),
(689,242,l),
(574,655,l),
(420,655,l),
(305,242,l),
(171,697,l),
(7,697,l),
(220,0,l)
);
}
);
width = 994;
},
{
anchors = (
{
name = bottom;
pos = (479,0);
},
{
name = top;
pos = (479,697);
}
);
layerId = m003;
shapes = (
{
closed = 1;
nodes = (
(315,0,l),
(486,554,l),
(472,554,l),
(643,0,l),
(730,0,l),
(934,697,l),
(842,697,l),
(682,133,l),
(523,659,l),
(435,659,l),
(276,133,l),
(115,697,l),
(23,697,l),
(227,0,l)
);
}
);
width = 957;
}
);
note = W;
unicode = 87;
},
{
color = 1;
glyphname = X;
kernLeft = X;
kernRight = X;
lastChange = "2021-11-14 09:56:48 +0000";
layers = (
{
anchors = (
{
name = bottom;
pos = (302,0);
},
{
name = top;
pos = (302,697);
}
);
layerId = "F91D9E91-C1BC-4259-B0D8-112C0CBA2B8E";
shapes = (
{
closed = 1;
nodes = (
(61,0,l),
(301,337,l),
(542,0,l),
(567,0,l),
(315,354,l),
(559,697,l),
(535,697,l),
(301,370,l),
(69,697,l),
(44,697,l),
(288,354,l),
(37,0,l)
);
}
);
width = 603;
},
{
anchors = (
{
name = bottom;
pos = (345,0);
},
{
name = top;
pos = (345,697);
}
);
layerId = "957254E3-B7AD-4837-9092-D4428001DE8E";
shapes = (
{
closed = 1;
nodes = (
(197,0,l),
(344,233,l),
(493,0,l),
(681,0,l),
(453,346,l),
(681,697,l),
(494,697,l),
(345,455,l),
(196,697,l),
(8,697,l),
(236,346,l),
(9,0,l)
);
}
);
width = 689;
},
{
anchors = (
{
name = bottom;
pos = (321,0);
},
{
name = top;
pos = (321,697);
}
);
layerId = m003;
shapes = (
{
closed = 1;
nodes = (
(125,0,l),
(320,286,l),
(516,0,l),
(621,0,l),
(381,350,l),
(617,697,l),
(512,697,l),
(321,412,l),
(129,697,l),
(24,697,l),
(260,350,l),
(21,0,l)
);
}
);
width = 641;
}
);
note = X;
unicode = 88;
},
{
color = 1;
glyphname = Y;
kernLeft = Y;
kernRight = Y;
lastChange = "2021-11-14 09:56:48 +0000";
layers = (
{
anchors = (
{
name = bottom;
pos = (287,0);
},
{
name = top;
pos = (287,697);
},
{
name = topleft;
pos = (27,697);
}
);
layerId = "F91D9E91-C1BC-4259-B0D8-112C0CBA2B8E";
shapes = (
{
closed = 1;
nodes = (
(297,0,l),
(297,262,l),
(545,697,l),
(521,697,l),
(287,284,l),
(53,697,l),
(29,697,l),
(277,262,l),
(277,0,l)
);
}
);
width = 574;
},
{
anchors = (
{
name = bottom;
pos = (321,0);
},
{
name = top;
pos = (321,697);
},
{
name = topleft;
pos = (22,697);
}
);
layerId = "957254E3-B7AD-4837-9092-D4428001DE8E";
shapes = (
{
closed = 1;
nodes = (
(400,0,l),
(400,275,l),
(641,697,l),
(463,697,l),
(318,431,l),
(178,697,l),
(-2,697,l),
(243,275,l),
(243,0,l)
);
}
);
width = 640;
},
{
anchors = (
{
name = bottom;
pos = (302,0);
},
{
name = top;
pos = (302,697);
},
{
name = topleft;
pos = (22,697);
}
);
layerId = m003;
shapes = (
{
closed = 1;
nodes = (
(346,0,l),
(346,269,l),
(590,697,l),
(490,697,l),
(299,357,l),
(112,697,l),
(12,697,l),
(258,269,l),
(258,0,l)
);
}
);
width = 602;
}
);
note = Y;
unicode = 89;
},
{
color = 1;
glyphname = Z;
kernLeft = Z;
kernRight = Z;
lastChange = "2021-11-14 09:56:48 +0000";
layers = (
{
anchors = (
{
name = bottom;
pos = (273,0);
},
{
name = center;
pos = (273,349);
},
{
name = top;
pos = (273,697);
}
);
layerId = "F91D9E91-C1BC-4259-B0D8-112C0CBA2B8E";
shapes = (
{
closed = 1;
nodes = (
(505,0,l),
(505,19,l),
(58,19,l),
(59,19,l),
(495,674,l),
(495,697,l),
(63,697,l),
(63,678,l),
(478,678,l),
(476,681,l),
(39,24,l),
(39,0,l)
);
}
);
width = 543;
},
{
anchors = (
{
name = bottom;
pos = (314,0);
},
{
name = center;
pos = (314,349);
},
{
name = top;
pos = (314,697);
}
);
layerId = "957254E3-B7AD-4837-9092-D4428001DE8E";
shapes = (
{
closed = 1;
nodes = (
(595,0,l),
(595,140,l),
(176,140,l),
(198,108,l),
(581,569,l),
(581,697,l),
(48,697,l),
(48,557,l),
(446,557,l),
(422,607,l),
(25,127,l),
(25,0,l)
);
}
);
width = 621;
},
{
anchors = (
{
name = bottom;
pos = (293,0);
},
{
name = center;
pos = (293,349);
},
{
name = top;
pos = (293,697);
}
);
layerId = m003;
shapes = (
{
closed = 1;
nodes = (
(549,0,l),
(549,79,l),
(116,79,l),
(127,63,l),
(537,623,l),
(537,697,l),
(56,697,l),
(56,618,l),
(461,618,l),
(449,645,l),
(32,75,l),
(32,0,l)
);
}
);
width = 582;
}
);
note = Z;
unicode = 90;
},
{
color = 1;
glyphname = a;
kernLeft = a;
kernRight = a;
lastChange = "2021-11-14 10:03:16 +0000";
layers = (
{
anchors = (
{
name = bottom;
pos = (273,0);
},
{
name = ogonek;
pos = (448,0);
},
{
name = top;
pos = (273,493);
}
);
layerId = "F91D9E91-C1BC-4259-B0D8-112C0CBA2B8E";
shapes = (
{
closed = 1;
nodes = (
(448,0,l),
(448,304,ls),
(448,432,o),
(384,498,o),
(265,498,cs),
(186,498,o),
(132,470,o),
(83,404,c),
(98,392,l),
(143,454,o),
(194,480,o),
(265,480,cs),
(373,480,o),
(428,421,o),
(428,304,cs),
(428,139,l),
(428,0,l)
);
},
{
closed = 1;
nodes = (
(336,-5,o),
(437,72,o),
(439,199,c),
(428,217,l),
(428,100,o),
(340,12,o),
(234,12,cs),
(140,12,o),
(85,61,o),
(85,136,cs),
(85,178,o),
(101,208,o),
(128,228,cs),
(159,250,o),
(206,259,o),
(263,259,cs),
(432,259,l),
(432,276,l),
(261,276,ls),
(200,276,o),
(151,267,o),
(114,241,cs),
(84,220,o),
(65,185,o),
(65,136,cs),
(65,50,o),
(126,-5,o),
(232,-5,cs)
);
}
);
width = 532;
},
{
anchors = (
{
name = bottom;
pos = (276,0);
},
{
name = ogonek;
pos = (502,0);
},
{
name = top;
pos = (276,493);
}
);
background = {
shapes = (
{
closed = 1;
nodes = (
(171,504,o),
(122,486,o),
(44,434,c),
(108,328,l),
(146,357,o),
(200,375,o),
(248,375,cs),
(303,375,o),
(350,352,o),
(358,299,c),
(34,299,l),
(32,278,o),
(31,265,o),
(31,251,cs),
(31,99,o),
(112,-11,o),
(266,-11,cs),
(442,-11,o),
(509,126,o),
(509,249,cs),
(509,376,o),
(440,504,o),
(258,504,cs)
);
},
{
closed = 1;
nodes = (
(129,188,l),
(360,188,l),
(354,156,o),
(330,114,o),
(263,114,cs),
(216,114,o),
(174,143,o),
(174,193,cs),
(174,202,o),
(176,213,o),
(179,224,c)
);
}
);
};
layerId = "957254E3-B7AD-4837-9092-D4428001DE8E";
shapes = (
{
closed = 1;
nodes = (
(502,0,l),
(502,313,ls),
(502,430,o),
(418,504,o),
(278,504,cs),
(192,504,o),
(122,486,o),
(44,434,c),
(108,328,l),
(148,356,o),
(213,378,o),
(265,378,cs),
(314,378,o),
(352,360,o),
(352,313,cs),
(352,58,l),
(364,0,l)
);
},
{
closed = 1;
nodes = (
(280,-11,o),
(346,13,o),
(384,114,c),
(352,199,l),
(352,147,o),
(305,110,o),
(249,110,cs),
(210,110,o),
(185,128,o),
(185,156,cs),
(185,168,o),
(190,178,o),
(200,185,cs),
(209,191,o),
(222,194,o),
(238,194,cs),
(364,194,l),
(364,305,l),
(216,305,ls),
(172,305,o),
(133,297,o),
(102,280,cs),
(60,257,o),
(34,213,o),
(34,156,cs),
(34,55,o),
(119,-11,o),
(225,-11,cs)
);
}
);
width = 550;
},
{
anchors = (
{
name = bottom;
pos = (274,0);
},
{
name = ogonek;
pos = (474,0);
},
{
name = top;
pos = (274,493);
}
);
background = {
shapes = (
{
closed = 1;
nodes = (
(474,0,l),
(474,309,ls),
(474,431,o),
(400,501,o),
(271,501,cs),
(187,501,o),
(115,472,o),
(61,408,c),
(122,356,l),
(166,408,o),
(211,428,o),
(265,428,cs),
(347,428,o),
(390,385,o),
(390,309,cs),
(390,99,l),
(396,0,l)
);
},
{
closed = 1;
nodes = (
(334,-8,o),
(407,49,o),
(423,156,c),
(390,208,l),
(390,123,o),
(322,61,o),
(241,61,cs),
(175,61,o),
(134,94,o),
(134,146,cs),
(134,173,o),
(144,193,o),
(162,206,cs),
(186,223,o),
(220,227,o),
(250,227,cs),
(398,227,l),
(398,291,l),
(238,291,ls),
(189,291,o),
(143,283,o),
(108,261,cs),
(73,239,o),
(49,202,o),
(49,147,cs),
(49,54,o),
(120,-8,o),
(233,-8,cs)
);
}
);
};
layerId = m003;
shapes = (
{
closed = 1;
nodes = (
(474,0,l),
(474,309,ls),
(474,431,o),
(400,501,o),
(271,501,cs),
(187,501,o),
(115,472,o),
(61,408,c),
(122,356,l),
(166,408,o),
(211,428,o),
(265,428,cs),
(347,428,o),
(390,385,o),
(390,309,cs),
(390,99,l),
(396,0,l)
);
},
{
closed = 1;
nodes = (
(338,-8,o),
(412,65,o),
(425,172,c),
(390,208,l),
(390,123,o),
(322,61,o),
(241,61,cs),
(175,61,o),
(134,94,o),
(134,146,cs),
(134,173,o),
(144,193,o),
(162,206,cs),
(186,223,o),
(220,227,o),
(250,227,cs),
(398,227,l),
(398,291,l),
(238,291,ls),
(189,291,o),
(143,283,o),
(108,261,cs),
(73,239,o),
(49,202,o),
(49,147,cs),
(49,54,o),
(120,-8,o),
(233,-8,cs)
);
}
);
width = 540;
}
);
note = a;
unicode = 97;
},
{
color = 1;
glyphname = ae;
kernLeft = a;
kernRight = e;
lastChange = "2021-11-14 10:12:43 +0000";
layers = (
{
anchors = (
{
name = bottom;
pos = (450,0);
},
{
name = top;
pos = (450,493);
}
);
layerId = "F91D9E91-C1BC-4259-B0D8-112C0CBA2B8E";
shapes = (
{
closed = 1;
nodes = (
(332,-5,o),
(402,52,o),
(431,183,c),
(434,183,l),
(453,67,o),
(529,-5,o),
(638,-5,cs),
(716,-5,o),
(763,14,o),
(820,71,c),
(805,85,l),
(752,30,o),
(708,14,o),
(639,14,cs),
(526,14,o),
(448,94,o),
(447,247,c),
(829,247,l),
(831,256,o),
(832,270,o),
(832,288,cs),
(832,378,o),
(782,498,o),
(632,498,cs),
(539,498,o),
(470,435,o),
(443,337,c),
(434,442,o),
(372,498,o),
(266,498,cs),
(188,498,o),
(133,472,o),
(83,404,c),
(99,392,l),
(144,455,o),
(193,480,o),
(265,480,cs),
(372,480,o),
(428,420,o),
(428,304,cs),
(428,264,l),
(283,264,ls),
(150,264,o),
(65,235,o),
(65,135,cs),
(65,49,o),
(128,-5,o),
(228,-5,cs)
);
},
{
closed = 1;
nodes = (
(140,13,o),
(85,60,o),
(85,135,cs),
(85,217,o),
(148,248,o),
(284,248,cs),
(428,248,l),
(428,240,l),
(409,69,o),
(322,13,o),
(229,13,cs)
);
},
{
closed = 1;
nodes = (
(452,391,o),
(526,480,o),
(632,480,cs),
(763,480,o),
(820,378,o),
(811,264,c),
(447,264,l)
);
}
);
width = 897;
},
{
anchors = (
{
name = bottom;
pos = (426,0);
},
{
name = top;
pos = (426,493);
}
);
layerId = "957254E3-B7AD-4837-9092-D4428001DE8E";
shapes = (
{
closed = 1;
nodes = (
(288,-11,o),
(347,5,o),
(403,59,c),
(417,59,l),
(451,17,o),
(506,-11,o),
(591,-11,cs),
(678,-11,o),
(727,7,o),
(805,59,c),
(741,165,l),
(703,136,o),
(649,118,o),
(601,118,cs),
(546,118,o),
(499,141,o),
(491,194,c),
(815,194,l),
(817,215,o),
(818,228,o),
(818,242,cs),
(818,394,o),
(737,504,o),
(583,504,cs),
(526,504,o),
(482,489,o),
(443,458,c),
(414,490,o),
(359,504,o),
(289,504,cs),
(194,504,o),
(116,478,o),
(46,411,c),
(155,320,l),
(193,363,o),
(241,373,o),
(273,373,cs),
(323,373,o),
(355,350,o),
(355,313,cs),
(355,299,l),
(264,299,ls),
(225,299,o),
(34,304,o),
(34,154,cs),
(34,60,o),
(100,-11,o),
(226,-11,cs)
);
},
{
closed = 1;
nodes = (
(207,117,o),
(189,132,o),
(189,151,cs),
(189,167,o),
(203,191,o),
(263,191,cs),
(355,191,l),
(355,186,l),
(343,141,o),
(303,117,o),
(245,117,cs)
);
},
{
closed = 1;
nodes = (
(495,337,o),
(519,379,o),
(586,379,cs),
(631,379,o),
(672,352,o),
(675,305,c),
(489,305,l)
);
}
);
width = 851;
},
{
anchors = (
{
name = bottom;
pos = (436,0);
},
{
name = top;
pos = (436,493);
}
);
layerId = m003;
shapes = (
{
closed = 1;
nodes = (
(313,-8,o),
(372,32,o),
(411,122,c),
(421,122,l),
(449,40,o),
(514,-8,o),
(606,-8,cs),
(688,-8,o),
(743,10,o),
(804,76,c),
(744,128,l),
(706,87,o),
(667,70,o),
(608,70,cs),
(520,70,o),
(474,127,o),
(470,221,c),
(815,221,l),
(817,234,o),
(818,255,o),
(818,272,cs),
(818,390,o),
(762,498,o),
(606,498,cs),
(533,498,o),
(478,460,o),
(445,401,c),
(423,466,o),
(365,501,o),
(277,501,cs),
(193,501,o),
(126,477,o),
(64,408,c),
(126,356,l),
(166,409,o),
(215,428,o),
(268,428,cs),
(347,428,o),
(391,385,o),
(391,309,cs),
(391,287,l),
(272,287,ls),
(219,287,o),
(49,287,o),
(49,145,cs),
(49,55,o),
(113,-8,o),
(226,-8,cs)
);
},
{
closed = 1;
nodes = (
(172,65,o),
(135,96,o),
(135,143,cs),
(135,193,o),
(175,226,o),
(278,226,cs),
(391,226,l),
(391,218,l),
(382,114,o),
(318,65,o),
(236,65,cs)
);
},
{
closed = 1;
nodes = (
(471,359,o),
(516,428,o),
(606,428,cs),
(714,428,o),
(742,318,o),
(740,283,c),
(469,283,l)
);
}
);
width = 867;
}
);
metricLeft = "=a";
metricRight = "=e";
note = ae;
unicode = 230;
},
{
color = 1;
glyphname = b;
kernLeft = b;
kernRight = b;
lastChange = "2021-11-14 09:56:48 +0000";
layers = (
{
anchors = (
{
name = bottom;
pos = (294,0);
},
{
name = center;
pos = (135,608);
},
{
name = top;
pos = (98,697);
},
{
name = topleft;
pos = (-20,493);
}
);
layerId = "F91D9E91-C1BC-4259-B0D8-112C0CBA2B8E";
shapes = (
{
closed = 1;
nodes = (
(442,-5,o),
(539,104,o),
(539,247,cs),
(539,391,o),
(441,498,o),
(314,498,cs),
(212,498,o),
(130,430,o),
(104,327,c),
(108,324,l),
(108,697,l),
(88,697,l),
(88,0,l),
(108,0,l),
(108,170,l),
(103,167,l),
(129,65,o),
(211,-5,o),
(314,-5,cs)
);
},
{
closed = 1;
nodes = (
(194,14,o),
(107,114,o),
(107,247,cs),
(107,380,o),
(194,479,o),
(312,479,cs),
(430,479,o),
(519,380,o),
(519,247,cs),
(519,114,o),
(430,14,o),
(312,14,cs)
);
}
);
width = 605;
},
{
anchors = (
{
name = bottom;
pos = (275,0);
},
{
name = center;
pos = (154,589);
},
{
name = top;
pos = (129,697);
},
{
name = topleft;
pos = (-83,493);
}
);
layerId = "957254E3-B7AD-4837-9092-D4428001DE8E";
shapes = (
{
closed = 1;
nodes = (
(462,-11,o),
(535,99,o),
(535,247,cs),
(535,412,o),
(445,504,o),
(334,504,cs),
(265,504,o),
(193,464,o),
(177,347,c),
(204,369,l),
(204,697,l),
(54,697,l),
(54,0,l),
(204,0,l),
(204,122,l),
(173,152,l),
(198,13,o),
(274,-11,o),
(334,-11,cs)
);
},
{
closed = 1;
nodes = (
(226,127,o),
(190,172,o),
(190,247,cs),
(190,321,o),
(226,366,o),
(287,366,cs),
(348,366,o),
(384,322,o),
(384,247,cs),
(384,171,o),
(348,127,o),
(287,127,cs)
);
}
);
width = 566;
},
{
anchors = (
{
name = bottom;
pos = (293,0);
},
{
name = center;
pos = (149,608);
},
{
name = top;
pos = (114,697);
},
{
name = topleft;
pos = (-50,493);
}
);
background = {
shapes = (
{
closed = 1;
nodes = (
(448,-8,o),
(538,102,o),
(538,247,cs),
(538,402,o),
(438,501,o),
(314,501,cs),
(220,501,o),
(153,446,o),
(132,369,c),
(156,346,l),
(156,697,l),
(72,697,l),
(72,0,l),
(156,0,l),
(156,147,l),
(129,128,l),
(155,42,o),
(220,-8,o),
(314,-8,cs)
);
},
{
closed = 1;
nodes = (
(211,70,o),
(149,143,o),
(149,247,cs),
(149,351,o),
(211,424,o),
(300,424,cs),
(390,424,o),
(453,351,o),
(453,247,cs),
(453,143,o),
(390,70,o),
(300,70,cs)
);
}
);
};
layerId = m003;
shapes = (
{
closed = 1;
nodes = (
(448,-8,o),
(538,102,o),
(538,247,cs),
(538,402,o),
(438,501,o),
(314,501,cs),
(220,501,o),
(153,437,o),
(132,360,c),
(156,346,l),
(156,697,l),
(72,697,l),
(72,0,l),
(156,0,l),
(156,147,l),
(128,138,l),
(153,52,o),
(220,-8,o),
(314,-8,cs)
);
},
{
closed = 1;
nodes = (
(211,70,o),
(149,143,o),
(149,247,cs),
(149,351,o),
(211,424,o),
(300,424,cs),
(390,424,o),
(453,351,o),
(453,247,cs),
(453,143,o),
(390,70,o),
(300,70,cs)
);
}
);
width = 587;
}
);
metricLeft = n;
metricRight = o;
note = b;
unicode = 98;
},
{
color = 1;
glyphname = c;
kernLeft = c;
kernRight = c;
lastChange = "2021-11-14 09:58:28 +0000";
layers = (
{
anchors = (
{
name = bottom;
pos = (285,0);
},
{
name = top;
pos = (274,493);
}
);
layerId = "F91D9E91-C1BC-4259-B0D8-112C0CBA2B8E";
shapes = (
{
closed = 1;
nodes = (
(360,-5,o),
(425,40,o),
(455,121,c),
(435,129,l),
(409,52,o),
(349,13,o),
(274,13,cs),
(148,13,o),
(86,122,o),
(86,247,cs),
(86,371,o),
(148,480,o),
(274,480,cs),
(349,480,o),
(409,441,o),
(435,364,c),
(455,372,l),
(424,456,o),
(357,498,o),
(274,498,cs),
(149,498,o),
(66,394,o),
(66,247,cs),
(66,99,o),
(149,-5,o),
(274,-5,cs)
);
}
);
width = 512;
},
{
anchors = (
{
name = bottom;
pos = (289,0);
},
{
name = top;
pos = (261,493);
}
);
layerId = "957254E3-B7AD-4837-9092-D4428001DE8E";
shapes = (
{
closed = 1;
nodes = (
(383,-11,o),
(462,38,o),
(499,139,c),
(368,191,l),
(354,150,o),
(329,120,o),
(279,120,cs),
(209,120,o),
(182,184,o),
(182,247,cs),
(182,309,o),
(209,373,o),
(279,373,cs),
(329,373,o),
(354,343,o),
(368,302,c),
(499,354,l),
(462,455,o),
(383,504,o),
(279,504,cs),
(111,504,o),
(31,375,o),
(31,247,cs),
(31,118,o),
(111,-11,o),
(279,-11,cs)
);
}
);
width = 525;
},
{
anchors = (
{
name = bottom;
pos = (287,0);
},
{
name = top;
pos = (268,493);
}
);
layerId = m003;
shapes = (
{
closed = 1;
nodes = (
(370,-8,o),
(443,38,o),
(477,131,c),
(402,160,l),
(383,103,o),
(342,66,o),
(277,66,cs),
(178,66,o),
(133,153,o),
(133,247,cs),
(133,340,o),
(178,428,o),
(277,428,cs),
(342,428,o),
(383,390,o),
(402,334,c),
(477,363,l),
(443,456,o),
(370,501,o),
(277,501,cs),
(130,501,o),
(49,384,o),
(49,247,cs),
(49,109,o),
(130,-8,o),
(277,-8,cs)
);
}
);
width = 518;
}
);
metricLeft = o;
note = c;
unicode = 99;
},
{
color = 1;
glyphname = d;
kernLeft = c;
kernRight = d;
lastChange = "2021-11-14 09:56:48 +0000";
layers = (
{
anchors = (
{
name = bottom;
pos = (311,0);
},
{
name = center;
pos = (471,608);
},
{
name = top;
pos = (507,697);
},
{
name = topright;
pos = (625,493);
}
);
layerId = "F91D9E91-C1BC-4259-B0D8-112C0CBA2B8E";
shapes = (
{
closed = 1;
nodes = (
(396,-5,o),
(476,65,o),
(502,167,c),
(497,170,l),
(497,0,l),
(517,0,l),
(517,697,l),
(497,697,l),
(497,324,l),
(501,327,l),
(476,428,o),
(395,498,o),
(292,498,cs),
(164,498,o),
(66,391,o),
(66,247,cs),
(66,104,o),
(163,-5,o),
(292,-5,cs)
);
},
{
closed = 1;
nodes = (
(175,14,o),
(86,115,o),
(86,247,cs),
(86,379,o),
(175,479,o),
(294,479,cs),
(411,479,o),
(498,380,o),
(498,247,cs),
(498,114,o),
(411,14,o),
(294,14,cs)
);
}
);
width = 607;
},
{
anchors = (
{
name = bottom;
pos = (291,0);
},
{
name = center;
pos = (412,589);
},
{
name = top;
pos = (437,697);
},
{
name = topright;
pos = (649,493);
}
);
layerId = "957254E3-B7AD-4837-9092-D4428001DE8E";
shapes = (
{
closed = 1;
nodes = (
(292,-11,o),
(368,13,o),
(393,152,c),
(362,122,l),
(362,0,l),
(512,0,l),
(512,697,l),
(362,697,l),
(362,369,l),
(389,347,l),
(373,464,o),
(301,504,o),
(232,504,cs),
(121,504,o),
(31,412,o),
(31,247,cs),
(31,99,o),
(104,-11,o),
(232,-11,cs)
);
},
{
closed = 1;
nodes = (
(218,127,o),
(182,171,o),
(182,247,cs),
(182,322,o),
(218,366,o),
(279,366,cs),
(340,366,o),
(376,321,o),
(376,247,cs),
(376,172,o),
(340,127,o),
(279,127,cs)
);
}
);
width = 566;
},
{
anchors = (
{
name = bottom;
pos = (294,0);
},
{
name = center;
pos = (438,608);
},
{
name = top;
pos = (473,697);
},
{
name = topright;
pos = (637,493);
}
);
background = {
shapes = (
{
closed = 1;
nodes = (
(367,-8,o),
(432,42,o),
(458,128,c),
(431,147,l),
(431,0,l),
(515,0,l),
(515,697,l),
(431,697,l),
(431,346,l),
(455,369,l),
(434,446,o),
(367,501,o),
(273,501,cs),
(149,501,o),
(49,402,o),
(49,247,cs),
(49,102,o),
(139,-8,o),
(273,-8,cs)
);
},
{
closed = 1;
nodes = (
(197,70,o),
(134,143,o),
(134,247,cs),
(134,351,o),
(197,424,o),
(287,424,cs),
(376,424,o),
(438,351,o),
(438,247,cs),
(438,143,o),
(376,70,o),
(287,70,cs)
);
}
);
};
layerId = m003;
shapes = (
{
closed = 1;
nodes = (
(367,-8,o),
(433,52,o),
(459,138,c),
(431,147,l),
(431,0,l),
(515,0,l),
(515,697,l),
(431,697,l),
(431,346,l),
(455,362,l),
(434,439,o),
(367,501,o),
(273,501,cs),
(149,501,o),
(49,402,o),
(49,247,cs),
(49,102,o),
(139,-8,o),
(273,-8,cs)
);
},
{
closed = 1;
nodes = (
(197,70,o),
(134,143,o),
(134,247,cs),
(134,351,o),
(197,424,o),
(287,424,cs),
(376,424,o),
(438,351,o),
(438,247,cs),
(438,143,o),
(376,70,o),
(287,70,cs)
);
}
);
width = 587;
}
);
metricLeft = o;
note = d;
unicode = 100;
},
{
color = 1;
glyphname = eth;
kernLeft = c;
kernRight = d;
lastChange = "2021-11-14 09:56:48 +0000";
layers = (
{
layerId = "F91D9E91-C1BC-4259-B0D8-112C0CBA2B8E";
shapes = (
{
closed = 1;
nodes = (
(482,-5,o),
(565,176,o),
(565,361,cs),
(565,588,o),
(489,703,o),
(177,709,c),
(176,693,l),
(461,688,o),
(569,589,o),
(543,300,c),
(537,397,o),
(485,508,o),
(358,508,cs),
(195,508,o),
(81,387,o),
(81,211,cs),
(81,82,o),
(163,-5,o),
(285,-5,cs)
);
},
{
closed = 1;
nodes = (
(175,13,o),
(100,92,o),
(100,211,cs),
(100,375,o),
(203,490,o),
(359,490,cs),
(507,490,o),
(549,329,o),
(531,237,cs),
(504,99,o),
(416,13,o),
(285,13,cs)
);
},
{
closed = 1;
nodes = (
(615,667,l),
(611,679,l),
(308,572,l),
(312,560,l)
);
}
);
width = 651;
},
{
layerId = "957254E3-B7AD-4837-9092-D4428001DE8E";
shapes = (
{
closed = 1;
nodes = (
(453,-11,o),
(569,127,o),
(569,375,cs),
(569,582,o),
(488,716,o),
(248,738,c),
(236,638,l),
(385,632,o),
(443,527,o),
(443,426,c),
(412,473,o),
(351,487,o),
(301,487,cs),
(164,487,o),
(35,379,o),
(35,218,cs),
(35,87,o),
(121,-11,o),
(273,-11,cs)
);
},
{
closed = 1;
nodes = (
(226,118,o),
(176,150,o),
(176,220,cs),
(176,278,o),
(211,364,o),
(317,364,cs),
(383,364,o),
(420,330,o),
(425,282,cs),
(433,206,o),
(374,118,o),
(282,118,cs)
);
},
{
closed = 1;
nodes = (
(573,607,l),
(559,667,l),
(194,581,l),
(209,521,l)
);
}
);
width = 591;
},
{
layerId = m003;
shapes = (
{
closed = 1;
nodes = (
(474,-8,o),
(573,153,o),
(573,368,cs),
(573,584,o),
(495,710,o),
(217,724,c),
(211,666,l),
(429,661,o),
(512,559,o),
(499,362,c),
(481,435,o),
(425,498,o),
(336,498,cs),
(185,498,o),
(64,383,o),
(64,215,cs),
(64,85,o),
(148,-8,o),
(285,-8,cs)
);
},
{
closed = 1;
nodes = (
(207,65,o),
(144,121,o),
(144,216,cs),
(144,327,o),
(213,428,o),
(344,428,cs),
(453,428,o),
(491,329,o),
(485,259,cs),
(475,151,o),
(400,65,o),
(290,65,cs)
);
},
{
closed = 1;
nodes = (
(600,638,l),
(591,674,l),
(258,577,l),
(267,541,l)
);
}
);
width = 619;
}
);
note = eth;
unicode = 240;
},
{
color = 1;
glyphname = e;
kernLeft = c;
kernRight = e;
lastChange = "2021-11-14 10:02:16 +0000";
layers = (
{
anchors = (
{
name = bottom;
pos = (279,0);
},
{
name = ogonek;
pos = (333,0);
},
{
name = top;
pos = (271,493);
}
);
layerId = "F91D9E91-C1BC-4259-B0D8-112C0CBA2B8E";
shapes = (
{
closed = 1;
nodes = (
(353,-5,o),
(401,13,o),
(460,71,c),
(444,85,l),
(393,32,o),
(351,14,o),
(279,14,cs),
(162,14,o),
(86,99,o),
(86,247,c),
(470,247,l),
(471,254,o),
(472,268,o),
(472,288,cs),
(472,377,o),
(420,498,o),
(271,498,cs),
(147,498,o),
(66,392,o),
(66,243,cs),
(66,95,o),
(148,-5,o),
(279,-5,cs)
);
},
{
closed = 1;
nodes = (
(459,263,l),
(86,263,l),
(93,390,o),
(165,480,o),
(271,480,cs),
(407,480,o),
(453,372,o),
(453,292,cs),
(453,282,o),
(453,270,o),
(452,258,c)
);
}
);
width = 537;
},
{
anchors = (
{
name = bottom;
pos = (282,0);
},
{
name = ogonek;
pos = (364,0);
},
{
name = top;
pos = (275,493);
}
);
background = {
shapes = (
{
closed = 1;
nodes = (
(369,-11,o),
(439,22,o),
(491,81,c),
(387,173,l),
(359,139,o),
(320,125,o),
(283,125,cs),
(218,125,o),
(188,155,o),
(182,194,c),
(506,194,l),
(508,215,o),
(509,228,o),
(509,242,cs),
(509,394,o),
(428,504,o),
(274,504,cs),
(98,504,o),
(31,367,o),
(31,244,cs),
(31,117,o),
(100,-11,o),
(282,-11,cs)
);
},
{
closed = 1;
nodes = (
(411,305,l),
(180,305,l),
(186,337,o),
(210,379,o),
(277,379,cs),
(324,379,o),
(366,350,o),
(366,300,cs),
(366,291,o),
(364,280,o),
(361,269,c)
);
}
);
};
layerId = "957254E3-B7AD-4837-9092-D4428001DE8E";
shapes = (
{
closed = 1;
nodes = (
(369,-11,o),
(418,7,o),
(496,59,c),
(432,165,l),
(394,136,o),
(340,118,o),
(292,118,cs),
(237,118,o),
(190,141,o),
(182,194,c),
(506,194,l),
(508,215,o),
(509,228,o),
(509,242,cs),
(509,394,o),
(428,504,o),
(274,504,cs),
(98,504,o),
(31,367,o),
(31,244,cs),
(31,117,o),
(100,-11,o),
(282,-11,cs)
);
},
{
closed = 1;
nodes = (
(411,305,l),
(180,305,l),
(186,337,o),
(210,379,o),
(277,379,cs),
(324,379,o),
(366,350,o),
(366,300,cs),
(366,291,o),
(364,280,o),
(361,269,c)
);
}
);
width = 542;
},
{
anchors = (
{
name = bottom;
pos = (280,0);
},
{
name = ogonek;
pos = (347,0);
},
{
name = top;
pos = (273,493);
}
);
layerId = m003;
shapes = (
{
closed = 1;
nodes = (
(361,-8,o),
(420,18,o),
(475,76,c),
(416,128,l),
(378,87,o),
(338,69,o),
(281,69,cs),
(191,69,o),
(137,125,o),
(133,221,c),
(488,221,l),
(490,235,o),
(491,259,o),
(491,265,cs),
(491,385,o),
(424,501,o),
(272,501,cs),
(123,501,o),
(49,380,o),
(49,243,cs),
(49,106,o),
(125,-8,o),
(280,-8,cs)
);
},
{
closed = 1;
nodes = (
(435,284,l),
(132,284,l),
(138,364,o),
(187,430,o),
(274,430,cs),
(366,430,o),
(410,361,o),
(410,296,cs),
(410,285,o),
(409,274,o),
(407,264,c)
);
}
);
width = 540;
}
);
metricLeft = o;
note = e;
unicode = 101;
},
{
color = 1;
glyphname = f;
kernLeft = f;
kernRight = f;
lastChange = "2022-02-25 20:12:44 +0000";
layers = (
{
anchors = (
{
name = bottom;
pos = (167,0);
},
{
name = top;
pos = (194,697);
}
);
layerId = "F91D9E91-C1BC-4259-B0D8-112C0CBA2B8E";
shapes = (
{
closed = 1;
nodes = (
(177,0,l),
(177,476,l),
(307,476,l),
(307,493,l),
(177,493,l),
(177,577,ls),
(177,649,o),
(211,684,o),
(271,684,cs),
(297,684,o),
(316,679,o),
(335,670,c),
(342,685,l),
(321,697,o),
(297,702,o),
(270,702,cs),
(200,702,o),
(157,663,o),
(157,577,cs),
(157,493,l),
(34,493,l),
(34,476,l),
(157,476,l),
(157,0,l)
);
}
);
width = 341;
},
{
anchors = (
{
name = bottom;
pos = (176,0);
},
{
name = top;
pos = (174,697);
}
);
layerId = "957254E3-B7AD-4837-9092-D4428001DE8E";
shapes = (
{
closed = 1;
nodes = (
(252,0,l),
(252,376,l),
(350,376,l),
(350,493,l),
(252,493,l),
(252,536,ls),
(252,562,o),
(258,583,o),
(283,583,cs),
(296,583,o),
(309,577,o),
(321,571,c),
(369,686,l),
(339,699,o),
(310,708,o),
(266,708,cs),
(179,708,o),
(102,674,o),
(102,537,cs),
(102,493,l),
(20,493,l),
(20,376,l),
(101,376,l),
(101,0,l)
);
}
);
width = 367;
},
{
anchors = (
{
name = bottom;
pos = (167,0);
},
{
name = top;
pos = (180,697);
}
);
layerId = m003;
shapes = (
{
closed = 1;
nodes = (
(210,0,l),
(210,427,l),
(325,427,l),
(325,493,l),
(210,493,l),
(210,557,ls),
(210,606,o),
(230,634,o),
(273,634,cs),
(291,634,o),
(309,629,o),
(324,621,c),
(352,685,l),
(327,698,o),
(300,705,o),
(264,705,cs),
(186,705,o),
(126,669,o),
(126,557,cs),
(126,493,l),
(23,493,l),
(23,427,l),
(125,427,l),
(125,0,l)
);
}
);
width = 348;
}
);
note = f;
unicode = 102;
},
{
color = 1;
glyphname = g;
kernLeft = g;
kernRight = g;
lastChange = "2021-11-14 09:56:48 +0000";
layers = (
{
anchors = (
{
name = bottom;
pos = (278,-210);
},
{
name = top;
pos = (255,493);
}
);
layerId = "F91D9E91-C1BC-4259-B0D8-112C0CBA2B8E";
shapes = (
{
closed = 1;
nodes = (
(381,-210,o),
(457,-166,o),
(457,-83,cs),
(457,16,o),
(340,28,o),
(230,46,cs),
(152,59,o),
(90,74,o),
(90,138,cs),
(90,172,o),
(109,198,o),
(153,216,c),
(143,230,l),
(94,207,o),
(70,178,o),
(70,136,cs),
(70,62,o),
(142,41,o),
(230,27,cs),
(333,10,o),
(438,0,o),
(438,-85,cs),
(438,-157,o),
(367,-193,o),
(271,-193,cs),
(147,-193,o),
(72,-147,o),
(72,-64,cs),
(72,-58,o),
(72,-52,o),
(73,-46,c),
(164,47,l),
(150,53,l),
(53,-40,l),
(52,-48,o),
(52,-58,o),
(52,-63,cs),
(52,-157,o),
(135,-210,o),
(271,-210,cs)
);
},
{
closed = 1;
nodes = (
(352,180,o),
(421,243,o),
(421,336,cs),
(421,432,o),
(351,498,o),
(254,498,cs),
(155,498,o),
(83,431,o),
(83,337,cs),
(83,244,o),
(154,180,o),
(254,180,cs)
);
},
{
closed = 1;
nodes = (
(164,198,o),
(103,256,o),
(103,338,cs),
(103,421,o),
(166,481,o),
(254,481,cs),
(341,481,o),
(402,422,o),
(402,337,cs),
(402,255,o),
(341,198,o),
(253,198,cs)
);
},
{
closed = 1;
nodes = (
(475,498,l),
(465,512,l),
(378,432,l),
(392,421,l)
);
}
);
width = 494;
},
{
anchors = (
{
name = bottom;
pos = (268,-215);
},
{
name = top;
pos = (260,493);
}
);
background = {
shapes = (
{
closed = 1;
nodes = (
(420,-215,o),
(502,-160,o),
(502,-59,cs),
(502,51,o),
(406,67,o),
(262,84,cs),
(201,91,o),
(162,97,o),
(162,126,cs),
(162,147,o),
(181,165,o),
(207,168,c),
(135,240,l),
(77,208,o),
(40,168,o),
(40,102,cs),
(40,-9,o),
(144,-32,o),
(236,-42,cs),
(333,-53,o),
(352,-59,o),
(352,-79,cs),
(352,-101,o),
(326,-116,o),
(268,-116,cs),
(195,-116,o),
(152,-98,o),
(152,-73,cs),
(152,-71,o),
(152,-69,o),
(153,-66,c),
(211,5,l),
(179,49,l),
(30,-35,l),
(27,-47,o),
(26,-59,o),
(26,-68,cs),
(26,-159,o),
(117,-215,o),
(268,-215,cs)
);
},
{
closed = 1;
nodes = (
(383,127,o),
(467,199,o),
(467,309,cs),
(467,429,o),
(366,504,o),
(254,504,cs),
(141,504,o),
(43,429,o),
(43,314,cs),
(43,206,o),
(129,127,o),
(259,127,cs)
);
},
{
closed = 1;
nodes = (
(211,245,o),
(194,277,o),
(194,314,cs),
(194,352,o),
(216,379,o),
(256,379,cs),
(295,379,o),
(317,353,o),
(317,314,cs),
(317,277,o),
(300,245,o),
(256,245,cs)
);
},
{
closed = 1;
nodes = (
(522,452,l),
(445,545,l),
(324,450,l),
(433,381,l)
);
}
);
};
layerId = "957254E3-B7AD-4837-9092-D4428001DE8E";
shapes = (
{
closed = 1;
nodes = (
(420,-215,o),
(502,-160,o),
(502,-59,cs),
(502,51,o),
(406,67,o),
(261,84,cs),
(199,91,o),
(159,97,o),
(159,126,cs),
(159,147,o),
(179,165,o),
(207,168,c),
(144,225,l),
(81,196,o),
(40,147,o),
(40,91,cs),
(40,-1,o),
(144,-32,o),
(236,-42,cs),
(333,-53,o),
(352,-59,o),
(352,-79,cs),
(352,-101,o),
(326,-116,o),
(268,-116,cs),
(195,-116,o),
(152,-98,o),
(152,-73,cs),
(152,-71,o),
(152,-69,o),
(153,-66,c),
(211,5,l),
(179,49,l),
(30,-35,l),
(27,-47,o),
(26,-59,o),
(26,-68,cs),
(26,-159,o),
(117,-215,o),
(268,-215,cs)
);
},
{
closed = 1;
nodes = (
(383,127,o),
(467,199,o),
(467,309,cs),
(467,429,o),
(366,504,o),
(254,504,cs),
(141,504,o),
(43,429,o),
(43,314,cs),
(43,206,o),
(129,127,o),
(259,127,cs)
);
},
{
closed = 1;
nodes = (
(211,245,o),
(194,277,o),
(194,314,cs),
(194,352,o),
(216,379,o),
(256,379,cs),
(295,379,o),
(317,353,o),
(317,314,cs),
(317,277,o),
(300,245,o),
(256,245,cs)
);
},
{
closed = 1;
nodes = (
(522,452,l),
(445,545,l),
(324,450,l),
(433,381,l)
);
}
);
width = 528;
},
{
anchors = (
{
name = bottom;
pos = (275,-213);
},
{
name = top;
pos = (260,493);
}
);
background = {
shapes = (
{
closed = 1;
nodes = (
(402,-213,o),
(481,-163,o),
(481,-72,cs),
(481,32,o),
(376,50,o),
(248,68,cs),
(176,78,o),
(134,90,o),
(134,133,cs),
(134,160,o),
(151,182,o),
(196,193,c),
(141,236,l),
(88,208,o),
(53,174,o),
(53,120,cs),
(53,26,o),
(147,5,o),
(237,-8,cs),
(333,-21,o),
(398,-29,o),
(398,-82,cs),
(398,-129,o),
(344,-148,o),
(271,-148,cs),
(188,-148,o),
(125,-123,o),
(125,-69,cs),
(125,-65,o),
(125,-61,o),
(126,-56,c),
(196,31,l),
(167,51,l),
(44,-38,l),
(41,-48,o),
(41,-59,o),
(41,-66,cs),
(41,-158,o),
(129,-213,o),
(271,-213,cs)
);
},
{
closed = 1;
nodes = (
(369,154,o),
(446,221,o),
(446,323,cs),
(446,431,o),
(360,501,o),
(256,501,cs),
(150,501,o),
(65,430,o),
(65,326,cs),
(65,226,o),
(144,154,o),
(259,154,cs)
);
},
{
closed = 1;
nodes = (
(190,223,o),
(149,269,o),
(149,329,cs),
(149,389,o),
(193,433,o),
(257,433,cs),
(320,433,o),
(362,390,o),
(362,328,cs),
(362,269,o),
(323,223,o),
(257,223,cs)
);
},
{
closed = 1;
nodes = (
(500,475,l),
(457,528,l),
(353,442,l),
(414,401,l)
);
}
);
};
layerId = m003;
shapes = (
{
closed = 1;
nodes = (
(402,-213,o),
(481,-163,o),
(481,-72,cs),
(481,32,o),
(376,50,o),
(248,68,cs),
(176,78,o),
(134,90,o),
(134,129,cs),
(134,160,o),
(151,182,o),
(196,193,c),
(142,228,l),
(88,202,o),
(53,162,o),
(53,116,cs),
(53,33,o),
(147,5,o),
(238,-8,cs),
(333,-21,o),
(398,-29,o),
(398,-82,cs),
(398,-129,o),
(344,-148,o),
(271,-148,cs),
(188,-148,o),
(125,-123,o),
(125,-69,cs),
(125,-65,o),
(125,-61,o),
(126,-56,c),
(196,31,l),
(167,51,l),
(44,-38,l),
(41,-48,o),
(41,-59,o),
(41,-66,cs),
(41,-158,o),
(129,-213,o),
(271,-213,cs)
);
},
{
closed = 1;
nodes = (
(369,154,o),
(446,221,o),
(446,323,cs),
(446,431,o),
(360,501,o),
(256,501,cs),
(150,501,o),
(65,430,o),
(65,326,cs),
(65,226,o),
(144,154,o),
(259,154,cs)
);
},
{
closed = 1;
nodes = (
(190,223,o),
(149,269,o),
(149,329,cs),
(149,389,o),
(193,433,o),
(257,433,cs),
(320,433,o),
(362,390,o),
(362,328,cs),
(362,269,o),
(323,223,o),
(257,223,cs)
);
},
{
closed = 1;
nodes = (
(500,475,l),
(457,528,l),
(353,442,l),
(414,401,l)
);
}
);
width = 514;
}
);
note = g;
unicode = 103;
},
{
color = 1;
glyphname = h;
kernLeft = h;
kernRight = h;
lastChange = "2021-11-14 09:58:11 +0000";
layers = (
{
anchors = (
{
name = bottom;
pos = (261,0);
},
{
name = center;
pos = (138,607);
},
{
name = top;
pos = (98,697);
}
);
layerId = "F91D9E91-C1BC-4259-B0D8-112C0CBA2B8E";
shapes = (
{
closed = 1;
nodes = (
(108,0,l),
(108,241,ls),
(108,405,o),
(175,480,o),
(270,480,cs),
(366,480,o),
(414,418,o),
(414,292,cs),
(414,0,l),
(434,0,l),
(434,297,ls),
(434,430,o),
(377,498,o),
(270,498,cs),
(184,498,o),
(125,451,o),
(104,358,c),
(108,359,l),
(108,697,l),
(88,697,l),
(88,0,l)
);
}
);
width = 517;
},
{
anchors = (
{
name = bottom;
pos = (296,0);
},
{
name = center;
pos = (185,589);
},
{
name = top;
pos = (131,697);
}
);
layerId = "957254E3-B7AD-4837-9092-D4428001DE8E";
shapes = (
{
closed = 1;
nodes = (
(205,0,l),
(205,230,ls),
(205,329,o),
(234,373,o),
(298,373,cs),
(352,373,o),
(376,342,o),
(376,272,cs),
(376,0,l),
(527,0,l),
(527,328,ls),
(527,436,o),
(459,504,o),
(345,504,cs),
(283,504,o),
(208,477,o),
(185,377,c),
(205,377,l),
(205,697,l),
(54,697,l),
(54,0,l)
);
}
);
width = 576;
},
{
anchors = (
{
name = bottom;
pos = (280,0);
},
{
name = center;
pos = (162,598);
},
{
name = top;
pos = (115,697);
}
);
background = {
shapes = (
{
closed = 1;
nodes = (
(157,0,l),
(157,246,ls),
(157,372,o),
(203,428,o),
(285,428,cs),
(359,428,o),
(396,382,o),
(396,282,cs),
(396,0,l),
(481,0,l),
(481,313,ls),
(481,437,o),
(416,501,o),
(308,501,cs),
(228,501,o),
(163,463,o),
(136,388,c),
(157,388,l),
(157,697,l),
(72,697,l),
(72,0,l)
);
}
);
};
layerId = m003;
shapes = (
{
closed = 1;
nodes = (
(157,0,l),
(157,246,ls),
(157,372,o),
(203,428,o),
(285,428,cs),
(359,428,o),
(396,382,o),
(396,282,cs),
(396,0,l),
(481,0,l),
(481,313,ls),
(481,437,o),
(416,501,o),
(308,501,cs),
(228,501,o),
(163,455,o),
(136,380,c),
(157,388,l),
(157,697,l),
(72,697,l),
(72,0,l)
);
}
);
width = 547;
}
);
metricLeft = n;
metricRight = n;
note = h;
unicode = 104;
},
{
color = 1;
glyphname = idotless;
lastChange = "2021-11-14 09:56:48 +0000";
layers = (
{
anchors = (
{
name = bottom;
pos = (100,0);
},
{
name = ogonek;
pos = (110,0);
},
{
name = top;
pos = (100,493);
}
);
layerId = "F91D9E91-C1BC-4259-B0D8-112C0CBA2B8E";
shapes = (
{
closed = 1;
nodes = (
(110,0,l),
(110,493,l),
(90,493,l),
(90,0,l)
);
}
);
width = 200;
},
{
anchors = (
{
name = bottom;
pos = (129,0);
},
{
name = ogonek;
pos = (204,0);
},
{
name = top;
pos = (129,493);
}
);
layerId = "957254E3-B7AD-4837-9092-D4428001DE8E";
shapes = (
{
closed = 1;
nodes = (
(204,0,l),
(204,493,l),
(53,493,l),
(53,0,l)
);
}
);
width = 258;
},
{
anchors = (
{
name = bottom;
pos = (113,0);
},
{
name = ogonek;
pos = (155,0);
},
{
name = top;
pos = (113,493);
}
);
layerId = m003;
shapes = (
{
closed = 1;
nodes = (
(155,0,l),
(155,493,l),
(71,493,l),
(71,0,l)
);
}
);
width = 226;
}
);
note = dotlessi;
unicode = 305;
},
{
color = 1;
glyphname = jdotless;
lastChange = "2021-11-19 16:22:53 +0000";
layers = (
{
anchors = (
{
name = bottom;
pos = (101,-254);
},
{
name = top;
pos = (101,493);
}
);
guides = (
{
pos = (511,-204);
}
);
layerId = "F91D9E91-C1BC-4259-B0D8-112C0CBA2B8E";
shapes = (
{
closed = 1;
nodes = (
(85,-209,o),
(110,-179,o),
(110,-111,cs),
(110,493,l),
(90,493,l),
(90,-109,ls),
(90,-166,o),
(71,-191,o),
(32,-191,cs),
(18,-191,o),
(1,-188,o),
(-22,-180,c),
(-22,-199,l),
(-1,-205,o),
(20,-209,o),
(37,-209,cs)
);
}
);
width = 200;
},
{
anchors = (
{
name = bottom;
pos = (129,-254);
},
{
name = top;
pos = (129,493);
}
);
guides = (
{
pos = (373,-204);
}
);
layerId = "957254E3-B7AD-4837-9092-D4428001DE8E";
shapes = (
{
closed = 1;
nodes = (
(149,-215,o),
(204,-172,o),
(204,-78,cs),
(204,493,l),
(53,493,l),
(53,-36,ls),
(53,-70,o),
(39,-74,o),
(15,-74,cs),
(4,-74,o),
(-10,-72,o),
(-25,-69,c),
(-25,-199,l),
(6,-209,o),
(42,-215,o),
(71,-215,cs)
);
}
);
width = 258;
},
{
anchors = (
{
name = bottom;
pos = (114,-254);
},
{
name = top;
pos = (114,493);
}
);
guides = (
{
pos = (366,-204);
}
);
layerId = m003;
shapes = (
{
closed = 1;
nodes = (
(115,-212,o),
(155,-176,o),
(155,-95,cs),
(155,493,l),
(71,493,l),
(71,-73,ls),
(71,-119,o),
(54,-134,o),
(22,-134,cs),
(12,-134,o),
(-4,-132,o),
(-25,-125,c),
(-25,-199,l),
(2,-207,o),
(29,-212,o),
(52,-212,cs)
);
}
);
width = 226;
}
);
metricLeft = "=i@200";
metricRight = "=i@200";
note = uni0237;
unicode = 567;
},
{
color = 1;
glyphname = k;
kernLeft = k;
kernRight = k;
lastChange = "2021-11-14 09:56:48 +0000";
layers = (
{
anchors = (
{
name = bottom;
pos = (245,0);
},
{
name = top;
pos = (98,697);
}
);
layerId = "F91D9E91-C1BC-4259-B0D8-112C0CBA2B8E";
shapes = (
{
closed = 1;
nodes = (
(452,0,l),
(243,314,l),
(417,493,l),
(390,493,l),
(100,194,l),
(100,167,l),
(229,300,l),
(428,0,l)
);
},
{
closed = 1;
nodes = (
(108,0,l),
(108,697,l),
(88,697,l),
(88,0,l)
);
}
);
width = 491;
},
{
anchors = (
{
name = bottom;
pos = (295,0);
},
{
name = top;
pos = (130,697);
}
);
layerId = "957254E3-B7AD-4837-9092-D4428001DE8E";
shapes = (
{
closed = 1;
nodes = (
(565,0,l),
(368,307,l),
(548,493,l),
(357,493,l),
(194,318,l),
(194,131,l),
(258,206,l),
(386,0,l)
);
},
{
closed = 1;
nodes = (
(205,0,l),
(205,697,l),
(54,697,l),
(54,0,l)
);
}
);
width = 578;
},
{
anchors = (
{
name = bottom;
pos = (271,0);
},
{
name = top;
pos = (115,697);
}
);
layerId = m003;
shapes = (
{
closed = 1;
nodes = (
(509,0,l),
(306,311,l),
(483,493,l),
(374,493,l),
(147,259,l),
(147,150,l),
(244,254,l),
(408,0,l)
);
},
{
closed = 1;
nodes = (
(157,0,l),
(157,697,l),
(72,697,l),
(72,0,l)
);
}
);
width = 532;
}
);
metricLeft = n;
note = k;
unicode = 107;
},
{
color = 1;
glyphname = kgreenlandic;
kernLeft = m;
kernRight = k;
lastChange = "2021-11-14 09:56:48 +0000";
layers = (
{
anchors = (
{
name = bottom;
pos = (245,0);
},
{
name = top;
pos = (245,493);
}
);
layerId = "F91D9E91-C1BC-4259-B0D8-112C0CBA2B8E";
shapes = (
{
closed = 1;
nodes = (
(452,0,l),
(243,314,l),
(417,493,l),
(390,493,l),
(100,194,l),
(100,167,l),
(229,300,l),
(428,0,l)
);
},
{
closed = 1;
nodes = (
(108,0,l),
(108,493,l),
(88,493,l),
(88,0,l)
);
}
);
width = 507;
},
{
anchors = (
{
name = bottom;
pos = (295,0);
},
{
name = top;
pos = (288,493);
}
);
layerId = "957254E3-B7AD-4837-9092-D4428001DE8E";
shapes = (
{
closed = 1;
nodes = (
(565,0,l),
(368,307,l),
(548,493,l),
(357,493,l),
(194,318,l),
(194,131,l),
(258,206,l),
(386,0,l)
);
},
{
closed = 1;
nodes = (
(205,0,l),
(205,493,l),
(54,493,l),
(54,0,l)
);
}
);
width = 589;
},
{
anchors = (
{
name = bottom;
pos = (271,0);
},
{
name = top;
pos = (267,493);
}
);
layerId = m003;
shapes = (
{
closed = 1;
nodes = (
(508,0,l),
(305,311,l),
(482,493,l),
(373,493,l),
(146,259,l),
(146,150,l),
(243,254,l),
(407,0,l)
);
},
{
closed = 1;
nodes = (
(157,0,l),
(157,493,l),
(72,493,l),
(72,0,l)
);
}
);
width = 547;
}
);
metricLeft = m;
note = kgreenlandic;
unicode = 312;
},
{
color = 1;
glyphname = l;
kernLeft = l;
kernRight = l;
lastChange = "2021-11-14 09:56:48 +0000";
layers = (
{
anchors = (
{
name = bottom;
pos = (138,0);
},
{
name = center;
pos = (119,412);
},
{
name = top;
pos = (98,697);
},
{
name = topright;
pos = (223,493);
}
);
layerId = "F91D9E91-C1BC-4259-B0D8-112C0CBA2B8E";
shapes = (
{
closed = 1;
nodes = (
(180,-5,o),
(198,-1,o),
(219,6,c),
(219,24,l),
(199,17,o),
(182,14,o),
(166,14,cs),
(128,14,o),
(108,38,o),
(108,95,cs),
(108,697,l),
(88,697,l),
(88,93,ls),
(88,25,o),
(113,-5,o),
(161,-5,cs)
);
}
);
width = 268;
},
{
anchors = (
{
name = bottom;
pos = (139,0);
},
{
name = center;
pos = (129,343);
},
{
name = top;
pos = (126,697);
},
{
name = topright;
pos = (344,493);
}
);
layerId = "957254E3-B7AD-4837-9092-D4428001DE8E";
shapes = (
{
closed = 1;
nodes = (
(201,-11,o),
(231,-7,o),
(262,5,c),
(262,133,l),
(251,130,o),
(241,128,o),
(231,128,cs),
(214,128,o),
(201,135,o),
(201,155,cs),
(201,697,l),
(51,697,l),
(51,125,ls),
(51,30,o),
(107,-11,o),
(179,-11,cs)
);
}
);
width = 290;
},
{
anchors = (
{
name = bottom;
pos = (139,0);
},
{
name = center;
pos = (130,378);
},
{
name = top;
pos = (112,697);
},
{
name = topright;
pos = (283,493);
}
);
layerId = m003;
shapes = (
{
closed = 1;
nodes = (
(191,-8,o),
(218,-3,o),
(241,6,c),
(241,78,l),
(225,73,o),
(210,70,o),
(198,70,cs),
(171,70,o),
(154,86,o),
(154,125,cs),
(154,697,l),
(70,697,l),
(70,109,ls),
(70,28,o),
(111,-8,o),
(171,-8,cs)
);
}
);
width = 270;
}
);
note = l;
unicode = 108;
},
{
color = 1;
glyphname = m;
kernLeft = m;
kernRight = a;
lastChange = "2021-11-14 09:58:18 +0000";
layers = (
{
anchors = (
{
name = bottom;
pos = (399,0);
},
{
name = top;
pos = (399,493);
}
);
layerId = "F91D9E91-C1BC-4259-B0D8-112C0CBA2B8E";
shapes = (
{
closed = 1;
nodes = (
(109,0,l),
(109,249,ls),
(109,413,o),
(178,480,o),
(257,480,cs),
(347,480,o),
(394,421,o),
(394,292,cs),
(394,0,l),
(414,0,l),
(414,269,ls),
(414,413,o),
(483,480,o),
(562,480,cs),
(668,480,o),
(700,399,o),
(700,280,cs),
(700,0,l),
(721,0,l),
(721,283,ls),
(721,412,o),
(681,498,o),
(566,498,cs),
(482,498,o),
(424,447,o),
(403,349,c),
(411,349,l),
(397,453,o),
(344,498,o),
(260,498,cs),
(185,498,o),
(125,455,o),
(105,367,c),
(108,367,l),
(108,493,l),
(88,493,l),
(88,0,l)
);
}
);
width = 804;
},
{
anchors = (
{
name = bottom;
pos = (427,0);
},
{
name = top;
pos = (427,493);
}
);
layerId = "957254E3-B7AD-4837-9092-D4428001DE8E";
shapes = (
{
closed = 1;
nodes = (
(205,0,l),
(205,239,ls),
(205,330,o),
(231,373,o),
(288,373,cs),
(329,373,o),
(354,342,o),
(354,281,cs),
(354,0,l),
(504,0,l),
(504,239,ls),
(504,331,o),
(529,373,o),
(583,373,cs),
(627,373,o),
(653,345,o),
(653,281,cs),
(653,0,l),
(804,0,l),
(804,318,ls),
(804,407,o),
(748,504,o),
(619,504,cs),
(545,504,o),
(453,464,o),
(423,299,c),
(514,341,l),
(491,475,o),
(408,504,o),
(340,504,cs),
(277,504,o),
(189,476,o),
(171,329,c),
(205,364,l),
(205,493,l),
(54,493,l),
(54,0,l)
);
}
);
width = 853;
},
{
anchors = (
{
name = bottom;
pos = (414,0);
},
{
name = top;
pos = (414,493);
}
);
background = {
shapes = (
{
closed = 1;
nodes = (
(157,0,l),
(157,265,ls),
(157,372,o),
(200,428,o),
(273,428,cs),
(339,428,o),
(375,382,o),
(375,287,cs),
(375,0,l),
(460,0,l),
(460,265,ls),
(460,373,o),
(502,428,o),
(574,428,cs),
(649,428,o),
(678,372,o),
(678,280,cs),
(678,0,l),
(762,0,l),
(762,300,ls),
(762,409,o),
(715,501,o),
(593,501,cs),
(503,501,o),
(443,451,o),
(414,350,c),
(463,345,l),
(447,450,o),
(388,501,o),
(298,501,cs),
(232,501,o),
(163,468,o),
(139,374,c),
(157,366,l),
(157,493,l),
(72,493,l),
(72,0,l)
);
}
);
};
layerId = m003;
shapes = (
{
closed = 1;
nodes = (
(157,0,l),
(157,265,ls),
(157,372,o),
(200,428,o),
(273,428,cs),
(339,428,o),
(375,382,o),
(375,287,cs),
(375,0,l),
(460,0,l),
(460,265,ls),
(460,373,o),
(502,428,o),
(574,428,cs),
(649,428,o),
(678,372,o),
(678,280,cs),
(678,0,l),
(762,0,l),
(762,300,ls),
(762,409,o),
(715,501,o),
(593,501,cs),
(497,501,o),
(444,443,o),
(415,342,c),
(463,345,l),
(447,450,o),
(388,501,o),
(298,501,cs),
(226,501,o),
(164,460,o),
(140,366,c),
(157,366,l),
(157,493,l),
(72,493,l),
(72,0,l)
);
}
);
width = 828;
}
);
metricLeft = n;
metricRight = n;
note = m;
unicode = 109;
},
{
color = 1;
glyphname = n;
kernLeft = m;
kernRight = a;
lastChange = "2021-11-14 09:58:07 +0000";
layers = (
{
anchors = (
{
name = bottom;
pos = (260,0);
},
{
name = top;
pos = (255,493);
}
);
layerId = "F91D9E91-C1BC-4259-B0D8-112C0CBA2B8E";
shapes = (
{
closed = 1;
nodes = (
(108,0,l),
(108,241,ls),
(108,413,o),
(180,480,o),
(270,480,cs),
(364,480,o),
(414,420,o),
(414,292,cs),
(414,0,l),
(434,0,l),
(434,297,ls),
(434,438,o),
(372,498,o),
(270,498,cs),
(188,498,o),
(126,452,o),
(104,358,c),
(108,359,l),
(108,493,l),
(88,493,l),
(88,0,l)
);
}
);
width = 517;
},
{
anchors = (
{
name = bottom;
pos = (280,0);
},
{
name = top;
pos = (280,493);
}
);
layerId = "957254E3-B7AD-4837-9092-D4428001DE8E";
shapes = (
{
closed = 1;
nodes = (
(205,0,l),
(205,230,ls),
(205,329,o),
(234,373,o),
(298,373,cs),
(352,373,o),
(376,342,o),
(376,272,cs),
(376,0,l),
(527,0,l),
(527,328,ls),
(527,436,o),
(459,504,o),
(345,504,cs),
(283,504,o),
(208,477,o),
(185,377,c),
(205,377,l),
(205,493,l),
(54,493,l),
(54,0,l)
);
}
);
width = 576;
},
{
anchors = (
{
name = bottom;
pos = (271,0);
},
{
name = top;
pos = (268,493);
}
);
background = {
shapes = (
{
closed = 1;
nodes = (
(157,0,l),
(157,246,ls),
(157,372,o),
(203,428,o),
(285,428,cs),
(359,428,o),
(396,382,o),
(396,282,cs),
(396,0,l),
(481,0,l),
(481,313,ls),
(481,437,o),
(416,501,o),
(308,501,cs),
(228,501,o),
(163,463,o),
(136,388,c),
(157,388,l),
(157,493,l),
(72,493,l),
(72,0,l)
);
}
);
};
layerId = m003;
shapes = (
{
closed = 1;
nodes = (
(157,0,l),
(157,246,ls),
(157,372,o),
(203,428,o),
(285,428,cs),
(359,428,o),
(396,382,o),
(396,282,cs),
(396,0,l),
(481,0,l),
(481,313,ls),
(481,437,o),
(416,501,o),
(308,501,cs),
(225,501,o),
(164,456,o),
(137,381,c),
(157,388,l),
(157,493,l),
(72,493,l),
(72,0,l)
);
}
);
width = 547;
}
);
note = n;
unicode = 110;
},
{
glyphname = nhookleft;
kernLeft = m;
kernRight = a;
lastChange = "2021-11-14 10:13:44 +0000";
layers = (
{
layerId = "F91D9E91-C1BC-4259-B0D8-112C0CBA2B8E";
shapes = (
{
closed = 1;
nodes = (
(136,0,l),
(136,304,ls),
(136,405,o),
(194,480,o),
(295,480,cs),
(394,480,o),
(442,419,o),
(442,311,cs),
(442,0,l),
(462,0,l),
(462,328,ls),
(462,438,o),
(400,498,o),
(298,498,cs),
(218,498,o),
(155,457,o),
(133,381,c),
(136,378,l),
(136,493,l),
(116,493,l),
(116,0,l)
);
},
{
closed = 1;
nodes = (
(111,-209,o),
(136,-179,o),
(136,-111,cs),
(136,0,l),
(116,0,l),
(116,-110,ls),
(116,-167,o),
(97,-192,o),
(58,-192,cs),
(43,-192,o),
(26,-188,o),
(5,-180,c),
(5,-199,l),
(25,-205,o),
(47,-209,o),
(63,-209,cs)
);
}
);
width = 545;
},
{
layerId = "957254E3-B7AD-4837-9092-D4428001DE8E";
shapes = (
{
closed = 1;
nodes = (
(204,0,l),
(204,217,ls),
(204,288,o),
(202,373,o),
(295,373,cs),
(342,373,o),
(375,339,o),
(375,290,cs),
(375,0,l),
(526,0,l),
(526,328,ls),
(526,441,o),
(455,504,o),
(344,504,cs),
(267,504,o),
(203,474,o),
(173,392,c),
(204,360,l),
(204,493,l),
(53,493,l),
(53,0,l)
);
},
{
closed = 1;
nodes = (
(150,-215,o),
(204,-172,o),
(204,-78,cs),
(204,0,l),
(53,0,l),
(53,-57,ls),
(53,-80,o),
(43,-84,o),
(25,-84,cs),
(17,-84,o),
(8,-83,o),
(-8,-79,c),
(-8,-199,l),
(22,-210,o),
(50,-215,o),
(77,-215,cs)
);
}
);
width = 575;
},
{
layerId = m003;
shapes = (
{
closed = 1;
nodes = (
(159,0,l),
(159,242,ls),
(159,324,o),
(174,428,o),
(285,428,cs),
(379,428,o),
(398,358,o),
(398,301,cs),
(398,0,l),
(483,0,l),
(483,328,ls),
(483,439,o),
(417,501,o),
(310,501,cs),
(232,501,o),
(168,465,o),
(143,387,c),
(159,369,l),
(159,493,l),
(75,493,l),
(75,0,l)
);
},
{
closed = 1;
nodes = (
(120,-212,o),
(159,-176,o),
(159,-95,cs),
(159,0,l),
(75,0,l),
(75,-84,ls),
(75,-124,o),
(60,-139,o),
(31,-139,cs),
(22,-139,o),
(7,-137,o),
(-12,-130,c),
(-12,-199,l),
(14,-208,o),
(38,-212,o),
(59,-212,cs)
);
}
);
width = 549;
}
);
metricRight = h;
unicode = 626;
},
{
color = 1;
glyphname = eng;
kernLeft = m;
kernRight = a;
lastChange = "2021-11-14 09:56:48 +0000";
layers = (
{
guides = (
{
pos = (541,-204);
}
);
layerId = "F91D9E91-C1BC-4259-B0D8-112C0CBA2B8E";
shapes = (
{
closed = 1;
nodes = (
(440,-209,o),
(466,-180,o),
(466,-111,cs),
(466,328,ls),
(466,438,o),
(404,498,o),
(302,498,cs),
(220,498,o),
(159,456,o),
(137,381,c),
(140,378,l),
(140,493,l),
(120,493,l),
(120,0,l),
(140,0,l),
(140,304,ls),
(140,406,o),
(198,480,o),
(299,480,cs),
(398,480,o),
(446,418,o),
(446,311,cs),
(446,-110,ls),
(446,-167,o),
(426,-192,o),
(388,-192,cs),
(373,-192,o),
(355,-188,o),
(335,-180,c),
(335,-199,l),
(355,-205,o),
(376,-209,o),
(393,-209,cs)
);
}
);
width = 576;
},
{
guides = (
{
pos = (424,-204);
}
);
layerId = "957254E3-B7AD-4837-9092-D4428001DE8E";
shapes = (
{
closed = 1;
nodes = (
(497,-215,o),
(551,-172,o),
(551,-78,cs),
(551,328,ls),
(551,441,o),
(480,504,o),
(369,504,cs),
(292,504,o),
(228,474,o),
(198,392,c),
(229,360,l),
(229,493,l),
(78,493,l),
(78,0,l),
(229,0,l),
(229,179,ls),
(229,242,o),
(199,373,o),
(320,373,cs),
(409,373,o),
(400,296,o),
(400,290,cs),
(400,-57,ls),
(400,-80,o),
(390,-84,o),
(372,-84,cs),
(364,-84,o),
(355,-83,o),
(339,-79,c),
(339,-199,l),
(369,-210,o),
(397,-215,o),
(424,-215,cs)
);
}
);
width = 619;
},
{
guides = (
{
pos = (406,-204);
}
);
layerId = m003;
shapes = (
{
closed = 1;
nodes = (
(472,-212,o),
(512,-176,o),
(512,-95,cs),
(512,328,ls),
(512,440,o),
(445,501,o),
(339,501,cs),
(262,501,o),
(198,467,o),
(171,387,c),
(188,369,l),
(188,493,l),
(103,493,l),
(103,0,l),
(188,0,l),
(188,242,ls),
(188,326,o),
(203,428,o),
(313,428,cs),
(408,428,o),
(427,357,o),
(427,301,cs),
(427,-84,ls),
(427,-124,o),
(412,-139,o),
(384,-139,cs),
(375,-139,o),
(359,-137,o),
(341,-130,c),
(341,-199,l),
(367,-208,o),
(389,-212,o),
(412,-212,cs)
);
}
);
width = 605;
}
);
note = eng;
unicode = 331;
},
{
color = 1;
glyphname = o;
kernLeft = c;
kernRight = o;
lastChange = "2021-11-14 09:56:48 +0000";
layers = (
{
anchors = (
{
name = bottom;
pos = (292,0);
},
{
name = center;
pos = (292,247);
},
{
name = ogonek;
pos = (342,0);
},
{
name = top;
pos = (292,493);
},
{
name = topright;
pos = (524,386);
}
);
layerId = "F91D9E91-C1BC-4259-B0D8-112C0CBA2B8E";
shapes = (
{
closed = 1;
nodes = (
(425,-5,o),
(518,98,o),
(518,247,cs),
(518,395,o),
(426,498,o),
(292,498,cs),
(158,498,o),
(66,395,o),
(66,247,cs),
(66,98,o),
(159,-5,o),
(292,-5,cs)
);
},
{
closed = 1;
nodes = (
(169,13,o),
(86,109,o),
(86,247,cs),
(86,385,o),
(170,480,o),
(292,480,cs),
(414,480,o),
(498,385,o),
(498,247,cs),
(498,109,o),
(415,13,o),
(292,13,cs)
);
}
);
width = 584;
},
{
anchors = (
{
name = bottom;
pos = (285,0);
},
{
name = center;
pos = (285,247);
},
{
name = ogonek;
pos = (361,0);
},
{
name = top;
pos = (285,493);
},
{
name = topright;
pos = (506,326);
}
);
layerId = "957254E3-B7AD-4837-9092-D4428001DE8E";
shapes = (
{
closed = 1;
nodes = (
(430,-11,o),
(538,99,o),
(538,247,cs),
(538,396,o),
(431,504,o),
(285,504,cs),
(138,504,o),
(31,396,o),
(31,247,cs),
(31,98,o),
(139,-11,o),
(285,-11,cs)
);
},
{
closed = 1;
nodes = (
(219,121,o),
(182,166,o),
(182,247,cs),
(182,328,o),
(218,372,o),
(285,372,cs),
(351,372,o),
(387,328,o),
(387,247,cs),
(387,166,o),
(351,121,o),
(285,121,cs)
);
}
);
width = 569;
},
{
anchors = (
{
name = bottom;
pos = (289,0);
},
{
name = center;
pos = (289,247);
},
{
name = ogonek;
pos = (352,0);
},
{
name = top;
pos = (289,493);
},
{
name = topright;
pos = (515,357);
}
);
layerId = m003;
shapes = (
{
closed = 1;
nodes = (
(427,-8,o),
(528,99,o),
(528,247,cs),
(528,395,o),
(428,501,o),
(289,501,cs),
(148,501,o),
(49,395,o),
(49,247,cs),
(49,98,o),
(150,-8,o),
(289,-8,cs)
);
},
{
closed = 1;
nodes = (
(194,67,o),
(133,138,o),
(133,247,cs),
(133,356,o),
(194,427,o),
(289,427,cs),
(383,427,o),
(443,357,o),
(443,247,cs),
(443,138,o),
(383,67,o),
(289,67,cs)
);
}
);
width = 577;
}
);
note = o;
unicode = 111;
},
{
color = 1;
glyphname = p;
kernLeft = m;
kernRight = p;
lastChange = "2021-11-14 09:56:48 +0000";
layers = (
{
anchors = (
{
name = bottom;
pos = (98,-204);
},
{
name = bottomleft;
pos = (-20,0);
},
{
name = center;
pos = (135,-115);
},
{
name = top;
pos = (294,493);
}
);
guides = (
{
pos = (348,-204);
}
);
layerId = "F91D9E91-C1BC-4259-B0D8-112C0CBA2B8E";
shapes = (
{
closed = 1;
nodes = (
(108,-204,l),
(108,169,l),
(104,165,l),
(129,64,o),
(211,-5,o),
(314,-5,cs),
(441,-5,o),
(539,102,o),
(539,246,cs),
(539,389,o),
(442,498,o),
(314,498,cs),
(214,498,o),
(131,434,o),
(103,327,c),
(108,323,l),
(108,493,l),
(88,493,l),
(88,-204,l)
);
},
{
closed = 1;
nodes = (
(194,14,o),
(107,113,o),
(107,246,cs),
(107,379,o),
(194,479,o),
(312,479,cs),
(430,479,o),
(519,379,o),
(519,246,cs),
(519,113,o),
(430,14,o),
(312,14,cs)
);
}
);
width = 605;
},
{
anchors = (
{
name = bottom;
pos = (129,-204);
},
{
name = bottomleft;
pos = (-83,0);
},
{
name = center;
pos = (154,-96);
},
{
name = top;
pos = (275,493);
}
);
guides = (
{
pos = (391,-204);
}
);
layerId = "957254E3-B7AD-4837-9092-D4428001DE8E";
shapes = (
{
closed = 1;
nodes = (
(204,-204,l),
(204,124,l),
(177,146,l),
(193,29,o),
(265,-11,o),
(334,-11,cs),
(445,-11,o),
(535,81,o),
(535,246,cs),
(535,394,o),
(462,504,o),
(334,504,cs),
(274,504,o),
(198,480,o),
(173,341,c),
(204,371,l),
(204,493,l),
(54,493,l),
(54,-204,l)
);
},
{
closed = 1;
nodes = (
(226,127,o),
(190,172,o),
(190,246,cs),
(190,321,o),
(226,366,o),
(287,366,cs),
(348,366,o),
(384,322,o),
(384,246,cs),
(384,171,o),
(348,127,o),
(287,127,cs)
);
}
);
width = 566;
},
{
anchors = (
{
name = bottom;
pos = (114,-204);
},
{
name = bottomleft;
pos = (-50,0);
},
{
name = center;
pos = (149,-115);
},
{
name = top;
pos = (293,493);
}
);
guides = (
{
pos = (367,-204);
}
);
layerId = m003;
shapes = (
{
closed = 1;
nodes = (
(156,-204,l),
(156,147,l),
(132,124,l),
(153,47,o),
(220,-8,o),
(314,-8,cs),
(438,-8,o),
(538,91,o),
(538,246,cs),
(538,391,o),
(448,501,o),
(314,501,cs),
(220,501,o),
(155,451,o),
(129,365,c),
(156,346,l),
(156,493,l),
(72,493,l),
(72,-204,l)
);
},
{
closed = 1;
nodes = (
(211,69,o),
(149,142,o),
(149,246,cs),
(149,350,o),
(211,423,o),
(300,423,cs),
(390,423,o),
(453,350,o),
(453,246,cs),
(453,142,o),
(390,69,o),
(300,69,cs)
);
}
);
width = 587;
}
);
metricLeft = n;
metricRight = o;
note = p;
unicode = 112;
},
{
color = 1;
glyphname = thorn;
kernLeft = b;
kernRight = o;
lastChange = "2021-11-14 09:56:48 +0000";
layers = (
{
anchors = (
{
name = bottom;
pos = (319,0);
},
{
name = top;
pos = (319,493);
}
);
guides = (
{
pos = (541,-204);
}
);
layerId = "F91D9E91-C1BC-4259-B0D8-112C0CBA2B8E";
shapes = (
{
closed = 1;
nodes = (
(141,-204,l),
(141,169,l),
(138,165,l),
(164,62,o),
(248,-5,o),
(348,-5,cs),
(475,-5,o),
(554,101,o),
(554,245,cs),
(554,389,o),
(477,498,o),
(348,498,cs),
(247,498,o),
(164,430,o),
(138,327,c),
(141,324,l),
(141,697,l),
(121,697,l),
(121,-204,l)
);
},
{
closed = 1;
nodes = (
(227,13,o),
(140,113,o),
(140,245,cs),
(140,379,o),
(226,480,o),
(345,480,cs),
(465,480,o),
(534,379,o),
(534,245,cs),
(534,113,o),
(465,13,o),
(345,13,cs)
);
}
);
width = 637;
},
{
anchors = (
{
name = bottom;
pos = (298,0);
},
{
name = top;
pos = (298,493);
}
);
guides = (
{
pos = (424,-204);
}
);
layerId = "957254E3-B7AD-4837-9092-D4428001DE8E";
shapes = (
{
closed = 1;
nodes = (
(230,-204,l),
(230,124,l),
(204,82,l),
(219,27,o),
(293,-11,o),
(359,-11,cs),
(466,-11,o),
(560,76,o),
(560,245,cs),
(560,390,o),
(491,504,o),
(359,504,cs),
(299,504,o),
(223,479,o),
(199,405,c),
(230,371,l),
(230,697,l),
(79,697,l),
(79,-204,l)
);
},
{
closed = 1;
nodes = (
(242,120,o),
(216,177,o),
(216,247,cs),
(216,317,o),
(239,372,o),
(319,372,cs),
(386,372,o),
(410,332,o),
(410,247,cs),
(410,161,o),
(382,120,o),
(317,120,cs)
);
}
);
width = 601;
},
{
anchors = (
{
name = bottom;
pos = (312,0);
},
{
name = top;
pos = (312,493);
}
);
guides = (
{
pos = (406,-204);
}
);
layerId = m003;
shapes = (
{
closed = 1;
nodes = (
(189,-204,l),
(189,147,l),
(175,124,l),
(195,45,o),
(274,-8,o),
(358,-8,cs),
(475,-8,o),
(561,89,o),
(561,245,cs),
(561,390,o),
(488,501,o),
(358,501,cs),
(276,501,o),
(197,454,o),
(172,366,c),
(189,347,l),
(189,697,l),
(104,697,l),
(104,-204,l)
);
},
{
closed = 1;
nodes = (
(238,66,o),
(181,145,o),
(181,246,cs),
(181,348,o),
(237,427,o),
(336,427,cs),
(430,427,o),
(477,355,o),
(477,246,cs),
(477,137,o),
(428,66,o),
(335,66,cs)
);
}
);
width = 627;
}
);
note = thorn;
unicode = 254;
},
{
color = 1;
glyphname = q;
kernLeft = c;
kernRight = i;
lastChange = "2021-11-14 09:56:48 +0000";
layers = (
{
anchors = (
{
name = bottom;
pos = (507,-204);
},
{
name = bottomright;
pos = (625,0);
},
{
name = center;
pos = (471,-115);
},
{
name = top;
pos = (311,493);
}
);
guides = (
{
pos = (367,-204);
}
);
layerId = "F91D9E91-C1BC-4259-B0D8-112C0CBA2B8E";
shapes = (
{
closed = 1;
nodes = (
(517,-204,l),
(517,493,l),
(497,493,l),
(497,323,l),
(502,327,l),
(476,429,o),
(395,498,o),
(292,498,cs),
(163,498,o),
(66,389,o),
(66,246,cs),
(66,102,o),
(164,-5,o),
(292,-5,cs),
(395,-5,o),
(476,64,o),
(501,165,c),
(497,169,l),
(497,-204,l)
);
},
{
closed = 1;
nodes = (
(175,14,o),
(86,114,o),
(86,246,cs),
(86,378,o),
(175,479,o),
(294,479,cs),
(411,479,o),
(498,379,o),
(498,246,cs),
(498,113,o),
(411,14,o),
(294,14,cs)
);
}
);
width = 607;
},
{
anchors = (
{
name = bottom;
pos = (437,-204);
},
{
name = bottomright;
pos = (649,0);
},
{
name = center;
pos = (412,-96);
},
{
name = top;
pos = (291,493);
}
);
guides = (
{
pos = (407,-204);
}
);
layerId = "957254E3-B7AD-4837-9092-D4428001DE8E";
shapes = (
{
closed = 1;
nodes = (
(512,-204,l),
(512,493,l),
(362,493,l),
(362,371,l),
(393,341,l),
(368,480,o),
(292,504,o),
(232,504,cs),
(104,504,o),
(31,394,o),
(31,246,cs),
(31,81,o),
(121,-11,o),
(232,-11,cs),
(301,-11,o),
(373,29,o),
(389,146,c),
(362,124,l),
(362,-204,l)
);
},
{
closed = 1;
nodes = (
(218,127,o),
(182,171,o),
(182,246,cs),
(182,322,o),
(218,366,o),
(279,366,cs),
(340,366,o),
(376,321,o),
(376,246,cs),
(376,172,o),
(340,127,o),
(279,127,cs)
);
}
);
width = 566;
},
{
anchors = (
{
name = bottom;
pos = (473,-204);
},
{
name = bottomright;
pos = (637,0);
},
{
name = center;
pos = (438,-115);
},
{
name = top;
pos = (294,493);
}
);
guides = (
{
pos = (383,-204);
}
);
layerId = m003;
shapes = (
{
closed = 1;
nodes = (
(515,-204,l),
(515,493,l),
(431,493,l),
(431,346,l),
(458,365,l),
(432,451,o),
(367,501,o),
(273,501,cs),
(139,501,o),
(49,391,o),
(49,246,cs),
(49,91,o),
(149,-8,o),
(273,-8,cs),
(367,-8,o),
(434,47,o),
(455,124,c),
(431,147,l),
(431,-204,l)
);
},
{
closed = 1;
nodes = (
(197,69,o),
(134,142,o),
(134,246,cs),
(134,350,o),
(197,423,o),
(287,423,cs),
(376,423,o),
(438,350,o),
(438,246,cs),
(438,142,o),
(376,69,o),
(287,69,cs)
);
}
);
width = 587;
}
);
metricLeft = o;
note = q;
unicode = 113;
},
{
color = 1;
glyphname = r;
kernLeft = m;
kernRight = r;
lastChange = "2021-11-14 09:59:43 +0000";
layers = (
{
anchors = (
{
name = bottom;
pos = (178,0);
},
{
name = top;
pos = (178,493);
}
);
layerId = "F91D9E91-C1BC-4259-B0D8-112C0CBA2B8E";
shapes = (
{
closed = 1;
nodes = (
(108,0,l),
(108,260,ls),
(108,314,o),
(111,338,o),
(117,359,cs),
(141,446,o),
(214,479,o),
(272,479,cs),
(295,479,o),
(315,474,o),
(332,467,c),
(343,485,l),
(323,494,o),
(296,498,o),
(275,498,cs),
(212,498,o),
(126,463,o),
(104,364,c),
(108,364,l),
(108,493,l),
(88,493,l),
(88,0,l)
);
}
);
width = 376;
},
{
anchors = (
{
name = bottom;
pos = (200,0);
},
{
name = top;
pos = (200,493);
}
);
layerId = "957254E3-B7AD-4837-9092-D4428001DE8E";
shapes = (
{
closed = 1;
nodes = (
(205,0,l),
(205,199,ls),
(205,255,o),
(208,279,o),
(215,298,cs),
(229,336,o),
(258,354,o),
(293,354,cs),
(317,354,o),
(343,345,o),
(357,336,c),
(429,472,l),
(394,495,o),
(364,504,o),
(330,504,cs),
(259,504,o),
(190,442,o),
(188,358,c),
(206,358,l),
(206,493,l),
(54,493,l),
(54,0,l)
);
}
);
width = 439;
},
{
anchors = (
{
name = bottom;
pos = (190,0);
},
{
name = top;
pos = (190,493);
}
);
background = {
shapes = (
{
closed = 1;
nodes = (
(157,0,l),
(157,231,ls),
(157,286,o),
(160,308,o),
(166,329,cs),
(186,392,o),
(237,417,o),
(285,417,cs),
(305,417,o),
(329,411,o),
(345,403,c),
(387,479,l),
(358,495,o),
(331,501,o),
(304,501,cs),
(234,501,o),
(146,449,o),
(132,361,c),
(157,361,l),
(157,493,l),
(72,493,l),
(72,0,l)
);
}
);
};
layerId = m003;
shapes = (
{
closed = 1;
nodes = (
(157,0,l),
(157,231,ls),
(157,283,o),
(160,310,o),
(166,329,cs),
(186,392,o),
(237,417,o),
(285,417,cs),
(305,417,o),
(329,411,o),
(345,403,c),
(387,479,l),
(358,495,o),
(331,501,o),
(300,501,cs),
(231,501,o),
(149,444,o),
(135,356,c),
(157,361,l),
(157,493,l),
(72,493,l),
(72,0,l)
);
}
);
width = 407;
}
);
metricLeft = n;
note = r;
unicode = 114;
},
{
color = 1;
glyphname = s;
kernLeft = s;
kernRight = s;
lastChange = "2021-11-14 09:56:48 +0000";
layers = (
{
anchors = (
{
name = bottom;
pos = (220,0);
},
{
name = top;
pos = (220,493);
}
);
layerId = "F91D9E91-C1BC-4259-B0D8-112C0CBA2B8E";
shapes = (
{
closed = 1;
nodes = (
(333,-5,o),
(396,47,o),
(396,130,cs),
(396,230,o),
(312,252,o),
(222,273,cs),
(145,291,o),
(88,311,o),
(88,380,cs),
(88,439,o),
(142,481,o),
(218,481,cs),
(282,481,o),
(333,453,o),
(364,391,c),
(379,400,l),
(348,467,o),
(287,498,o),
(218,498,cs),
(130,498,o),
(69,448,o),
(69,379,cs),
(69,297,o),
(136,274,o),
(217,255,cs),
(296,236,o),
(377,217,o),
(377,128,cs),
(377,55,o),
(318,13,o),
(234,13,cs),
(147,13,o),
(81,57,o),
(57,124,c),
(41,114,l),
(68,42,o),
(140,-5,o),
(234,-5,cs)
);
}
);
width = 460;
},
{
anchors = (
{
name = bottom;
pos = (237,0);
},
{
name = top;
pos = (237,493);
}
);
layerId = "957254E3-B7AD-4837-9092-D4428001DE8E";
shapes = (
{
closed = 1;
nodes = (
(356,-11,o),
(441,59,o),
(441,162,cs),
(441,280,o),
(332,307,o),
(255,326,cs),
(194,341,o),
(178,349,o),
(178,365,cs),
(178,381,o),
(199,393,o),
(228,393,cs),
(266,393,o),
(305,373,o),
(329,341,c),
(421,415,l),
(382,472,o),
(313,504,o),
(232,504,cs),
(115,504,o),
(37,443,o),
(37,351,cs),
(37,242,o),
(137,213,o),
(212,192,cs),
(257,179,o),
(293,169,o),
(293,145,cs),
(293,127,o),
(271,109,o),
(231,109,cs),
(173,109,o),
(139,148,o),
(116,176,c),
(14,86,l),
(49,50,o),
(114,-11,o),
(230,-11,cs)
);
}
);
width = 473;
},
{
anchors = (
{
name = bottom;
pos = (232,0);
},
{
name = top;
pos = (232,493);
}
);
layerId = m003;
shapes = (
{
closed = 1;
nodes = (
(348,-8,o),
(422,53,o),
(422,146,cs),
(422,257,o),
(323,280,o),
(240,300,cs),
(171,316,o),
(135,331,o),
(135,373,cs),
(135,410,o),
(174,433,o),
(226,433,cs),
(278,433,o),
(323,413,o),
(350,367,c),
(404,407,l),
(369,469,o),
(303,501,o),
(229,501,cs),
(126,501,o),
(57,446,o),
(57,365,cs),
(57,271,o),
(140,244,o),
(216,225,cs),
(282,208,o),
(339,193,o),
(339,137,cs),
(339,91,o),
(299,63,o),
(236,63,cs),
(167,63,o),
(115,99,o),
(90,150,c),
(31,100,l),
(64,43,o),
(134,-8,o),
(235,-8,cs)
);
}
);
width = 470;
}
);
note = s;
unicode = 115;
},
{
color = 1;
glyphname = germandbls;
kernLeft = germandbls;
kernRight = germandbls;
lastChange = "2021-11-14 09:56:48 +0000";
layers = (
{
layerId = "F91D9E91-C1BC-4259-B0D8-112C0CBA2B8E";
shapes = (
{
closed = 1;
nodes = (
(492,-5,o),
(556,44,o),
(556,130,cs),
(556,325,o),
(238,218,o),
(238,379,cs),
(238,532,o),
(466,446,o),
(466,581,cs),
(466,650,o),
(391,702,o),
(295,702,cs),
(115,702,o),
(89,591,o),
(89,488,cs),
(89,0,l),
(109,0,l),
(109,488,ls),
(109,550,o),
(109,683,o),
(296,683,cs),
(376,683,o),
(447,640,o),
(447,581,cs),
(447,463,o),
(218,548,o),
(218,379,cs),
(218,198,o),
(536,307,o),
(536,128,cs),
(536,57,o),
(483,13,o),
(394,13,cs),
(307,13,o),
(240,61,o),
(218,125,c),
(200,117,l),
(226,43,o),
(303,-5,o),
(394,-5,cs)
);
}
);
width = 610;
},
{
layerId = "957254E3-B7AD-4837-9092-D4428001DE8E";
shapes = (
{
closed = 1;
nodes = (
(526,-11,o),
(636,39,o),
(636,163,cs),
(636,340,o),
(410,315,o),
(410,344,cs),
(410,370,o),
(593,383,o),
(593,538,cs),
(593,653,o),
(493,707,o),
(344,707,cs),
(108,707,o),
(54,571,o),
(54,427,cs),
(54,0,l),
(211,0,l),
(211,427,ls),
(211,480,o),
(208,566,o),
(356,566,cs),
(395,566,o),
(445,560,o),
(445,533,cs),
(445,481,o),
(262,495,o),
(262,344,cs),
(262,176,o),
(488,209,o),
(488,148,cs),
(488,132,o),
(473,114,o),
(433,114,cs),
(369,114,o),
(354,158,o),
(344,185,c),
(224,132,l),
(247,56,o),
(327,-11,o),
(435,-11,cs)
);
}
);
width = 663;
},
{
layerId = m003;
shapes = (
{
closed = 1;
nodes = (
(509,-8,o),
(596,42,o),
(596,146,cs),
(596,332,o),
(323,266,o),
(323,362,cs),
(323,452,o),
(529,415,o),
(529,560,cs),
(529,652,o),
(442,705,o),
(320,705,cs),
(112,705,o),
(72,581,o),
(72,459,cs),
(72,0,l),
(160,0,l),
(160,459,ls),
(160,517,o),
(159,626,o),
(326,626,cs),
(385,626,o),
(446,601,o),
(446,558,cs),
(446,473,o),
(240,522,o),
(240,362,cs),
(240,187,o),
(513,258,o),
(513,138,cs),
(513,95,o),
(478,63,o),
(414,63,cs),
(343,63,o),
(299,104,o),
(280,155,c),
(212,124,l),
(237,49,o),
(317,-8,o),
(415,-8,cs)
);
}
);
width = 634;
}
);
unicode = 223;
},
{
color = 1;
glyphname = t;
kernLeft = t;
kernRight = t;
lastChange = "2021-11-14 09:56:48 +0000";
layers = (
{
anchors = (
{
name = bottom;
pos = (212,0);
},
{
name = center;
pos = (182,247);
},
{
name = top;
pos = (191,493);
},
{
name = topright;
pos = (326,571);
}
);
layerId = "F91D9E91-C1BC-4259-B0D8-112C0CBA2B8E";
shapes = (
{
closed = 1;
nodes = (
(260,-5,o),
(278,-1,o),
(301,5,c),
(301,23,l),
(280,16,o),
(259,13,o),
(241,13,cs),
(196,13,o),
(176,44,o),
(176,98,cs),
(176,668,l),
(156,653,l),
(156,95,ls),
(156,32,o),
(181,-5,o),
(238,-5,cs)
);
},
{
closed = 1;
nodes = (
(301,476,l),
(301,493,l),
(34,493,l),
(34,476,l)
);
}
);
width = 345;
},
{
anchors = (
{
name = bottom;
pos = (246,0);
},
{
name = center;
pos = (200,248);
},
{
name = top;
pos = (212,493);
},
{
name = topright;
pos = (386,562);
}
);
layerId = "957254E3-B7AD-4837-9092-D4428001DE8E";
shapes = (
{
closed = 1;
nodes = (
(299,-11,o),
(328,-6,o),
(357,5,c),
(357,120,l),
(338,115,o),
(322,112,o),
(309,112,cs),
(265,112,o),
(254,141,o),
(254,200,cs),
(254,677,l),
(102,596,l),
(102,157,ls),
(102,31,o),
(182,-11,o),
(267,-11,cs)
);
},
{
closed = 1;
nodes = (
(357,376,l),
(357,493,l),
(20,493,l),
(20,376,l)
);
}
);
width = 391;
},
{
anchors = (
{
name = bottom;
pos = (209,0);
},
{
name = center;
pos = (180,247);
},
{
name = top;
pos = (197,493);
},
{
name = topright;
pos = (352,567);
}
);
layerId = m003;
shapes = (
{
closed = 1;
nodes = (
(273,-8,o),
(300,-4,o),
(325,5,c),
(325,71,l),
(304,65,o),
(284,62,o),
(271,62,cs),
(226,62,o),
(211,93,o),
(211,148,cs),
(211,673,l),
(125,625,l),
(125,126,ls),
(125,31,o),
(178,-8,o),
(249,-8,cs)
);
},
{
closed = 1;
nodes = (
(325,427,l),
(325,493,l),
(23,493,l),
(23,427,l)
);
}
);
width = 363;
}
);
metricLeft = "=f";
note = t;
unicode = 116;
},
{
glyphname = tbar;
kernLeft = t;
kernRight = t;
lastChange = "2021-11-14 09:56:48 +0000";
layers = (
{
anchors = (
{
name = bottom;
pos = (215,17);
},
{
name = center;
pos = (191,230);
},
{
name = top;
pos = (195,493);
},
{
name = topright;
pos = (330,571);
}
);
layerId = "F91D9E91-C1BC-4259-B0D8-112C0CBA2B8E";
shapes = (
{
closed = 1;
nodes = (
(263,-5,o),
(282,-1,o),
(305,5,c),
(305,23,l),
(284,16,o),
(263,13,o),
(245,13,cs),
(200,13,o),
(180,44,o),
(180,98,cs),
(180,668,l),
(160,653,l),
(160,95,ls),
(160,32,o),
(185,-5,o),
(242,-5,cs)
);
},
{
closed = 1;
nodes = (
(305,239,l),
(305,255,l),
(38,255,l),
(38,239,l)
);
},
{
closed = 1;
nodes = (
(305,476,l),
(305,493,l),
(38,493,l),
(38,476,l)
);
}
);
width = 367;
},
{
anchors = (
{
name = bottom;
pos = (249,0);
},
{
name = center;
pos = (203,248);
},
{
name = top;
pos = (215,493);
},
{
name = topright;
pos = (389,562);
}
);
layerId = "957254E3-B7AD-4837-9092-D4428001DE8E";
shapes = (
{
closed = 1;
nodes = (
(302,-11,o),
(331,-6,o),
(360,5,c),
(360,120,l),
(341,115,o),
(325,112,o),
(312,112,cs),
(268,112,o),
(257,141,o),
(257,200,cs),
(257,677,l),
(105,596,l),
(105,157,ls),
(105,31,o),
(185,-11,o),
(270,-11,cs)
);
},
{
closed = 1;
nodes = (
(360,198,l),
(360,298,l),
(23,298,l),
(23,198,l)
);
},
{
closed = 1;
nodes = (
(360,376,l),
(360,493,l),
(23,493,l),
(23,376,l)
);
}
);
width = 395;
},
{
anchors = (
{
name = bottom;
pos = (200,131);
},
{
name = center;
pos = (210,117);
},
{
name = top;
pos = (195,493);
},
{
name = topright;
pos = (350,567);
}
);
layerId = m003;
shapes = (
{
closed = 1;
nodes = (
(271,-8,o),
(298,-4,o),
(323,5,c),
(323,71,l),
(302,65,o),
(282,62,o),
(269,62,cs),
(224,62,o),
(209,93,o),
(209,148,cs),
(209,673,l),
(123,625,l),
(123,126,ls),
(123,31,o),
(176,-8,o),
(247,-8,cs)
);
},
{
closed = 1;
nodes = (
(323,219,l),
(323,277,l),
(21,277,l),
(21,219,l)
);
},
{
closed = 1;
nodes = (
(323,427,l),
(323,493,l),
(21,493,l),
(21,427,l)
);
}
);
width = 368;
}
);
unicode = 359;
},
{
color = 1;
glyphname = u;
kernLeft = u;
kernRight = u;
lastChange = "2021-11-14 09:56:48 +0000";
layers = (
{
anchors = (
{
name = bottom;
pos = (261,0);
},
{
name = ogonek;
pos = (427,0);
},
{
name = top;
pos = (255,493);
},
{
name = topright;
pos = (473,470);
}
);
layerId = "F91D9E91-C1BC-4259-B0D8-112C0CBA2B8E";
shapes = (
{
closed = 1;
nodes = (
(326,-5,o),
(389,36,o),
(411,134,c),
(408,134,l),
(408,0,l),
(428,0,l),
(428,493,l),
(408,493,l),
(408,232,ls),
(408,81,o),
(346,13,o),
(246,13,cs),
(152,13,o),
(102,73,o),
(102,201,cs),
(102,493,l),
(82,493,l),
(82,196,ls),
(82,55,o),
(144,-5,o),
(245,-5,cs)
);
}
);
width = 517;
},
{
anchors = (
{
name = bottom;
pos = (290,0);
},
{
name = ogonek;
pos = (521,0);
},
{
name = top;
pos = (284,493);
},
{
name = topright;
pos = (505,396);
}
);
layerId = "957254E3-B7AD-4837-9092-D4428001DE8E";
shapes = (
{
closed = 1;
nodes = (
(296,-11,o),
(353,13,o),
(385,91,c),
(370,108,l),
(370,0,l),
(521,0,l),
(521,493,l),
(370,493,l),
(370,330,ls),
(370,213,o),
(370,120,o),
(279,120,cs),
(206,120,o),
(199,171,o),
(199,219,cs),
(199,493,l),
(48,493,l),
(48,188,ls),
(48,72,o),
(102,-11,o),
(233,-11,cs)
);
}
);
width = 576;
},
{
anchors = (
{
name = bottom;
pos = (275,0);
},
{
name = ogonek;
pos = (473,0);
},
{
name = top;
pos = (269,493);
},
{
name = topright;
pos = (488,434);
}
);
layerId = m003;
shapes = (
{
closed = 1;
nodes = (
(318,-8,o),
(383,31,o),
(411,105,c),
(390,105,l),
(390,0,l),
(474,0,l),
(474,493,l),
(390,493,l),
(390,248,ls),
(390,122,o),
(344,66,o),
(262,66,cs),
(188,66,o),
(150,112,o),
(150,211,cs),
(150,493,l),
(66,493,l),
(66,181,ls),
(66,57,o),
(131,-8,o),
(238,-8,cs)
);
}
);
width = 547;
}
);
note = u;
unicode = 117;
},
{
color = 1;
glyphname = v;
kernLeft = v;
kernRight = v;
lastChange = "2021-11-14 09:56:48 +0000";
layers = (
{
anchors = (
{
name = bottom;
pos = (253,0);
},
{
name = top;
pos = (253,493);
}
);
layerId = "F91D9E91-C1BC-4259-B0D8-112C0CBA2B8E";
shapes = (
{
closed = 1;
nodes = (
(263,0,l),
(465,493,l),
(441,493,l),
(252,23,l),
(63,493,l),
(40,493,l),
(242,0,l)
);
}
);
width = 506;
},
{
anchors = (
{
name = bottom;
pos = (273,0);
},
{
name = top;
pos = (273,493);
}
);
layerId = "957254E3-B7AD-4837-9092-D4428001DE8E";
shapes = (
{
closed = 1;
nodes = (
(334,0,l),
(534,493,l),
(372,493,l),
(272,197,l),
(175,493,l),
(10,493,l),
(211,0,l)
);
}
);
width = 544;
},
{
anchors = (
{
name = bottom;
pos = (261,0);
},
{
name = top;
pos = (261,493);
}
);
layerId = m003;
shapes = (
{
closed = 1;
nodes = (
(296,0,l),
(497,493,l),
(405,493,l),
(260,109,l),
(116,493,l),
(23,493,l),
(225,0,l)
);
}
);
width = 521;
}
);
note = v;
unicode = 118;
},
{
color = 1;
glyphname = w;
kernLeft = w;
kernRight = w;
lastChange = "2021-11-14 09:56:48 +0000";
layers = (
{
anchors = (
{
name = bottom;
pos = (372,0);
},
{
name = top;
pos = (372,493);
}
);
layerId = "F91D9E91-C1BC-4259-B0D8-112C0CBA2B8E";
shapes = (
{
closed = 1;
nodes = (
(207,0,l),
(373,469,l),
(537,0,l),
(562,0,l),
(698,493,l),
(677,493,l),
(549,28,l),
(385,493,l),
(361,493,l),
(196,27,l),
(68,493,l),
(46,493,l),
(183,0,l)
);
}
);
width = 744;
},
{
anchors = (
{
name = bottom;
pos = (380,0);
},
{
name = top;
pos = (380,493);
}
);
layerId = "957254E3-B7AD-4837-9092-D4428001DE8E";
shapes = (
{
closed = 1;
nodes = (
(304,0,l),
(379,278,l),
(456,0,l),
(589,0,l),
(746,493,l),
(585,493,l),
(513,234,l),
(442,493,l),
(315,493,l),
(244,232,l),
(173,493,l),
(13,493,l),
(169,0,l)
);
}
);
width = 759;
},
{
anchors = (
{
name = bottom;
pos = (374,0);
},
{
name = top;
pos = (374,493);
}
);
layerId = m003;
shapes = (
{
closed = 1;
nodes = (
(253,0,l),
(374,375,l),
(495,0,l),
(573,0,l),
(720,493,l),
(630,493,l),
(529,130,l),
(411,493,l),
(336,493,l),
(218,128,l),
(118,493,l),
(28,493,l),
(174,0,l)
);
}
);
width = 748;
}
);
note = w;
unicode = 119;
},
{
color = 1;
glyphname = x;
kernLeft = x;
kernRight = x;
lastChange = "2021-11-14 09:56:48 +0000";
layers = (
{
anchors = (
{
name = bottom;
pos = (247,0);
},
{
name = top;
pos = (247,493);
}
);
layerId = "F91D9E91-C1BC-4259-B0D8-112C0CBA2B8E";
shapes = (
{
closed = 1;
nodes = (
(69,0,l),
(247,231,l),
(426,0,l),
(451,0,l),
(259,246,l),
(450,493,l),
(425,493,l),
(247,262,l),
(68,493,l),
(43,493,l),
(234,246,l),
(43,0,l)
);
}
);
width = 494;
},
{
anchors = (
{
name = bottom;
pos = (278,0);
},
{
name = top;
pos = (278,493);
}
);
layerId = "957254E3-B7AD-4837-9092-D4428001DE8E";
shapes = (
{
closed = 1;
nodes = (
(190,0,l),
(278,151,l),
(365,0,l),
(541,0,l),
(377,249,l),
(541,493,l),
(365,493,l),
(278,346,l),
(191,493,l),
(15,493,l),
(177,249,l),
(15,0,l)
);
}
);
width = 556;
},
{
anchors = (
{
name = bottom;
pos = (260,0);
},
{
name = top;
pos = (260,493);
}
);
layerId = m003;
shapes = (
{
closed = 1;
nodes = (
(129,0,l),
(260,189,l),
(389,0,l),
(493,0,l),
(315,248,l),
(493,493,l),
(391,493,l),
(260,306,l),
(131,493,l),
(27,493,l),
(204,248,l),
(27,0,l)
);
}
);
width = 520;
}
);
note = x;
unicode = 120;
},
{
color = 1;
glyphname = y;
kernLeft = v;
kernRight = v;
lastChange = "2021-11-14 09:56:48 +0000";
layers = (
{
anchors = (
{
name = bottom;
pos = (404,-30);
},
{
name = top;
pos = (253,493);
}
);
guides = (
{
pos = (527,-204);
}
);
layerId = "F91D9E91-C1BC-4259-B0D8-112C0CBA2B8E";
shapes = (
{
closed = 1;
nodes = (
(180,-203,l),
(465,493,l),
(441,493,l),
(252,23,l),
(63,493,l),
(40,493,l),
(242,1,l),
(158,-203,l)
);
}
);
width = 506;
},
{
anchors = (
{
name = bottom;
pos = (437,-31);
},
{
name = top;
pos = (273,493);
}
);
guides = (
{
pos = (421,-204);
}
);
layerId = "957254E3-B7AD-4837-9092-D4428001DE8E";
shapes = (
{
closed = 1;
nodes = (
(251,-204,l),
(534,493,l),
(372,493,l),
(272,197,l),
(175,493,l),
(10,493,l),
(192,47,l),
(88,-204,l)
);
}
);
width = 544;
},
{
anchors = (
{
name = bottom;
pos = (418,-30);
},
{
name = top;
pos = (261,493);
}
);
guides = (
{
pos = (382,-204);
}
);
layerId = m003;
shapes = (
{
closed = 1;
nodes = (
(213,-203,l),
(497,493,l),
(405,493,l),
(260,109,l),
(116,493,l),
(23,493,l),
(215,24,l),
(121,-203,l)
);
}
);
width = 521;
}
);
metricLeft = "=v";
metricRight = "=v";
note = y;
unicode = 121;
},
{
color = 1;
glyphname = z;
kernLeft = z;
kernRight = z;
lastChange = "2021-11-14 09:56:48 +0000";
layers = (
{
anchors = (
{
name = bottom;
pos = (240,0);
},
{
name = center;
pos = (240,247);
},
{
name = top;
pos = (240,493);
}
);
layerId = "F91D9E91-C1BC-4259-B0D8-112C0CBA2B8E";
shapes = (
{
closed = 1;
nodes = (
(426,0,l),
(426,18,l),
(64,18,l),
(65,16,l),
(431,468,l),
(431,493,l),
(63,493,l),
(63,475,l),
(412,475,l),
(411,473,l),
(44,22,l),
(44,0,l)
);
}
);
width = 476;
},
{
anchors = (
{
name = bottom;
pos = (236,0);
},
{
name = center;
pos = (236,247);
},
{
name = top;
pos = (236,493);
}
);
layerId = "957254E3-B7AD-4837-9092-D4428001DE8E";
shapes = (
{
closed = 1;
nodes = (
(434,0,l),
(434,126,l),
(175,126,l),
(190,76,l),
(433,388,l),
(433,493,l),
(42,493,l),
(42,367,l),
(295,367,l),
(281,409,l),
(33,98,l),
(33,0,l)
);
}
);
width = 470;
},
{
anchors = (
{
name = bottom;
pos = (237,0);
},
{
name = center;
pos = (237,247);
},
{
name = top;
pos = (237,493);
}
);
background = {
shapes = (
{
closed = 1;
nodes = (
(429,0,l),
(429,72,l),
(118,72,l),
(125,46,l),
(431,429,l),
(431,493,l),
(51,493,l),
(51,422,l),
(353,422,l),
(346,441,l),
(37,60,l),
(37,0,l)
);
}
);
};
layerId = m003;
shapes = (
{
closed = 1;
nodes = (
(429,0,l),
(429,69,l),
(118,69,l),
(121,43,l),
(431,429,l),
(431,493,l),
(51,493,l),
(51,425,l),
(353,425,l),
(349,444,l),
(37,60,l),
(37,0,l)
);
}
);
width = 472;
}
);
note = z;
unicode = 122;
},
{
glyphname = g.ss01;
kernLeft = c;
kernRight = u;
lastChange = "2022-02-25 18:17:32 +0000";
layers = (
{
anchors = (
{
name = bottom;
pos = (290,-209);
},
{
name = top;
pos = (312,493);
}
);
guides = (
{
pos = (528,-204);
}
);
layerId = "F91D9E91-C1BC-4259-B0D8-112C0CBA2B8E";
shapes = (
{
closed = 1;
nodes = (
(419,-209,o),
(517,-152,o),
(517,10,cs),
(517,493,l),
(497,493,l),
(497,327,l),
(499,329,l),
(472,434,o),
(389,498,o),
(290,498,cs),
(164,498,o),
(66,392,o),
(66,252,cs),
(66,114,o),
(163,5,o),
(290,5,cs),
(392,5,o),
(473,73,o),
(500,176,c),
(497,178,l),
(497,10,ls),
(497,-142,o),
(406,-191,o),
(290,-191,cs),
(205,-191,o),
(133,-143,o),
(99,-61,c),
(84,-73,l),
(119,-157,o),
(196,-209,o),
(290,-209,cs)
);
},
{
closed = 1;
nodes = (
(175,25,o),
(86,125,o),
(86,252,cs),
(86,379,o),
(175,479,o),
(294,479,cs),
(411,479,o),
(498,380,o),
(498,252,cs),
(498,124,o),
(411,25,o),
(293,25,cs)
);
}
);
width = 606;
},
{
anchors = (
{
name = bottom;
pos = (269,-215);
},
{
name = top;
pos = (283,493);
}
);
guides = (
{
pos = (408,-204);
},
{
angle = 90;
pos = (69,262);
}
);
layerId = "957254E3-B7AD-4837-9092-D4428001DE8E";
shapes = (
{
closed = 1;
nodes = (
(414,-215,o),
(512,-144,o),
(512,15,cs),
(512,493,l),
(362,493,l),
(362,402,l),
(377,422,l),
(351,475,o),
(306,504,o),
(235,504,cs),
(124,504,o),
(31,412,o),
(31,257,cs),
(31,119,o),
(108,9,o),
(235,9,cs),
(299,9,o),
(347,27,o),
(381,93,c),
(362,108,l),
(362,15,ls),
(362,-72,o),
(309,-86,o),
(268,-86,cs),
(210,-86,o),
(181,-48,o),
(160,-18,c),
(43,-110,l),
(85,-163,o),
(148,-215,o),
(269,-215,cs)
);
},
{
closed = 1;
nodes = (
(215,150,o),
(182,190,o),
(182,255,cs),
(182,322,o),
(218,366,o),
(279,366,cs),
(340,366,o),
(376,321,o),
(376,255,cs),
(376,191,o),
(341,150,o),
(278,150,cs)
);
}
);
width = 567;
},
{
anchors = (
{
name = bottom;
pos = (280,-212);
},
{
name = top;
pos = (298,493);
}
);
guides = (
{
pos = (384,-204);
}
);
layerId = m003;
shapes = (
{
closed = 1;
nodes = (
(417,-212,o),
(515,-148,o),
(515,13,cs),
(515,493,l),
(431,493,l),
(431,364,l),
(439,375,l),
(414,452,o),
(351,501,o),
(263,501,cs),
(145,501,o),
(49,402,o),
(49,255,cs),
(49,117,o),
(136,7,o),
(263,7,cs),
(346,7,o),
(412,51,o),
(442,135,c),
(431,144,l),
(431,13,ls),
(431,-107,o),
(359,-140,o),
(280,-140,cs),
(208,-140,o),
(157,-96,o),
(129,-40,c),
(64,-91,l),
(105,-164,o),
(178,-212,o),
(280,-212,cs)
);
},
{
closed = 1;
nodes = (
(196,87,o),
(134,158,o),
(134,254,cs),
(134,351,o),
(197,424,o),
(287,424,cs),
(376,424,o),
(438,351,o),
(438,254,cs),
(438,158,o),
(377,87,o),
(286,87,cs)
);
}
);
width = 588;
}
);
metricLeft = d;
metricRight = u;
note = g.ss01;
},
{
color = 1;
glyphname = g.ss02;
kernLeft = c;
kernRight = g;
lastChange = "2021-11-14 09:56:48 +0000";
layers = (
{
anchors = (
{
name = bottom;
pos = (255,-209);
},
{
name = top;
pos = (253,493);
}
);
guides = (
{
pos = (517,-204);
}
);
layerId = "F91D9E91-C1BC-4259-B0D8-112C0CBA2B8E";
shapes = (
{
closed = 1;
nodes = (
(387,-209,o),
(468,-156,o),
(468,-66,cs),
(468,-1,o),
(437,58,o),
(329,58,cs),
(214,58,ls),
(130,58,o),
(95,87,o),
(93,128,cs),
(91,165,o),
(109,190,o),
(139,218,c),
(129,232,l),
(89,197,o),
(72,167,o),
(74,126,cs),
(77,72,o),
(122,41,o),
(204,41,cs),
(327,41,ls),
(426,41,o),
(449,-14,o),
(449,-68,cs),
(449,-147,o),
(375,-192,o),
(256,-192,cs),
(134,-192,o),
(71,-142,o),
(71,-50,cs),
(71,-34,l),
(154,50,l),
(141,59,l),
(54,-26,l),
(52,-36,o),
(52,-44,o),
(52,-50,cs),
(52,-154,o),
(128,-209,o),
(255,-209,cs)
);
},
{
closed = 1;
nodes = (
(346,180,o),
(415,243,o),
(415,336,cs),
(415,432,o),
(345,498,o),
(248,498,cs),
(149,498,o),
(77,431,o),
(77,337,cs),
(77,245,o),
(147,180,o),
(247,180,cs)
);
},
{
closed = 1;
nodes = (
(158,198,o),
(97,256,o),
(97,337,cs),
(97,421,o),
(160,480,o),
(248,480,cs),
(335,480,o),
(396,422,o),
(396,336,cs),
(396,255,o),
(336,198,o),
(247,198,cs)
);
},
{
closed = 1;
nodes = (
(470,498,l),
(459,512,l),
(372,432,l),
(386,421,l)
);
}
);
width = 489;
},
{
anchors = (
{
name = bottom;
pos = (275,-205);
},
{
name = top;
pos = (281,493);
}
);
guides = (
{
pos = (410,-204);
}
);
layerId = "957254E3-B7AD-4837-9092-D4428001DE8E";
shapes = (
{
closed = 1;
nodes = (
(438,-214,o),
(521,-158,o),
(521,-46,cs),
(521,46,o),
(467,93,o),
(355,93,cs),
(257,93,ls),
(226,93,o),
(173,93,o),
(173,122,cs),
(173,139,o),
(190,157,o),
(208,158,c),
(137,256,l),
(69,213,o),
(32,162,o),
(32,103,cs),
(32,1,o),
(145,-32,o),
(156,-32,cs),
(333,-32,ls),
(363,-32,o),
(376,-41,o),
(376,-63,cs),
(376,-89,o),
(352,-100,o),
(276,-100,cs),
(199,-100,o),
(167,-89,o),
(167,-63,cs),
(167,-59,l),
(212,-24,l),
(137,36,l),
(36,-18,l),
(30,-31,o),
(26,-48,o),
(26,-68,cs),
(26,-186,o),
(159,-214,o),
(275,-214,cs)
);
},
{
closed = 1;
nodes = (
(403,127,o),
(487,199,o),
(487,309,cs),
(487,429,o),
(386,504,o),
(274,504,cs),
(161,504,o),
(63,429,o),
(63,314,cs),
(63,206,o),
(149,127,o),
(279,127,cs)
);
},
{
closed = 1;
nodes = (
(231,245,o),
(214,277,o),
(214,314,cs),
(214,352,o),
(236,379,o),
(276,379,cs),
(315,379,o),
(337,353,o),
(337,314,cs),
(337,277,o),
(320,245,o),
(276,245,cs)
);
},
{
closed = 1;
nodes = (
(543,452,l),
(466,545,l),
(345,450,l),
(454,381,l)
);
}
);
width = 549;
},
{
anchors = (
{
name = bottom;
pos = (267,-207);
},
{
name = top;
pos = (269,493);
}
);
guides = (
{
pos = (376,-204);
}
);
layerId = m003;
shapes = (
{
closed = 1;
nodes = (
(414,-212,o),
(496,-157,o),
(496,-56,cs),
(496,22,o),
(454,75,o),
(344,75,cs),
(238,75,ls),
(182,75,o),
(135,89,o),
(134,125,cs),
(133,152,o),
(152,175,o),
(175,189,c),
(135,244,l),
(79,203,o),
(55,167,o),
(56,112,cs),
(57,40,o),
(133,5,o),
(182,5,cs),
(332,5,ls),
(397,5,o),
(415,-28,o),
(415,-66,cs),
(415,-118,o),
(366,-147,o),
(268,-147,cs),
(168,-147,o),
(121,-116,o),
(121,-57,cs),
(121,-47,l),
(185,14,l),
(141,48,l),
(47,-22,l),
(43,-33,o),
(41,-47,o),
(41,-60,cs),
(41,-170,o),
(145,-212,o),
(267,-212,cs)
);
},
{
closed = 1;
nodes = (
(376,154,o),
(453,221,o),
(453,323,cs),
(453,430,o),
(367,501,o),
(263,501,cs),
(158,501,o),
(72,431,o),
(72,326,cs),
(72,226,o),
(150,154,o),
(265,154,cs)
);
},
{
closed = 1;
nodes = (
(196,221,o),
(157,267,o),
(157,326,cs),
(157,387,o),
(199,430,o),
(264,430,cs),
(327,430,o),
(369,388,o),
(369,325,cs),
(369,266,o),
(330,221,o),
(264,221,cs)
);
},
{
closed = 1;
nodes = (
(508,475,l),
(464,528,l),
(361,442,l),
(421,401,l)
);
}
);
width = 522;
}
);
metricLeft = g;
metricRight = g;
note = g.ss02;
},
{
glyphname = f_f;
kernLeft = f;
kernRight = f;
lastChange = "2021-11-14 09:56:56 +0000";
layers = (
{
anchors = (
{
name = caret_1;
pos = (255,0);
}
);
layerId = "F91D9E91-C1BC-4259-B0D8-112C0CBA2B8E";
shapes = (
{
closed = 1;
nodes = (
(143,0,l),
(143,476,l),
(366,476,l),
(366,0,l),
(386,0,l),
(386,476,l),
(571,476,l),
(571,493,l),
(386,493,l),
(386,577,ls),
(386,649,o),
(422,684,o),
(503,684,cs),
(522,684,o),
(539,679,o),
(560,670,c),
(568,685,l),
(545,696,o),
(526,702,o),
(502,702,cs),
(459,702,o),
(424,693,o),
(401,672,c),
(369,692,o),
(335,702,o),
(292,702,cs),
(194,702,o),
(123,640,o),
(123,547,cs),
(123,493,l),
(34,493,l),
(34,476,l),
(123,476,l),
(123,0,l)
);
},
{
closed = 1;
nodes = (
(143,547,ls),
(143,630,o),
(203,685,o),
(293,685,cs),
(326,685,o),
(359,678,o),
(391,659,c),
(374,639,o),
(366,611,o),
(366,578,cs),
(366,493,l),
(143,493,l)
);
}
);
width = 570;
},
{
anchors = (
{
name = caret_1;
pos = (327,0);
}
);
layerId = "957254E3-B7AD-4837-9092-D4428001DE8E";
shapes = (
{
closed = 1;
nodes = (
(252,0,l),
(252,376,l),
(401,376,l),
(401,0,l),
(552,0,l),
(552,376,l),
(650,376,l),
(650,493,l),
(552,493,l),
(552,536,ls),
(552,562,o),
(558,583,o),
(583,583,cs),
(596,583,o),
(609,577,o),
(621,571,c),
(669,686,l),
(639,699,o),
(610,708,o),
(566,708,cs),
(524,708,o),
(484,700,o),
(454,676,c),
(414,699,o),
(367,708,o),
(322,708,cs),
(207,708,o),
(102,642,o),
(102,522,cs),
(102,493,l),
(20,493,l),
(20,376,l),
(102,376,l),
(102,0,l)
);
},
{
closed = 1;
nodes = (
(252,519,ls),
(252,559,o),
(272,587,o),
(329,587,cs),
(360,587,o),
(381,580,o),
(402,569,c),
(402,564,o),
(402,558,o),
(402,553,cs),
(402,493,l),
(252,493,l)
);
}
);
width = 667;
},
{
anchors = (
{
name = caret_1;
pos = (287,0);
}
);
layerId = m003;
shapes = (
{
closed = 1;
nodes = (
(193,0,l),
(193,427,l),
(379,427,l),
(379,0,l),
(464,0,l),
(464,427,l),
(606,427,l),
(606,493,l),
(464,493,l),
(464,557,ls),
(464,606,o),
(486,634,o),
(538,634,cs),
(552,634,o),
(567,630,o),
(586,621,c),
(614,685,l),
(586,699,o),
(561,705,o),
(530,705,cs),
(487,705,o),
(450,697,o),
(423,674,c),
(386,696,o),
(346,705,o),
(303,705,cs),
(196,705,o),
(109,641,o),
(109,535,cs),
(109,493,l),
(23,493,l),
(23,427,l),
(109,427,l),
(109,0,l)
);
},
{
closed = 1;
nodes = (
(193,533,ls),
(193,595,o),
(233,636,o),
(307,636,cs),
(339,636,o),
(368,629,o),
(393,615,c),
(384,603,o),
(380,586,o),
(380,566,cs),
(380,493,l),
(193,493,l)
);
}
);
width = 610;
}
);
metricLeft = f;
metricRight = f;
note = f_f;
},
{
glyphname = f_f_i;
kernLeft = f;
kernRight = i;
lastChange = "2021-11-19 16:22:53 +0000";
layers = (
{
anchors = (
{
name = caret_1;
pos = (255,0);
},
{
name = caret_2;
pos = (497,0);
}
);
layerId = "F91D9E91-C1BC-4259-B0D8-112C0CBA2B8E";
shapes = (
{
closed = 1;
nodes = (
(143,0,l),
(143,476,l),
(366,476,l),
(366,0,l),
(386,0,l),
(386,476,l),
(608,476,l),
(608,0,l),
(628,0,l),
(628,493,l),
(386,493,l),
(386,538,ls),
(386,649,o),
(433,685,o),
(511,685,cs),
(553,685,o),
(588,669,o),
(614,647,c),
(625,660,l),
(593,686,o),
(556,702,o),
(510,702,cs),
(468,702,o),
(435,692,o),
(408,668,c),
(374,691,o),
(337,702,o),
(292,702,cs),
(194,702,o),
(123,640,o),
(123,547,cs),
(123,493,l),
(34,493,l),
(34,476,l),
(123,476,l),
(123,0,l)
);
},
{
closed = 1;
nodes = (
(143,547,ls),
(143,630,o),
(203,685,o),
(293,685,cs),
(332,685,o),
(366,675,o),
(398,654,c),
(377,631,o),
(366,591,o),
(366,538,cs),
(366,493,l),
(143,493,l)
);
}
);
width = 715;
},
{
anchors = (
{
name = caret_1;
pos = (327,0);
},
{
name = caret_2;
pos = (627,0);
}
);
layerId = "957254E3-B7AD-4837-9092-D4428001DE8E";
shapes = (
{
closed = 1;
nodes = (
(252,0,l),
(252,376,l),
(401,376,l),
(401,0,l),
(551,0,l),
(551,376,l),
(700,376,l),
(700,0,l),
(850,0,l),
(850,493,l),
(551,493,l),
(551,522,ls),
(551,553,o),
(574,587,o),
(635,587,cs),
(691,587,o),
(735,572,o),
(772,548,c),
(842,655,l),
(780,691,o),
(720,708,o),
(628,708,cs),
(571,708,o),
(517,692,o),
(477,663,c),
(431,695,o),
(373,708,o),
(322,708,cs),
(207,708,o),
(102,642,o),
(102,522,cs),
(102,493,l),
(20,493,l),
(20,376,l),
(102,376,l),
(102,0,l)
);
},
{
closed = 1;
nodes = (
(252,519,ls),
(252,559,o),
(272,587,o),
(329,587,cs),
(362,587,o),
(388,578,o),
(405,569,c),
(405,567,o),
(401,538,o),
(401,525,cs),
(401,493,l),
(252,493,l)
);
}
);
width = 902;
},
{
anchors = (
{
name = caret_1;
pos = (287,0);
},
{
name = caret_2;
pos = (558,0);
}
);
layerId = m003;
shapes = (
{
closed = 1;
nodes = (
(193,0,l),
(193,427,l),
(379,427,l),
(379,0,l),
(463,0,l),
(463,427,l),
(649,427,l),
(649,0,l),
(734,0,l),
(734,493,l),
(463,493,l),
(463,531,ls),
(463,602,o),
(499,636,o),
(568,636,cs),
(615,636,o),
(656,622,o),
(688,598,c),
(728,658,l),
(682,688,o),
(634,705,o),
(564,705,cs),
(518,705,o),
(473,693,o),
(438,666,c),
(397,694,o),
(348,705,o),
(303,705,cs),
(196,705,o),
(109,641,o),
(109,535,cs),
(109,493,l),
(23,493,l),
(23,427,l),
(109,427,l),
(109,0,l)
);
},
{
closed = 1;
nodes = (
(193,533,ls),
(193,595,o),
(233,636,o),
(307,636,cs),
(342,636,o),
(372,628,o),
(397,612,c),
(386,599,o),
(379,563,o),
(379,532,cs),
(379,493,l),
(193,493,l)
);
}
);
width = 797;
}
);
metricLeft = f;
metricRight = i;
note = f_f_i;
},
{
glyphname = f_f_l;
kernLeft = f;
kernRight = l;
lastChange = "2021-11-14 09:56:48 +0000";
layers = (
{
anchors = (
{
name = caret_1;
pos = (255,0);
},
{
name = caret_2;
pos = (497,0);
}
);
layerId = "F91D9E91-C1BC-4259-B0D8-112C0CBA2B8E";
shapes = (
{
closed = 1;
nodes = (
(700,-5,o),
(718,-1,o),
(739,5,c),
(739,24,l),
(720,17,o),
(701,13,o),
(686,13,cs),
(647,13,o),
(628,38,o),
(628,95,cs),
(628,659,l),
(595,685,o),
(557,702,o),
(510,702,cs),
(465,702,o),
(431,690,o),
(409,669,c),
(375,691,o),
(338,702,o),
(292,702,cs),
(194,702,o),
(123,640,o),
(123,547,cs),
(123,493,l),
(34,493,l),
(34,476,l),
(123,476,l),
(123,0,l),
(143,0,l),
(143,476,l),
(366,476,l),
(366,0,l),
(386,0,l),
(386,476,l),
(513,476,l),
(513,493,l),
(386,493,l),
(386,538,ls),
(386,649,o),
(433,685,o),
(511,685,cs),
(549,685,o),
(583,671,o),
(608,652,c),
(608,93,ls),
(608,26,o),
(633,-5,o),
(681,-5,cs)
);
},
{
closed = 1;
nodes = (
(143,546,ls),
(143,630,o),
(203,685,o),
(293,685,cs),
(329,685,o),
(366,676,o),
(398,654,c),
(378,629,o),
(366,592,o),
(366,538,cs),
(366,493,l),
(143,493,l)
);
}
);
width = 788;
},
{
anchors = (
{
name = caret_1;
pos = (327,0);
},
{
name = caret_2;
pos = (626,0);
}
);
layerId = "957254E3-B7AD-4837-9092-D4428001DE8E";
shapes = (
{
closed = 1;
nodes = (
(847,-11,o),
(881,-7,o),
(910,5,c),
(910,133,l),
(897,129,o),
(887,127,o),
(878,127,cs),
(859,127,o),
(850,136,o),
(850,161,cs),
(850,651,l),
(783,689,o),
(725,708,o),
(628,708,cs),
(572,708,o),
(516,692,o),
(475,664,c),
(432,694,o),
(374,708,o),
(322,708,cs),
(207,708,o),
(102,642,o),
(102,522,cs),
(102,493,l),
(20,493,l),
(20,376,l),
(102,376,l),
(102,0,l),
(252,0,l),
(252,376,l),
(401,376,l),
(401,0,l),
(551,0,l),
(551,376,l),
(634,376,l),
(634,493,l),
(551,493,l),
(551,522,ls),
(551,553,o),
(574,587,o),
(635,587,cs),
(656,587,o),
(674,586,o),
(700,579,c),
(700,125,ls),
(700,30,o),
(757,-11,o),
(826,-11,cs)
);
},
{
closed = 1;
nodes = (
(252,509,ls),
(252,559,o),
(272,587,o),
(329,587,cs),
(362,587,o),
(387,578,o),
(404,569,c),
(402,549,o),
(401,537,o),
(401,525,cs),
(401,493,l),
(252,493,l)
);
}
);
width = 938;
},
{
anchors = (
{
name = caret_1;
pos = (287,0);
},
{
name = caret_2;
pos = (557,0);
}
);
layerId = m003;
shapes = (
{
closed = 1;
nodes = (
(770,-8,o),
(798,-3,o),
(820,5,c),
(820,78,l),
(803,72,o),
(789,69,o),
(777,69,cs),
(748,69,o),
(734,87,o),
(734,128,cs),
(734,655,l),
(683,688,o),
(635,705,o),
(564,705,cs),
(517,705,o),
(471,693,o),
(438,667,c),
(399,693,o),
(352,705,o),
(303,705,cs),
(196,705,o),
(109,641,o),
(109,535,cs),
(109,493,l),
(23,493,l),
(23,427,l),
(109,427,l),
(109,0,l),
(193,0,l),
(193,427,l),
(379,427,l),
(379,0,l),
(463,0,l),
(463,427,l),
(569,427,l),
(569,493,l),
(463,493,l),
(463,531,ls),
(463,602,o),
(499,636,o),
(568,636,cs),
(600,636,o),
(625,629,o),
(649,616,c),
(649,109,ls),
(649,29,o),
(690,-8,o),
(749,-8,cs)
);
},
{
closed = 1;
nodes = (
(193,528,ls),
(193,595,o),
(233,636,o),
(307,636,cs),
(342,636,o),
(374,627,o),
(397,612,c),
(387,591,o),
(379,566,o),
(379,532,cs),
(379,493,l),
(193,493,l)
);
}
);
width = 849;
}
);
metricLeft = f;
metricRight = l;
note = f_f_l;
},
{
glyphname = fi;
kernLeft = f;
kernRight = i;
lastChange = "2021-11-19 16:22:53 +0000";
layers = (
{
anchors = (
{
name = caret_1;
pos = (255,0);
}
);
layerId = "F91D9E91-C1BC-4259-B0D8-112C0CBA2B8E";
shapes = (
{
closed = 1;
nodes = (
(143,0,l),
(143,476,l),
(372,476,l),
(372,493,l),
(143,493,l),
(143,537,ls),
(143,649,o),
(193,685,o),
(269,685,cs),
(309,685,o),
(345,671,o),
(374,647,c),
(385,660,l),
(351,686,o),
(314,702,o),
(269,702,cs),
(185,702,o),
(123,659,o),
(123,538,cs),
(123,493,l),
(34,493,l),
(34,476,l),
(123,476,l),
(123,0,l)
);
},
{
closed = 1;
nodes = (
(387,0,l),
(387,493,l),
(367,493,l),
(367,0,l)
);
}
);
width = 474;
},
{
anchors = (
{
name = caret_1;
pos = (321,0);
}
);
layerId = "957254E3-B7AD-4837-9092-D4428001DE8E";
shapes = (
{
closed = 1;
nodes = (
(252,0,l),
(252,376,l),
(444,376,l),
(445,493,l),
(252,493,l),
(252,512,ls),
(252,553,o),
(275,587,o),
(337,587,cs),
(391,587,o),
(435,573,o),
(473,548,c),
(543,655,l),
(485,689,o),
(425,708,o),
(329,708,cs),
(210,708,o),
(102,636,o),
(102,525,cs),
(102,493,l),
(20,493,l),
(20,376,l),
(102,376,l),
(102,0,l)
);
},
{
closed = 1;
nodes = (
(539,0,l),
(539,493,l),
(389,493,l),
(389,0,l)
);
}
);
width = 595;
},
{
anchors = (
{
name = caret_1;
pos = (284,0);
}
);
layerId = m003;
shapes = (
{
closed = 1;
nodes = (
(193,0,l),
(193,427,l),
(404,427,l),
(404,493,l),
(193,493,l),
(193,525,ls),
(193,602,o),
(230,636,o),
(299,636,cs),
(346,636,o),
(385,623,o),
(419,598,c),
(459,658,l),
(414,688,o),
(364,705,o),
(295,705,cs),
(194,705,o),
(109,648,o),
(109,532,cs),
(109,493,l),
(23,493,l),
(23,427,l),
(109,427,l),
(109,0,l)
);
},
{
closed = 1;
nodes = (
(458,0,l),
(458,493,l),
(374,493,l),
(374,0,l)
);
}
);
width = 522;
}
);
metricLeft = f;
metricRight = i;
note = fi;
unicode = 64257;
},
{
glyphname = fl;
kernLeft = f;
kernRight = l;
lastChange = "2021-11-14 09:56:48 +0000";
layers = (
{
anchors = (
{
name = caret_1;
pos = (239,0);
}
);
layerId = "F91D9E91-C1BC-4259-B0D8-112C0CBA2B8E";
shapes = (
{
closed = 1;
nodes = (
(431,-5,o),
(452,-1,o),
(473,5,c),
(473,24,l),
(450,16,o),
(432,13,o),
(418,13,cs),
(381,13,o),
(361,38,o),
(361,94,cs),
(361,658,l),
(329,686,o),
(294,702,o),
(250,702,cs),
(173,702,o),
(117,659,o),
(117,538,cs),
(117,493,l),
(34,493,l),
(34,476,l),
(117,476,l),
(117,0,l),
(137,0,l),
(137,476,l),
(254,476,l),
(254,493,l),
(137,493,l),
(137,538,ls),
(137,649,o),
(182,685,o),
(251,685,cs),
(286,685,o),
(316,672,o),
(341,650,c),
(341,93,ls),
(341,25,o),
(367,-5,o),
(414,-5,cs)
);
}
);
width = 522;
},
{
anchors = (
{
name = caret_1;
pos = (327,0);
}
);
layerId = "957254E3-B7AD-4837-9092-D4428001DE8E";
shapes = (
{
closed = 1;
nodes = (
(548,-11,o),
(582,-7,o),
(613,5,c),
(613,133,l),
(600,129,o),
(590,127,o),
(581,127,cs),
(562,127,o),
(553,136,o),
(553,152,cs),
(553,651,l),
(485,689,o),
(427,708,o),
(333,708,cs),
(212,708,o),
(102,635,o),
(102,525,cs),
(102,493,l),
(20,493,l),
(20,376,l),
(102,376,l),
(102,0,l),
(253,0,l),
(253,376,l),
(336,376,l),
(336,493,l),
(253,493,l),
(253,522,ls),
(253,553,o),
(277,587,o),
(341,587,cs),
(358,587,o),
(376,586,o),
(401,579,c),
(401,125,ls),
(401,30,o),
(458,-11,o),
(527,-11,cs)
);
}
);
width = 641;
},
{
anchors = (
{
name = caret_1;
pos = (278,0);
}
);
layerId = m003;
shapes = (
{
closed = 1;
nodes = (
(484,-8,o),
(510,-5,o),
(538,5,c),
(538,78,l),
(521,72,o),
(507,69,o),
(495,69,cs),
(466,69,o),
(452,87,o),
(452,123,cs),
(452,655,l),
(402,688,o),
(355,705,o),
(287,705,cs),
(189,705,o),
(106,647,o),
(106,532,cs),
(106,493,l),
(23,493,l),
(23,427,l),
(106,427,l),
(106,0,l),
(190,0,l),
(190,427,l),
(290,427,l),
(290,493,l),
(190,493,l),
(190,531,ls),
(190,601,o),
(225,636,o),
(292,636,cs),
(319,636,o),
(343,629,o),
(367,615,c),
(367,109,ls),
(367,28,o),
(408,-8,o),
(466,-8,cs)
);
}
);
width = 567;
}
);
metricLeft = f;
metricRight = l;
note = fl;
unicode = 64258;
},
{
glyphname = ordfeminine;
kernLeft = ordfeminine;
lastChange = "2021-11-14 09:56:48 +0000";
layers = (
{
layerId = "F91D9E91-C1BC-4259-B0D8-112C0CBA2B8E";
shapes = (
{
closed = 1;
nodes = (
(269,345,o),
(317,377,o),
(350,438,c),
(350,350,l),
(365,350,l),
(365,565,ls),
(365,654,o),
(318,702,o),
(233,702,cs),
(178,702,o),
(140,683,o),
(105,634,c),
(117,626,l),
(146,667,o),
(181,688,o),
(234,688,cs),
(310,688,o),
(350,644,o),
(350,567,cs),
(350,560,o),
(350,552,o),
(350,545,c),
(226,545,ls),
(145,545,o),
(92,512,o),
(92,445,cs),
(92,385,o),
(138,345,o),
(207,345,cs)
);
},
{
closed = 1;
nodes = (
(150,360,o),
(108,392,o),
(108,445,cs),
(108,500,o),
(151,530,o),
(226,530,cs),
(350,530,l),
(350,506,o),
(349,484,o),
(349,461,c),
(319,397,o),
(271,360,o),
(209,360,cs)
);
}
);
width = 480;
},
{
layerId = "957254E3-B7AD-4837-9092-D4428001DE8E";
shapes = (
{
closed = 1;
nodes = (
(229,350,o),
(263,363,o),
(293,390,c),
(295,359,l),
(372,359,l),
(372,567,ls),
(372,650,o),
(316,708,o),
(222,708,cs),
(159,708,o),
(113,685,o),
(71,625,c),
(138,580,l),
(154,602,o),
(178,630,o),
(225,630,cs),
(257,630,o),
(276,617,o),
(285,596,cs),
(288,589,o),
(289,581,o),
(289,570,c),
(195,570,ls),
(122,570,o),
(61,537,o),
(61,463,cs),
(61,393,o),
(117,350,o),
(189,350,cs)
);
},
{
closed = 1;
nodes = (
(170,429,o),
(154,444,o),
(154,461,cs),
(154,480,o),
(170,493,o),
(201,493,cs),
(289,493,l),
(286,479,o),
(282,466,o),
(273,454,cs),
(259,437,o),
(238,429,o),
(209,429,cs)
);
}
);
width = 456;
},
{
layerId = m003;
shapes = (
{
closed = 1;
nodes = (
(264,348,o),
(306,370,o),
(338,415,c),
(339,355,l),
(384,355,l),
(384,566,ls),
(384,652,o),
(332,705,o),
(243,705,cs),
(184,705,o),
(142,684,o),
(104,630,c),
(143,603,l),
(166,636,o),
(196,659,o),
(245,659,cs),
(299,659,o),
(328,631,o),
(334,581,cs),
(335,573,o),
(335,562,o),
(335,558,c),
(226,558,ls),
(150,558,o),
(92,525,o),
(92,455,cs),
(92,389,o),
(143,348,o),
(214,348,cs)
);
},
{
closed = 1;
nodes = (
(176,395,o),
(146,418,o),
(146,453,cs),
(146,490,o),
(176,512,o),
(229,512,cs),
(335,512,l),
(334,493,o),
(331,476,o),
(327,458,c),
(304,416,o),
(269,395,o),
(225,395,cs)
);
}
);
width = 499;
}
);
note = ordfeminine;
unicode = 170;
},
{
glyphname = ordmasculine;
kernLeft = ordmasculine;
kernRight = ordmasculine;
lastChange = "2021-11-14 09:56:48 +0000";
layers = (
{
layerId = "F91D9E91-C1BC-4259-B0D8-112C0CBA2B8E";
shapes = (
{
closed = 1;
nodes = (
(347,356,o),
(417,430,o),
(417,529,cs),
(417,627,o),
(346,702,o),
(255,702,cs),
(163,702,o),
(92,627,o),
(92,529,cs),
(92,431,o),
(162,356,o),
(255,356,cs)
);
},
{
closed = 1;
nodes = (
(170,371,o),
(108,438,o),
(108,529,cs),
(108,619,o),
(170,687,o),
(255,687,cs),
(338,687,o),
(401,619,o),
(401,529,cs),
(401,438,o),
(338,371,o),
(255,371,cs)
);
}
);
width = 510;
},
{
layerId = "957254E3-B7AD-4837-9092-D4428001DE8E";
shapes = (
{
closed = 1;
nodes = (
(344,350,o),
(417,431,o),
(417,529,cs),
(417,626,o),
(344,708,o),
(238,708,cs),
(131,708,o),
(59,626,o),
(59,529,cs),
(59,432,o),
(130,350,o),
(238,350,cs)
);
},
{
closed = 1;
nodes = (
(174,432,o),
(156,477,o),
(156,529,cs),
(156,583,o),
(175,626,o),
(238,626,cs),
(301,626,o),
(320,583,o),
(320,529,cs),
(320,477,o),
(301,432,o),
(238,432,cs)
);
}
);
width = 477;
},
{
layerId = m003;
shapes = (
{
closed = 1;
nodes = (
(362,353,o),
(433,431,o),
(433,529,cs),
(433,627,o),
(361,705,o),
(263,705,cs),
(164,705,o),
(92,626,o),
(92,529,cs),
(92,432,o),
(163,353,o),
(263,353,cs)
);
},
{
closed = 1;
nodes = (
(188,401,o),
(148,458,o),
(148,529,cs),
(148,601,o),
(189,658,o),
(263,658,cs),
(336,658,o),
(378,601,o),
(378,529,cs),
(378,458,o),
(337,401,o),
(263,401,cs)
);
}
);
width = 526;
}
);
note = ordmasculine;
unicode = 186;
},
{
color = 1;
glyphname = Delta;
kernLeft = A;
kernRight = A;
lastChange = "2021-11-14 09:56:48 +0000";
layers = (
{
layerId = "F91D9E91-C1BC-4259-B0D8-112C0CBA2B8E";
shapes = (
{
closed = 1;
nodes = (
(571,0,l),
(327,697,l),
(301,697,l),
(59,0,l)
);
},
{
closed = 1;
nodes = (
(315,675,l),
(541,19,l),
(89,19,l)
);
}
);
width = 630;
},
{
layerId = "957254E3-B7AD-4837-9092-D4428001DE8E";
shapes = (
{
closed = 1;
nodes = (
(714,0,l),
(425,697,l),
(310,697,l),
(20,0,l)
);
},
{
closed = 1;
nodes = (
(368,463,l),
(489,144,l),
(246,144,l)
);
}
);
width = 733;
},
{
layerId = m003;
shapes = (
{
closed = 1;
nodes = (
(660,0,l),
(395,697,l),
(324,697,l),
(59,0,l)
);
},
{
closed = 1;
nodes = (
(360,571,l),
(534,81,l),
(185,81,l)
);
}
);
width = 719;
}
);
unicode = 916;
},
{
color = 1;
glyphname = pi;
lastChange = "2021-11-14 09:56:48 +0000";
layers = (
{
layerId = "F91D9E91-C1BC-4259-B0D8-112C0CBA2B8E";
shapes = (
{
closed = 1;
nodes = (
(496,-5,o),
(507,-4,o),
(521,0,c),
(517,17,l),
(506,15,o),
(495,14,o),
(487,14,cs),
(420,14,o),
(393,54,o),
(393,155,cs),
(393,475,l),
(497,475,l),
(497,493,l),
(48,493,l),
(48,475,l),
(111,475,l),
(111,0,l),
(131,0,l),
(131,475,l),
(374,475,l),
(374,152,ls),
(374,40,o),
(406,-5,o),
(485,-5,cs)
);
}
);
width = 540;
},
{
layerId = "957254E3-B7AD-4837-9092-D4428001DE8E";
shapes = (
{
closed = 1;
nodes = (
(525,-11,o),
(551,-3,o),
(584,18,c),
(560,140,l),
(550,133,o),
(537,128,o),
(525,128,cs),
(511,128,o),
(500,135,o),
(500,158,cs),
(500,367,l),
(560,367,l),
(560,493,l),
(30,493,l),
(30,367,l),
(93,367,l),
(93,0,l),
(243,0,l),
(243,367,l),
(350,367,l),
(350,107,ls),
(350,31,o),
(399,-11,o),
(487,-11,cs)
);
}
);
width = 598;
},
{
layerId = m003;
shapes = (
{
closed = 1;
nodes = (
(518,-8,o),
(538,-4,o),
(561,10,c),
(546,78,l),
(537,74,o),
(526,70,o),
(514,70,cs),
(474,70,o),
(455,94,o),
(455,157,cs),
(455,422,l),
(537,422,l),
(537,493,l),
(48,493,l),
(48,422,l),
(111,422,l),
(111,0,l),
(195,0,l),
(195,422,l),
(371,422,l),
(371,130,ls),
(371,36,o),
(411,-8,o),
(495,-8,cs)
);
}
);
width = 580;
}
);
note = pi;
unicode = 960;
},
{
color = 1;
glyphname = zero;
kernLeft = zero;
kernRight = zero;
lastChange = "2021-11-14 09:56:48 +0000";
layers = (
{
layerId = "F91D9E91-C1BC-4259-B0D8-112C0CBA2B8E";
shapes = (
{
closed = 1;
nodes = (
(419,-5,o),
(482,144,o),
(482,347,cs),
(482,552,o),
(418,703,o),
(278,703,cs),
(125,703,o),
(79,530,o),
(79,348,cs),
(79,169,o),
(126,-5,o),
(284,-5,cs)
);
},
{
closed = 1;
nodes = (
(145,14,o),
(99,171,o),
(99,348,cs),
(99,528,o),
(144,684,o),
(278,684,cs),
(401,684,o),
(462,549,o),
(462,346,cs),
(462,147,o),
(402,14,o),
(284,14,cs)
);
}
);
width = 560;
},
{
layerId = "957254E3-B7AD-4837-9092-D4428001DE8E";
shapes = (
{
closed = 1;
nodes = (
(513,-10,o),
(533,212,o),
(533,353,cs),
(533,484,o),
(516,709,o),
(280,709,cs),
(45,709,o),
(27,486,o),
(27,353,cs),
(27,212,o),
(47,-10,o),
(280,-10,cs)
);
},
{
closed = 1;
nodes = (
(192,134,o),
(181,235,o),
(181,348,cs),
(181,466,o),
(192,564,o),
(280,564,cs),
(368,564,o),
(379,466,o),
(379,348,cs),
(379,235,o),
(368,134,o),
(280,134,cs)
);
}
);
width = 560;
},
{
layerId = m003;
shapes = (
{
closed = 1;
nodes = (
(465,-8,o),
(507,178,o),
(507,350,cs),
(507,519,o),
(466,706,o),
(279,706,cs),
(85,706,o),
(53,508,o),
(53,351,cs),
(53,190,o),
(87,-8,o),
(282,-8,cs)
);
},
{
closed = 1;
nodes = (
(168,74,o),
(140,204,o),
(140,348,cs),
(140,498,o),
(168,625,o),
(279,625,cs),
(385,625,o),
(421,508,o),
(421,347,cs),
(421,193,o),
(386,74,o),
(282,74,cs)
);
}
);
width = 560;
}
);
note = zero;
unicode = 48;
},
{
color = 1;
glyphname = one;
kernLeft = one;
kernRight = one;
lastChange = "2021-11-14 09:56:48 +0000";
layers = (
{
layerId = "F91D9E91-C1BC-4259-B0D8-112C0CBA2B8E";
shapes = (
{
closed = 1;
nodes = (
(342,0,l),
(342,697,l),
(322,697,l),
(322,622,ls),
(322,592,o),
(306,582,o),
(277,582,cs),
(135,582,l),
(135,564,l),
(332,564,l),
(322,578,l),
(322,0,l)
);
}
);
width = 560;
},
{
layerId = "957254E3-B7AD-4837-9092-D4428001DE8E";
shapes = (
{
closed = 1;
nodes = (
(409,0,l),
(409,697,l),
(258,697,l),
(258,665,ls),
(258,609,o),
(231,590,o),
(181,590,cs),
(82,590,l),
(82,471,l),
(301,471,l),
(258,544,l),
(258,0,l)
);
}
);
width = 560;
},
{
layerId = m003;
shapes = (
{
closed = 1;
nodes = (
(376,0,l),
(376,697,l),
(291,697,l),
(291,644,ls),
(291,601,o),
(270,586,o),
(230,586,cs),
(109,586,l),
(109,518,l),
(317,518,l),
(291,562,l),
(291,0,l)
);
}
);
width = 560;
}
);
note = one;
unicode = 49;
},
{
color = 1;
glyphname = two;
kernLeft = two;
kernRight = two;
lastChange = "2021-11-14 09:56:48 +0000";
layers = (
{
layerId = "F91D9E91-C1BC-4259-B0D8-112C0CBA2B8E";
shapes = (
{
closed = 1;
nodes = (
(501,0,l),
(501,19,l),
(83,19,l),
(80,22,l),
(233,145,o),
(472,299,o),
(472,507,cs),
(472,627,o),
(396,702,o),
(275,702,cs),
(143,702,o),
(69,618,o),
(69,479,c),
(89,479,l),
(89,606,o),
(155,683,o),
(275,683,cs),
(386,683,o),
(452,615,o),
(452,506,cs),
(452,302,o),
(206,150,o),
(62,30,c),
(62,0,l)
);
}
);
width = 560;
},
{
layerId = "957254E3-B7AD-4837-9092-D4428001DE8E";
shapes = (
{
closed = 1;
nodes = (
(528,0,l),
(528,140,l),
(196,140,l),
(156,76,l),
(370,163,o),
(501,310,o),
(501,476,cs),
(501,614,o),
(406,705,o),
(276,705,cs),
(114,705,o),
(27,566,o),
(27,444,c),
(175,432,l),
(179,486,o),
(196,559,o),
(272,559,cs),
(329,559,o),
(351,519,o),
(351,471,cs),
(351,322,o),
(135,179,o),
(36,110,c),
(36,0,l)
);
}
);
width = 560;
},
{
layerId = m003;
shapes = (
{
closed = 1;
nodes = (
(513,0,l),
(513,79,l),
(138,79,l),
(116,49,l),
(298,153,o),
(485,304,o),
(485,492,cs),
(485,620,o),
(400,704,o),
(275,704,cs),
(128,704,o),
(47,592,o),
(47,462,c),
(130,456,l),
(132,551,o),
(177,622,o),
(272,622,cs),
(357,622,o),
(402,568,o),
(402,489,cs),
(402,311,o),
(166,162,o),
(48,70,c),
(48,0,l)
);
}
);
width = 560;
}
);
note = two;
unicode = 50;
},
{
color = 1;
glyphname = three;
kernLeft = three;
kernRight = three;
lastChange = "2021-11-14 09:56:48 +0000";
layers = (
{
layerId = "F91D9E91-C1BC-4259-B0D8-112C0CBA2B8E";
shapes = (
{
closed = 1;
nodes = (
(411,-5,o),
(504,74,o),
(504,192,cs),
(504,320,o),
(390,364,o),
(301,371,c),
(369,379,o),
(468,415,o),
(468,532,cs),
(468,631,o),
(385,702,o),
(273,702,cs),
(157,702,o),
(76,630,o),
(76,523,c),
(96,522,l),
(96,618,o),
(167,683,o),
(273,683,cs),
(374,683,o),
(448,619,o),
(448,531,cs),
(448,405,o),
(322,377,o),
(229,378,c),
(229,361,l),
(349,360,o),
(485,328,o),
(485,192,cs),
(485,85,o),
(400,14,o),
(275,14,cs),
(145,14,o),
(63,85,o),
(63,198,c),
(43,197,l),
(43,74,o),
(134,-5,o),
(275,-5,cs)
);
}
);
width = 559;
},
{
layerId = "957254E3-B7AD-4837-9092-D4428001DE8E";
shapes = (
{
closed = 1;
nodes = (
(433,-10,o),
(541,83,o),
(541,219,cs),
(541,294,o),
(503,351,o),
(433,381,c),
(476,409,o),
(500,456,o),
(500,512,cs),
(500,627,o),
(409,707,o),
(278,707,cs),
(138,707,o),
(37,617,o),
(37,493,c),
(186,483,l),
(187,533,o),
(219,563,o),
(273,563,cs),
(321,563,o),
(349,539,o),
(349,496,cs),
(349,446,o),
(313,422,o),
(241,422,c),
(241,304,l),
(345,304,o),
(390,279,o),
(390,220,cs),
(390,165,o),
(350,134,o),
(279,134,cs),
(205,134,o),
(157,174,o),
(157,236,c),
(7,227,l),
(7,85,o),
(114,-10,o),
(274,-10,cs)
);
}
);
width = 560;
},
{
layerId = m003;
shapes = (
{
closed = 1;
nodes = (
(422,-8,o),
(523,79,o),
(523,205,cs),
(523,307,o),
(447,358,o),
(367,376,c),
(432,397,o),
(485,443,o),
(485,522,cs),
(485,629,o),
(398,705,o),
(277,705,cs),
(149,705,o),
(58,624,o),
(58,508,c),
(141,503,l),
(142,574,o),
(191,624,o),
(274,624,cs),
(349,624,o),
(400,580,o),
(400,514,cs),
(400,426,o),
(319,399,o),
(236,400,c),
(236,333,l),
(348,333,o),
(439,304,o),
(439,206,cs),
(439,125,o),
(377,74,o),
(278,74,cs),
(176,74,o),
(110,129,o),
(110,217,c),
(26,212,l),
(26,80,o),
(125,-8,o),
(275,-8,cs)
);
}
);
width = 560;
}
);
note = three;
unicode = 51;
},
{
color = 1;
glyphname = four;
kernLeft = four;
kernRight = four;
lastChange = "2021-11-14 09:56:48 +0000";
layers = (
{
layerId = "F91D9E91-C1BC-4259-B0D8-112C0CBA2B8E";
shapes = (
{
closed = 1;
nodes = (
(419,0,l),
(419,169,l),
(535,169,l),
(535,188,l),
(419,188,l),
(419,697,l),
(393,697,l),
(29,190,l),
(29,169,l),
(399,169,l),
(399,0,l)
);
},
{
closed = 1;
nodes = (
(399,675,l),
(399,676,l),
(399,188,l),
(43,188,l),
(45,180,l)
);
}
);
width = 560;
},
{
layerId = "957254E3-B7AD-4837-9092-D4428001DE8E";
shapes = (
{
closed = 1;
nodes = (
(446,0,l),
(446,163,l),
(556,163,l),
(556,303,l),
(446,303,l),
(446,697,l),
(316,697,l),
(3,278,l),
(3,163,l),
(295,163,l),
(295,0,l)
);
},
{
closed = 1;
nodes = (
(316,532,l),
(295,556,l),
(295,303,l),
(118,303,l),
(117,251,l)
);
}
);
width = 560;
},
{
layerId = m003;
shapes = (
{
closed = 1;
nodes = (
(433,0,l),
(433,166,l),
(545,166,l),
(545,245,l),
(433,245,l),
(433,697,l),
(355,697,l),
(16,233,l),
(16,166,l),
(348,166,l),
(348,0,l)
);
},
{
closed = 1;
nodes = (
(358,595,l),
(348,602,l),
(348,245,l),
(80,245,l),
(87,215,l)
);
}
);
width = 560;
}
);
note = four;
unicode = 52;
},
{
color = 1;
glyphname = five;
kernLeft = five;
kernRight = five;
lastChange = "2021-11-14 09:56:48 +0000";
layers = (
{
layerId = "F91D9E91-C1BC-4259-B0D8-112C0CBA2B8E";
shapes = (
{
closed = 1;
nodes = (
(410,-5,o),
(508,99,o),
(508,229,cs),
(508,358,o),
(418,455,o),
(294,455,cs),
(223,455,o),
(154,420,o),
(104,354,c),
(103,357,l),
(158,686,l),
(147,678,l),
(474,678,l),
(474,697,l),
(140,697,l),
(80,345,l),
(109,334,l),
(157,402,o),
(224,434,o),
(293,434,cs),
(406,434,o),
(488,348,o),
(488,229,cs),
(488,109,o),
(399,14,o),
(280,14,cs),
(178,14,o),
(99,83,o),
(77,188,c),
(57,185,l),
(82,69,o),
(170,-5,o),
(280,-5,cs)
);
}
);
width = 560;
},
{
layerId = "957254E3-B7AD-4837-9092-D4428001DE8E";
shapes = (
{
closed = 1;
nodes = (
(431,-11,o),
(539,114,o),
(539,247,cs),
(539,373,o),
(441,487,o),
(295,487,cs),
(256,487,o),
(202,481,o),
(150,425,c),
(200,411,l),
(241,620,l),
(161,557,l),
(509,557,l),
(509,697,l),
(105,697,l),
(35,326,l),
(174,292,l),
(190,319,o),
(220,346,o),
(274,346,cs),
(354,346,o),
(379,296,o),
(379,247,cs),
(379,195,o),
(353,133,o),
(274,133,cs),
(197,133,o),
(165,190,o),
(163,231,c),
(15,206,l),
(30,86,o),
(138,-11,o),
(276,-11,cs)
);
}
);
width = 560;
},
{
layerId = m003;
shapes = (
{
closed = 1;
nodes = (
(420,-8,o),
(523,106,o),
(523,239,cs),
(523,365,o),
(429,471,o),
(295,471,cs),
(237,471,o),
(178,450,o),
(126,389,c),
(150,384,l),
(199,654,l),
(154,618,l),
(491,618,l),
(491,697,l),
(123,697,l),
(58,336,l),
(141,313,l),
(175,363,o),
(224,391,o),
(283,391,cs),
(380,391,o),
(434,323,o),
(434,239,cs),
(434,152,o),
(376,73,o),
(277,73,cs),
(190,73,o),
(132,133,o),
(119,210,c),
(36,195,l),
(57,76,o),
(155,-8,o),
(278,-8,cs)
);
}
);
width = 560;
}
);
note = five;
unicode = 53;
},
{
color = 1;
glyphname = seven;
kernLeft = seven;
kernRight = seven;
lastChange = "2021-11-14 09:56:48 +0000";
layers = (
{
layerId = "F91D9E91-C1BC-4259-B0D8-112C0CBA2B8E";
shapes = (
{
closed = 1;
nodes = (
(157,0,l),
(525,673,l),
(525,697,l),
(30,697,l),
(30,678,l),
(508,678,l),
(505,677,l),
(135,0,l)
);
}
);
width = 560;
},
{
layerId = "957254E3-B7AD-4837-9092-D4428001DE8E";
shapes = (
{
closed = 1;
nodes = (
(243,0,l),
(533,589,l),
(533,697,l),
(28,697,l),
(28,557,l),
(426,557,l),
(383,617,l),
(75,0,l)
);
}
);
width = 560;
},
{
layerId = m003;
shapes = (
{
closed = 1;
nodes = (
(198,0,l),
(528,632,l),
(528,697,l),
(28,697,l),
(28,618,l),
(467,618,l),
(444,648,l),
(104,0,l)
);
}
);
width = 560;
}
);
note = seven;
unicode = 55;
},
{
color = 1;
glyphname = eight;
kernLeft = eight;
kernRight = three;
lastChange = "2021-11-14 09:56:48 +0000";
layers = (
{
layerId = "F91D9E91-C1BC-4259-B0D8-112C0CBA2B8E";
shapes = (
{
closed = 1;
nodes = (
(386,-5,o),
(493,60,o),
(493,191,cs),
(493,286,o),
(433,359,o),
(338,379,c),
(407,398,o),
(453,457,o),
(453,533,cs),
(453,633,o),
(381,702,o),
(282,702,cs),
(199,702,o),
(110,644,o),
(110,540,cs),
(110,459,o),
(155,399,o),
(223,379,c),
(128,360,o),
(66,288,o),
(66,191,cs),
(66,60,o),
(175,-5,o),
(280,-5,cs)
);
},
{
closed = 1;
nodes = (
(182,14,o),
(86,73,o),
(86,193,cs),
(86,297,o),
(166,369,o),
(280,369,cs),
(393,369,o),
(473,297,o),
(473,193,cs),
(473,73,o),
(380,14,o),
(280,14,cs)
);
},
{
closed = 1;
nodes = (
(192,386,o),
(130,447,o),
(130,539,cs),
(130,632,o),
(206,683,o),
(282,683,cs),
(372,683,o),
(433,621,o),
(433,532,cs),
(433,447,o),
(370,386,o),
(283,386,cs)
);
}
);
width = 560;
},
{
layerId = "957254E3-B7AD-4837-9092-D4428001DE8E";
shapes = (
{
closed = 1;
nodes = (
(423,-11,o),
(551,62,o),
(551,211,cs),
(551,279,o),
(526,338,o),
(467,379,c),
(500,409,o),
(518,446,o),
(518,500,cs),
(518,630,o),
(406,708,o),
(280,708,cs),
(154,708,o),
(40,630,o),
(40,500,cs),
(40,446,o),
(60,409,o),
(93,379,c),
(34,338,o),
(9,279,o),
(9,211,cs),
(9,62,o),
(137,-11,o),
(280,-11,cs)
);
},
{
closed = 1;
nodes = (
(209,132,o),
(160,164,o),
(160,226,cs),
(160,288,o),
(210,319,o),
(280,319,cs),
(350,319,o),
(400,288,o),
(400,226,cs),
(400,164,o),
(351,132,o),
(280,132,cs)
);
},
{
closed = 1;
nodes = (
(227,421,o),
(191,447,o),
(191,490,cs),
(191,535,o),
(224,564,o),
(280,564,cs),
(336,564,o),
(369,535,o),
(369,490,cs),
(369,447,o),
(333,421,o),
(280,421,cs)
);
}
);
width = 560;
},
{
layerId = m003;
shapes = (
{
closed = 1;
nodes = (
(405,-8,o),
(522,62,o),
(522,201,cs),
(522,283,o),
(478,349,o),
(401,379,c),
(453,404,o),
(485,452,o),
(485,517,cs),
(485,632,o),
(393,705,o),
(281,705,cs),
(177,705,o),
(75,637,o),
(75,520,cs),
(75,454,o),
(108,404,o),
(159,379,c),
(82,349,o),
(38,284,o),
(38,201,cs),
(38,62,o),
(156,-8,o),
(280,-8,cs)
);
},
{
closed = 1;
nodes = (
(196,72,o),
(122,118,o),
(122,209,cs),
(122,293,o),
(188,345,o),
(280,345,cs),
(372,345,o),
(437,292,o),
(437,209,cs),
(437,118,o),
(365,72,o),
(280,72,cs)
);
},
{
closed = 1;
nodes = (
(210,403,o),
(160,447,o),
(160,515,cs),
(160,584,o),
(215,625,o),
(281,625,cs),
(354,625,o),
(401,579,o),
(401,511,cs),
(401,447,o),
(351,403,o),
(282,403,cs)
);
}
);
width = 560;
}
);
note = eight;
unicode = 56;
},
{
color = 1;
glyphname = nine;
kernLeft = nine;
kernRight = nine;
lastChange = "2021-11-14 09:56:48 +0000";
layers = (
{
layerId = "F91D9E91-C1BC-4259-B0D8-112C0CBA2B8E";
shapes = (
{
closed = 1;
nodes = (
(255,0,l),
(466,363,ls),
(485,396,o),
(501,432,o),
(501,483,cs),
(501,604,o),
(401,702,o),
(279,702,cs),
(157,702,o),
(58,603,o),
(58,482,cs),
(58,361,o),
(158,262,o),
(278,262,cs),
(332,262,o),
(382,283,o),
(421,317,c),
(419,321,l),
(234,0,l)
);
},
{
closed = 1;
nodes = (
(169,280,o),
(78,371,o),
(78,481,cs),
(78,593,o),
(169,683,o),
(279,683,cs),
(390,683,o),
(480,594,o),
(480,482,cs),
(480,370,o),
(388,280,o),
(279,280,cs)
);
}
);
width = 561;
},
{
layerId = "957254E3-B7AD-4837-9092-D4428001DE8E";
shapes = (
{
closed = 1;
nodes = (
(297,0,l),
(504,326,ls),
(530,367,o),
(544,414,o),
(544,460,cs),
(544,606,o),
(424,708,o),
(279,708,cs),
(136,708,o),
(16,607,o),
(16,459,cs),
(16,323,o),
(120,220,o),
(258,220,cs),
(275,220,o),
(293,222,o),
(311,225,c),
(292,249,l),
(123,0,l)
);
},
{
closed = 1;
nodes = (
(217,353,o),
(169,392,o),
(169,459,cs),
(169,526,o),
(218,564,o),
(279,564,cs),
(341,564,o),
(390,526,o),
(390,459,cs),
(390,391,o),
(341,353,o),
(279,353,cs)
);
}
);
width = 560;
},
{
layerId = m003;
shapes = (
{
closed = 1;
nodes = (
(275,0,l),
(484,345,ls),
(507,383,o),
(522,427,o),
(522,472,cs),
(522,605,o),
(412,705,o),
(279,705,cs),
(146,705,o),
(37,605,o),
(37,471,cs),
(37,343,o),
(138,241,o),
(268,241,cs),
(301,241,o),
(336,252,o),
(366,272,c),
(356,285,l),
(178,0,l)
);
},
{
closed = 1;
nodes = (
(192,316,o),
(123,382,o),
(123,470,cs),
(123,560,o),
(193,625,o),
(279,625,cs),
(365,625,o),
(435,560,o),
(435,471,cs),
(435,381,o),
(364,316,o),
(279,316,cs)
);
}
);
width = 560;
}
);
note = nine;
unicode = 57;
},
{
color = 1;
glyphname = zero.lf;
kernLeft = zero;
kernRight = zero;
lastChange = "2021-11-14 09:56:48 +0000";
layers = (
{
layerId = "F91D9E91-C1BC-4259-B0D8-112C0CBA2B8E";
shapes = (
{
closed = 1;
nodes = (
(409,-5,o),
(472,144,o),
(472,347,cs),
(472,552,o),
(408,703,o),
(268,703,cs),
(115,703,o),
(69,530,o),
(69,348,cs),
(69,169,o),
(116,-5,o),
(274,-5,cs)
);
},
{
closed = 1;
nodes = (
(134,14,o),
(89,172,o),
(89,348,cs),
(89,528,o),
(134,684,o),
(268,684,cs),
(391,684,o),
(452,549,o),
(452,346,cs),
(452,148,o),
(392,14,o),
(274,14,cs)
);
}
);
width = 540;
},
{
layerId = "957254E3-B7AD-4837-9092-D4428001DE8E";
shapes = (
{
closed = 1;
nodes = (
(535,-10,o),
(555,212,o),
(555,353,cs),
(555,484,o),
(538,709,o),
(302,709,cs),
(67,709,o),
(49,486,o),
(49,353,cs),
(49,212,o),
(69,-10,o),
(302,-10,cs)
);
},
{
closed = 1;
nodes = (
(214,134,o),
(203,235,o),
(203,348,cs),
(203,466,o),
(214,564,o),
(302,564,cs),
(390,564,o),
(401,466,o),
(401,348,cs),
(401,235,o),
(390,134,o),
(302,134,cs)
);
}
);
width = 604;
},
{
layerId = m003;
shapes = (
{
closed = 1;
nodes = (
(481,-8,o),
(522,178,o),
(522,350,cs),
(522,519,o),
(481,706,o),
(295,706,cs),
(101,706,o),
(69,508,o),
(69,351,cs),
(69,190,o),
(103,-8,o),
(297,-8,cs)
);
},
{
closed = 1;
nodes = (
(183,74,o),
(155,204,o),
(155,348,cs),
(155,498,o),
(183,625,o),
(295,625,cs),
(400,625,o),
(436,508,o),
(436,347,cs),
(436,193,o),
(401,74,o),
(297,74,cs)
);
}
);
width = 591;
}
);
note = zero;
},
{
color = 1;
glyphname = one.lf;
kernLeft = one;
kernRight = one;
lastChange = "2021-11-14 09:56:48 +0000";
layers = (
{
layerId = "F91D9E91-C1BC-4259-B0D8-112C0CBA2B8E";
shapes = (
{
closed = 1;
nodes = (
(230,0,l),
(230,697,l),
(210,697,l),
(210,622,ls),
(210,592,o),
(194,582,o),
(165,582,cs),
(23,582,l),
(23,564,l),
(220,564,l),
(210,578,l),
(210,0,l)
);
}
);
width = 310;
},
{
layerId = "957254E3-B7AD-4837-9092-D4428001DE8E";
shapes = (
{
closed = 1;
nodes = (
(345,0,l),
(345,697,l),
(194,697,l),
(194,665,ls),
(194,609,o),
(167,590,o),
(117,590,cs),
(18,590,l),
(18,471,l),
(237,471,l),
(194,544,l),
(194,0,l)
);
}
);
width = 405;
},
{
layerId = m003;
shapes = (
{
closed = 1;
nodes = (
(308,0,l),
(308,697,l),
(223,697,l),
(223,644,ls),
(223,601,o),
(202,586,o),
(162,586,cs),
(42,586,l),
(42,518,l),
(250,518,l),
(223,562,l),
(223,0,l)
);
}
);
width = 389;
}
);
note = one;
},
{
color = 1;
glyphname = two.lf;
kernLeft = two;
kernRight = two;
lastChange = "2021-11-14 09:56:48 +0000";
layers = (
{
layerId = "F91D9E91-C1BC-4259-B0D8-112C0CBA2B8E";
shapes = (
{
closed = 1;
nodes = (
(493,0,l),
(493,19,l),
(75,19,l),
(72,22,l),
(225,145,o),
(464,299,o),
(464,507,cs),
(464,627,o),
(388,702,o),
(267,702,cs),
(135,702,o),
(61,618,o),
(61,479,c),
(81,479,l),
(81,607,o),
(148,683,o),
(267,683,cs),
(378,683,o),
(444,615,o),
(444,506,cs),
(444,302,o),
(198,150,o),
(54,30,c),
(54,0,l)
);
}
);
width = 545;
},
{
layerId = "957254E3-B7AD-4837-9092-D4428001DE8E";
shapes = (
{
closed = 1;
nodes = (
(542,0,l),
(542,140,l),
(210,140,l),
(170,76,l),
(384,163,o),
(515,310,o),
(515,476,cs),
(515,614,o),
(420,705,o),
(290,705,cs),
(128,705,o),
(41,566,o),
(41,444,c),
(189,432,l),
(193,486,o),
(210,559,o),
(286,559,cs),
(343,559,o),
(365,519,o),
(365,471,cs),
(365,322,o),
(149,179,o),
(50,110,c),
(50,0,l)
);
}
);
width = 585;
},
{
layerId = m003;
shapes = (
{
closed = 1;
nodes = (
(524,0,l),
(524,79,l),
(148,79,l),
(127,49,l),
(309,153,o),
(496,304,o),
(496,492,cs),
(496,620,o),
(410,704,o),
(285,704,cs),
(138,704,o),
(58,592,o),
(58,462,c),
(140,456,l),
(143,551,o),
(188,622,o),
(283,622,cs),
(367,622,o),
(412,568,o),
(412,489,cs),
(412,311,o),
(177,162,o),
(58,70,c),
(58,0,l)
);
}
);
width = 582;
}
);
note = two;
},
{
color = 1;
glyphname = three.lf;
kernLeft = three;
kernRight = three;
lastChange = "2021-11-14 09:56:48 +0000";
layers = (
{
layerId = "F91D9E91-C1BC-4259-B0D8-112C0CBA2B8E";
shapes = (
{
closed = 1;
nodes = (
(423,-5,o),
(516,74,o),
(516,192,cs),
(516,320,o),
(402,364,o),
(313,371,c),
(381,379,o),
(480,415,o),
(480,532,cs),
(480,631,o),
(397,702,o),
(285,702,cs),
(169,702,o),
(88,630,o),
(88,523,c),
(108,522,l),
(108,618,o),
(179,683,o),
(285,683,cs),
(386,683,o),
(460,619,o),
(460,531,cs),
(460,405,o),
(334,377,o),
(241,378,c),
(241,361,l),
(361,360,o),
(497,328,o),
(497,192,cs),
(497,85,o),
(412,14,o),
(287,14,cs),
(157,14,o),
(75,85,o),
(75,198,c),
(55,197,l),
(55,74,o),
(146,-5,o),
(287,-5,cs)
);
}
);
width = 579;
},
{
layerId = "957254E3-B7AD-4837-9092-D4428001DE8E";
shapes = (
{
closed = 1;
nodes = (
(464,-10,o),
(572,83,o),
(572,219,cs),
(572,294,o),
(534,351,o),
(464,381,c),
(507,409,o),
(531,456,o),
(531,512,cs),
(531,627,o),
(440,707,o),
(309,707,cs),
(169,707,o),
(68,617,o),
(68,493,c),
(217,483,l),
(218,533,o),
(250,563,o),
(304,563,cs),
(352,563,o),
(380,539,o),
(380,496,cs),
(380,446,o),
(344,422,o),
(272,422,c),
(272,304,l),
(376,304,o),
(421,279,o),
(421,220,cs),
(421,165,o),
(381,134,o),
(310,134,cs),
(236,134,o),
(188,174,o),
(188,236,c),
(38,227,l),
(38,85,o),
(145,-10,o),
(305,-10,cs)
);
}
);
width = 615;
},
{
layerId = m003;
shapes = (
{
closed = 1;
nodes = (
(453,-8,o),
(554,79,o),
(554,205,cs),
(554,307,o),
(478,358,o),
(398,376,c),
(463,397,o),
(516,443,o),
(516,522,cs),
(516,629,o),
(429,705,o),
(308,705,cs),
(180,705,o),
(89,624,o),
(89,508,c),
(172,503,l),
(173,574,o),
(222,624,o),
(305,624,cs),
(380,624,o),
(431,580,o),
(431,514,cs),
(431,426,o),
(350,399,o),
(267,400,c),
(267,333,l),
(379,333,o),
(470,304,o),
(470,206,cs),
(470,125,o),
(408,74,o),
(309,74,cs),
(207,74,o),
(141,129,o),
(141,217,c),
(57,212,l),
(57,80,o),
(156,-8,o),
(306,-8,cs)
);
}
);
width = 616;
}
);
note = three;
},
{
color = 1;
glyphname = four.lf;
kernLeft = four;
kernRight = four;
lastChange = "2021-11-14 09:56:48 +0000";
layers = (
{
layerId = "F91D9E91-C1BC-4259-B0D8-112C0CBA2B8E";
shapes = (
{
closed = 1;
nodes = (
(430,0,l),
(430,169,l),
(546,169,l),
(546,188,l),
(430,188,l),
(430,697,l),
(404,697,l),
(40,190,l),
(40,169,l),
(410,169,l),
(410,0,l)
);
},
{
closed = 1;
nodes = (
(410,675,l),
(410,676,l),
(410,188,l),
(54,188,l),
(56,180,l)
);
}
);
width = 586;
},
{
layerId = "957254E3-B7AD-4837-9092-D4428001DE8E";
shapes = (
{
closed = 1;
nodes = (
(474,0,l),
(474,163,l),
(584,163,l),
(584,303,l),
(474,303,l),
(474,697,l),
(344,697,l),
(31,278,l),
(31,163,l),
(323,163,l),
(323,0,l)
);
},
{
closed = 1;
nodes = (
(344,532,l),
(323,556,l),
(323,303,l),
(146,303,l),
(145,251,l)
);
}
);
width = 617;
},
{
layerId = m003;
shapes = (
{
closed = 1;
nodes = (
(462,0,l),
(462,166,l),
(574,166,l),
(574,245,l),
(462,245,l),
(462,697,l),
(384,697,l),
(45,233,l),
(45,166,l),
(377,166,l),
(377,0,l)
);
},
{
closed = 1;
nodes = (
(387,595,l),
(377,602,l),
(377,245,l),
(109,245,l),
(116,215,l)
);
}
);
width = 622;
}
);
note = four;
},
{
color = 1;
glyphname = five.lf;
kernLeft = five;
kernRight = five;
lastChange = "2021-11-14 09:56:48 +0000";
layers = (
{
layerId = "F91D9E91-C1BC-4259-B0D8-112C0CBA2B8E";
shapes = (
{
closed = 1;
nodes = (
(413,-5,o),
(511,99,o),
(511,229,cs),
(511,358,o),
(421,455,o),
(297,455,cs),
(226,455,o),
(157,420,o),
(107,354,c),
(106,357,l),
(161,686,l),
(150,678,l),
(477,678,l),
(477,697,l),
(143,697,l),
(83,345,l),
(112,334,l),
(160,402,o),
(227,434,o),
(296,434,cs),
(409,434,o),
(491,348,o),
(491,229,cs),
(491,109,o),
(402,14,o),
(283,14,cs),
(181,14,o),
(102,83,o),
(80,188,c),
(60,185,l),
(85,69,o),
(172,-5,o),
(283,-5,cs)
);
}
);
width = 570;
},
{
layerId = "957254E3-B7AD-4837-9092-D4428001DE8E";
shapes = (
{
closed = 1;
nodes = (
(457,-11,o),
(565,114,o),
(565,247,cs),
(565,373,o),
(467,487,o),
(321,487,cs),
(282,487,o),
(228,481,o),
(176,425,c),
(226,411,l),
(267,620,l),
(187,557,l),
(535,557,l),
(535,697,l),
(131,697,l),
(61,326,l),
(200,292,l),
(216,319,o),
(246,346,o),
(300,346,cs),
(380,346,o),
(405,296,o),
(405,247,cs),
(405,195,o),
(379,133,o),
(300,133,cs),
(223,133,o),
(191,190,o),
(189,231,c),
(41,206,l),
(56,86,o),
(164,-11,o),
(302,-11,cs)
);
}
);
width = 610;
},
{
layerId = m003;
shapes = (
{
closed = 1;
nodes = (
(444,-8,o),
(547,106,o),
(547,239,cs),
(547,365,o),
(453,471,o),
(319,471,cs),
(261,471,o),
(202,450,o),
(150,389,c),
(174,384,l),
(223,654,l),
(178,618,l),
(515,618,l),
(515,697,l),
(147,697,l),
(82,336,l),
(165,313,l),
(199,363,o),
(248,391,o),
(307,391,cs),
(404,391,o),
(458,323,o),
(458,239,cs),
(458,152,o),
(400,73,o),
(301,73,cs),
(214,73,o),
(156,133,o),
(143,210,c),
(60,195,l),
(81,76,o),
(179,-8,o),
(302,-8,cs)
);
}
);
width = 609;
}
);
note = five;
},
{
color = 1;
glyphname = seven.lf;
kernLeft = seven;
kernRight = seven;
lastChange = "2021-11-14 09:56:48 +0000";
layers = (
{
layerId = "F91D9E91-C1BC-4259-B0D8-112C0CBA2B8E";
shapes = (
{
closed = 1;
nodes = (
(154,0,l),
(522,673,l),
(522,697,l),
(27,697,l),
(27,678,l),
(505,678,l),
(502,677,l),
(132,0,l)
);
}
);
width = 558;
},
{
layerId = "957254E3-B7AD-4837-9092-D4428001DE8E";
shapes = (
{
closed = 1;
nodes = (
(243,0,l),
(533,589,l),
(533,697,l),
(28,697,l),
(28,557,l),
(426,557,l),
(383,617,l),
(75,0,l)
);
}
);
width = 560;
},
{
layerId = m003;
shapes = (
{
closed = 1;
nodes = (
(208,0,l),
(538,632,l),
(538,697,l),
(38,697,l),
(38,618,l),
(477,618,l),
(454,648,l),
(114,0,l)
);
}
);
width = 579;
}
);
note = seven;
},
{
color = 1;
glyphname = eight.lf;
kernLeft = eight;
kernRight = three;
lastChange = "2021-11-14 09:56:48 +0000";
layers = (
{
layerId = "F91D9E91-C1BC-4259-B0D8-112C0CBA2B8E";
shapes = (
{
closed = 1;
nodes = (
(382,-5,o),
(489,60,o),
(489,191,cs),
(489,286,o),
(429,359,o),
(334,379,c),
(403,398,o),
(449,457,o),
(449,533,cs),
(449,633,o),
(377,702,o),
(278,702,cs),
(195,702,o),
(106,644,o),
(106,540,cs),
(106,459,o),
(151,399,o),
(219,379,c),
(124,360,o),
(62,288,o),
(62,191,cs),
(62,60,o),
(171,-5,o),
(276,-5,cs)
);
},
{
closed = 1;
nodes = (
(178,14,o),
(82,73,o),
(82,193,cs),
(82,297,o),
(162,369,o),
(276,369,cs),
(389,369,o),
(469,297,o),
(469,193,cs),
(469,73,o),
(376,14,o),
(276,14,cs)
);
},
{
closed = 1;
nodes = (
(188,386,o),
(126,447,o),
(126,539,cs),
(126,632,o),
(202,683,o),
(278,683,cs),
(368,683,o),
(429,621,o),
(429,532,cs),
(429,447,o),
(366,386,o),
(279,386,cs)
);
}
);
width = 553;
},
{
layerId = "957254E3-B7AD-4837-9092-D4428001DE8E";
shapes = (
{
closed = 1;
nodes = (
(459,-11,o),
(587,62,o),
(587,211,cs),
(587,279,o),
(562,338,o),
(503,379,c),
(536,409,o),
(554,446,o),
(554,500,cs),
(554,630,o),
(442,708,o),
(316,708,cs),
(190,708,o),
(76,630,o),
(76,500,cs),
(76,446,o),
(96,409,o),
(129,379,c),
(70,338,o),
(45,279,o),
(45,211,cs),
(45,62,o),
(173,-11,o),
(316,-11,cs)
);
},
{
closed = 1;
nodes = (
(245,132,o),
(196,164,o),
(196,226,cs),
(196,288,o),
(246,319,o),
(316,319,cs),
(386,319,o),
(436,288,o),
(436,226,cs),
(436,164,o),
(387,132,o),
(316,132,cs)
);
},
{
closed = 1;
nodes = (
(263,421,o),
(227,447,o),
(227,490,cs),
(227,535,o),
(260,564,o),
(316,564,cs),
(372,564,o),
(405,535,o),
(405,490,cs),
(405,447,o),
(369,421,o),
(316,421,cs)
);
}
);
width = 632;
},
{
layerId = m003;
shapes = (
{
closed = 1;
nodes = (
(430,-8,o),
(547,62,o),
(547,201,cs),
(547,283,o),
(503,349,o),
(426,379,c),
(478,404,o),
(510,452,o),
(510,517,cs),
(510,632,o),
(418,705,o),
(306,705,cs),
(202,705,o),
(100,637,o),
(100,520,cs),
(100,454,o),
(133,404,o),
(184,379,c),
(107,349,o),
(63,284,o),
(63,201,cs),
(63,62,o),
(181,-8,o),
(305,-8,cs)
);
},
{
closed = 1;
nodes = (
(221,72,o),
(147,118,o),
(147,209,cs),
(147,293,o),
(213,345,o),
(305,345,cs),
(397,345,o),
(462,292,o),
(462,209,cs),
(462,118,o),
(390,72,o),
(305,72,cs)
);
},
{
closed = 1;
nodes = (
(235,403,o),
(185,447,o),
(185,515,cs),
(185,584,o),
(240,625,o),
(306,625,cs),
(379,625,o),
(426,579,o),
(426,511,cs),
(426,447,o),
(376,403,o),
(307,403,cs)
);
}
);
width = 610;
}
);
note = eight;
},
{
color = 1;
glyphname = nine.lf;
kernLeft = nine;
kernRight = nine;
lastChange = "2021-11-14 09:56:48 +0000";
layers = (
{
layerId = "F91D9E91-C1BC-4259-B0D8-112C0CBA2B8E";
shapes = (
{
closed = 1;
nodes = (
(250,0,l),
(461,363,ls),
(480,396,o),
(496,432,o),
(496,483,cs),
(496,604,o),
(396,702,o),
(274,702,cs),
(152,702,o),
(53,603,o),
(53,482,cs),
(53,361,o),
(153,262,o),
(273,262,cs),
(327,262,o),
(377,283,o),
(416,317,c),
(414,321,l),
(229,0,l)
);
},
{
closed = 1;
nodes = (
(164,280,o),
(73,371,o),
(73,481,cs),
(73,593,o),
(164,683,o),
(274,683,cs),
(385,683,o),
(475,594,o),
(475,482,cs),
(475,370,o),
(383,280,o),
(274,280,cs)
);
}
);
width = 550;
},
{
layerId = "957254E3-B7AD-4837-9092-D4428001DE8E";
shapes = (
{
closed = 1;
nodes = (
(318,0,l),
(525,326,ls),
(551,367,o),
(565,414,o),
(565,460,cs),
(565,606,o),
(445,708,o),
(300,708,cs),
(157,708,o),
(37,607,o),
(37,459,cs),
(37,323,o),
(141,220,o),
(279,220,cs),
(296,220,o),
(314,222,o),
(332,225,c),
(313,249,l),
(144,0,l)
);
},
{
closed = 1;
nodes = (
(238,353,o),
(190,392,o),
(190,459,cs),
(190,526,o),
(239,564,o),
(300,564,cs),
(362,564,o),
(411,526,o),
(411,459,cs),
(411,391,o),
(362,353,o),
(300,353,cs)
);
}
);
width = 601;
},
{
layerId = m003;
shapes = (
{
closed = 1;
nodes = (
(292,0,l),
(501,345,ls),
(524,383,o),
(539,427,o),
(539,472,cs),
(539,605,o),
(429,705,o),
(296,705,cs),
(163,705,o),
(54,605,o),
(54,471,cs),
(54,343,o),
(155,241,o),
(285,241,cs),
(318,241,o),
(353,252,o),
(383,272,c),
(373,285,l),
(195,0,l)
);
},
{
closed = 1;
nodes = (
(209,316,o),
(140,382,o),
(140,470,cs),
(140,560,o),
(210,625,o),
(296,625,cs),
(382,625,o),
(452,560,o),
(452,471,cs),
(452,381,o),
(381,316,o),
(296,316,cs)
);
}
);
width = 594;
}
);
note = nine;
},
{
color = 1;
glyphname = zero.dnom;
kernLeft = zero;
kernRight = zero;
lastChange = "2021-11-14 09:56:48 +0000";
layers = (
{
layerId = "F91D9E91-C1BC-4259-B0D8-112C0CBA2B8E";
shapes = (
{
closed = 1;
nodes = (
(253,-4,o),
(289,92,o),
(289,209,cs),
(289,327,o),
(252,423,o),
(163,423,cs),
(68,423,o),
(42,312,o),
(42,210,cs),
(42,107,o),
(69,-4,o),
(167,-4,cs)
);
},
{
closed = 1;
nodes = (
(86,14,o),
(59,107,o),
(59,209,cs),
(59,312,o),
(86,405,o),
(163,405,cs),
(236,405,o),
(270,325,o),
(270,208,cs),
(270,95,o),
(237,14,o),
(167,14,cs)
);
}
);
width = 331;
},
{
layerId = "957254E3-B7AD-4837-9092-D4428001DE8E";
shapes = (
{
closed = 1;
nodes = (
(329,-6,o),
(338,132,o),
(338,212,cs),
(338,284,o),
(332,425,o),
(183,425,cs),
(36,425,o),
(27,289,o),
(27,212,cs),
(27,130,o),
(37,-6,o),
(182,-6,cs)
);
},
{
closed = 1;
nodes = (
(133,88,o),
(130,146,o),
(130,209,cs),
(130,275,o),
(133,329,o),
(183,329,cs),
(233,329,o),
(237,275,o),
(237,209,cs),
(237,147,o),
(233,88,o),
(182,88,cs)
);
}
);
width = 365;
},
{
layerId = m003;
shapes = (
{
closed = 1;
nodes = (
(296,-5,o),
(317,112,o),
(317,210,cs),
(317,307,o),
(296,424,o),
(178,424,cs),
(57,424,o),
(39,302,o),
(39,211,cs),
(39,117,o),
(58,-5,o),
(179,-5,cs)
);
},
{
closed = 1;
nodes = (
(114,51,o),
(99,126,o),
(99,209,cs),
(99,295,o),
(114,368,o),
(178,368,cs),
(239,368,o),
(258,300,o),
(258,208,cs),
(258,121,o),
(240,51,o),
(179,51,cs)
);
}
);
width = 356;
}
);
note = zero;
},
{
color = 1;
glyphname = one.dnom;
kernLeft = one;
kernRight = one;
lastChange = "2021-11-14 09:56:48 +0000";
layers = (
{
layerId = "F91D9E91-C1BC-4259-B0D8-112C0CBA2B8E";
shapes = (
{
closed = 1;
nodes = (
(147,0,l),
(147,418,l),
(130,418,l),
(130,375,ls),
(130,357,o),
(117,350,o),
(100,350,cs),
(17,350,l),
(17,334,l),
(137,334,l),
(130,346,l),
(130,0,l)
);
}
);
width = 227;
},
{
layerId = "957254E3-B7AD-4837-9092-D4428001DE8E";
shapes = (
{
closed = 1;
nodes = (
(214,0,l),
(214,418,l),
(114,418,l),
(114,402,ls),
(114,366,o),
(97,355,o),
(66,355,cs),
(10,355,l),
(10,276,l),
(142,276,l),
(114,323,l),
(114,0,l)
);
}
);
width = 274;
},
{
layerId = m003;
shapes = (
{
closed = 1;
nodes = (
(189,0,l),
(189,418,l),
(130,418,l),
(130,389,ls),
(130,362,o),
(116,352,o),
(91,352,cs),
(22,352,l),
(22,305,l),
(148,305,l),
(130,335,l),
(130,0,l)
);
}
);
width = 269;
}
);
note = one;
},
{
color = 1;
glyphname = two.dnom;
kernLeft = two;
kernRight = two;
lastChange = "2021-11-14 09:56:48 +0000";
layers = (
{
layerId = "F91D9E91-C1BC-4259-B0D8-112C0CBA2B8E";
shapes = (
{
closed = 1;
nodes = (
(299,0,l),
(299,17,l),
(52,17,l),
(49,15,l),
(142,87,o),
(281,180,o),
(281,302,cs),
(281,375,o),
(234,421,o),
(162,421,cs),
(81,421,o),
(37,366,o),
(37,286,c),
(54,285,l),
(54,356,o),
(89,404,o),
(162,404,cs),
(225,404,o),
(264,365,o),
(264,301,cs),
(264,181,o),
(115,90,o),
(33,20,c),
(33,0,l)
);
}
);
width = 331;
},
{
layerId = "957254E3-B7AD-4837-9092-D4428001DE8E";
shapes = (
{
closed = 1;
nodes = (
(328,0,l),
(328,93,l),
(135,93,l),
(108,50,l),
(237,98,o),
(312,184,o),
(312,284,cs),
(312,367,o),
(253,423,o),
(175,423,cs),
(76,423,o),
(23,336,o),
(23,263,c),
(120,256,l),
(123,283,o),
(130,326,o),
(173,326,cs),
(203,326,o),
(213,304,o),
(213,281,cs),
(213,195,o),
(85,109,o),
(29,72,c),
(29,0,l)
);
}
);
width = 353;
},
{
layerId = m003;
shapes = (
{
closed = 1;
nodes = (
(316,0,l),
(316,54,l),
(96,54,l),
(81,32,l),
(194,93,o),
(300,183,o),
(300,293,cs),
(300,371,o),
(247,422,o),
(172,422,cs),
(82,422,o),
(33,352,o),
(33,275,c),
(90,271,l),
(92,323,o),
(116,365,o),
(170,365,cs),
(217,365,o),
(241,335,o),
(241,291,cs),
(241,189,o),
(103,99,o),
(34,47,c),
(34,0,l)
);
}
);
width = 349;
}
);
note = two;
},
{
color = 1;
glyphname = three.dnom;
kernLeft = three;
kernRight = three;
lastChange = "2021-11-14 09:56:48 +0000";
layers = (
{
layerId = "F91D9E91-C1BC-4259-B0D8-112C0CBA2B8E";
shapes = (
{
closed = 1;
nodes = (
(255,-4,o),
(313,46,o),
(313,117,cs),
(313,188,o),
(250,218,o),
(194,222,c),
(252,232,o),
(291,263,o),
(291,318,cs),
(291,378,o),
(239,422,o),
(173,422,cs),
(102,422,o),
(53,376,o),
(53,312,c),
(70,312,l),
(71,374,o),
(119,404,o),
(172,404,cs),
(231,404,o),
(274,367,o),
(274,316,cs),
(274,247,o),
(203,228,o),
(147,229,c),
(147,215,l),
(242,213,o),
(296,181,o),
(296,117,cs),
(296,55,o),
(246,14,o),
(174,14,cs),
(100,14,o),
(50,54,o),
(50,120,c),
(33,120,l),
(33,46,o),
(88,-4,o),
(173,-4,cs)
);
}
);
width = 350;
},
{
layerId = "957254E3-B7AD-4837-9092-D4428001DE8E";
shapes = (
{
closed = 1;
nodes = (
(280,-6,o),
(346,51,o),
(346,133,cs),
(346,175,o),
(328,210,o),
(288,230,c),
(309,245,o),
(322,273,o),
(322,306,cs),
(322,376,o),
(265,424,o),
(186,424,cs),
(100,424,o),
(39,369,o),
(39,294,c),
(137,287,l),
(138,314,o),
(154,330,o),
(182,330,cs),
(208,330,o),
(221,317,o),
(221,296,cs),
(221,271,o),
(206,256,o),
(164,256,c),
(164,178,l),
(227,178,o),
(247,163,o),
(247,134,cs),
(247,105,o),
(226,88,o),
(187,88,cs),
(147,88,o),
(120,110,o),
(120,145,c),
(21,138,l),
(21,52,o),
(86,-6,o),
(183,-6,cs)
);
}
);
width = 370;
},
{
layerId = m003;
shapes = (
{
closed = 1;
nodes = (
(273,-5,o),
(334,48,o),
(334,125,cs),
(334,182,o),
(294,214,o),
(247,227,c),
(285,240,o),
(312,269,o),
(312,312,cs),
(312,377,o),
(258,423,o),
(185,423,cs),
(107,423,o),
(51,373,o),
(51,303,c),
(109,300,l),
(110,339,o),
(136,367,o),
(183,367,cs),
(225,367,o),
(253,343,o),
(253,306,cs),
(253,258,o),
(209,242,o),
(161,243,c),
(161,196,l),
(227,196,o),
(276,179,o),
(276,126,cs),
(276,80,o),
(242,51,o),
(185,51,cs),
(129,51,o),
(91,82,o),
(91,132,c),
(32,129,l),
(32,49,o),
(93,-5,o),
(184,-5,cs)
);
}
);
width = 370;
}
);
note = three;
},
{
color = 1;
glyphname = four.dnom;
kernLeft = four;
kernRight = four;
lastChange = "2021-11-14 09:56:48 +0000";
layers = (
{
layerId = "F91D9E91-C1BC-4259-B0D8-112C0CBA2B8E";
shapes = (
{
closed = 1;
nodes = (
(261,0,l),
(261,101,l),
(330,101,l),
(330,117,l),
(261,117,l),
(261,418,l),
(240,418,l),
(24,117,l),
(24,101,l),
(243,101,l),
(243,0,l)
);
},
{
closed = 1;
nodes = (
(244,399,l),
(243,398,l),
(243,117,l),
(37,117,l),
(39,111,l)
);
}
);
width = 355;
},
{
layerId = "957254E3-B7AD-4837-9092-D4428001DE8E";
shapes = (
{
closed = 1;
nodes = (
(287,0,l),
(287,98,l),
(353,98,l),
(353,175,l),
(287,175,l),
(287,418,l),
(197,418,l),
(21,179,l),
(21,98,l),
(196,98,l),
(196,0,l)
);
},
{
closed = 1;
nodes = (
(209,333,l),
(199,335,l),
(199,175,l),
(70,175,l),
(78,157,l)
);
}
);
width = 371;
},
{
layerId = m003;
shapes = (
{
closed = 1;
nodes = (
(278,0,l),
(278,100,l),
(345,100,l),
(345,154,l),
(278,154,l),
(278,418,l),
(225,418,l),
(25,145,l),
(25,100,l),
(219,100,l),
(219,0,l)
);
},
{
closed = 1;
nodes = (
(226,347,l),
(219,352,l),
(219,154,l),
(69,154,l),
(75,133,l)
);
}
);
width = 372;
}
);
note = four;
},
{
color = 1;
glyphname = five.dnom;
kernLeft = five;
kernRight = five;
lastChange = "2021-11-14 09:56:48 +0000";
layers = (
{
layerId = "F91D9E91-C1BC-4259-B0D8-112C0CBA2B8E";
shapes = (
{
closed = 1;
nodes = (
(250,-4,o),
(311,60,o),
(311,138,cs),
(311,214,o),
(256,275,o),
(181,275,cs),
(142,275,o),
(100,256,o),
(68,215,c),
(71,216,l),
(103,409,l),
(93,401,l),
(291,401,l),
(291,418,l),
(87,418,l),
(51,207,l),
(72,198,l),
(98,236,o),
(139,258,o),
(180,258,cs),
(245,258,o),
(293,206,o),
(293,138,cs),
(293,71,o),
(241,14,o),
(172,14,cs),
(113,14,o),
(67,53,o),
(55,115,c),
(37,112,l),
(52,44,o),
(104,-4,o),
(172,-4,cs)
);
}
);
width = 347;
},
{
layerId = "957254E3-B7AD-4837-9092-D4428001DE8E";
shapes = (
{
closed = 1;
nodes = (
(276,-7,o),
(342,69,o),
(342,149,cs),
(342,225,o),
(282,294,o),
(194,294,cs),
(171,294,o),
(141,293,o),
(110,260,c),
(144,251,l),
(167,367,l),
(114,325,l),
(324,325,l),
(324,418,l),
(78,418,l),
(35,195,l),
(126,172,l),
(133,185,o),
(149,202,o),
(180,202,cs),
(225,202,o),
(236,174,o),
(236,149,cs),
(236,123,o),
(224,88,o),
(180,88,cs),
(138,88,o),
(121,119,o),
(120,142,c),
(23,126,l),
(31,53,o),
(98,-7,o),
(182,-7,cs)
);
}
);
width = 368;
},
{
layerId = m003;
shapes = (
{
closed = 1;
nodes = (
(268,-5,o),
(330,65,o),
(330,144,cs),
(330,220,o),
(273,285,o),
(192,285,cs),
(161,285,o),
(124,274,o),
(93,237,c),
(111,233,l),
(139,388,l),
(108,364,l),
(312,364,l),
(312,418,l),
(86,418,l),
(47,201,l),
(103,185,l),
(121,213,o),
(149,230,o),
(183,230,cs),
(239,230,o),
(269,191,o),
(269,144,cs),
(269,96,o),
(238,51,o),
(181,51,cs),
(129,51,o),
(98,87,o),
(92,129,c),
(34,118,l),
(46,47,o),
(106,-5,o),
(181,-5,cs)
);
}
);
width = 365;
}
);
note = five;
},
{
color = 1;
glyphname = seven.dnom;
kernLeft = seven;
kernRight = seven;
lastChange = "2021-11-14 09:56:48 +0000";
layers = (
{
layerId = "F91D9E91-C1BC-4259-B0D8-112C0CBA2B8E";
shapes = (
{
closed = 1;
nodes = (
(98,0,l),
(315,401,l),
(315,418,l),
(19,418,l),
(19,401,l),
(302,401,l),
(298,404,l),
(79,0,l)
);
}
);
width = 337;
},
{
layerId = "957254E3-B7AD-4837-9092-D4428001DE8E";
shapes = (
{
closed = 1;
nodes = (
(152,0,l),
(321,347,l),
(321,418,l),
(17,418,l),
(17,325,l),
(250,325,l),
(222,366,l),
(41,0,l)
);
}
);
width = 336;
},
{
layerId = m003;
shapes = (
{
closed = 1;
nodes = (
(129,0,l),
(323,374,l),
(323,418,l),
(22,418,l),
(22,364,l),
(280,364,l),
(264,385,l),
(64,0,l)
);
}
);
width = 345;
}
);
note = seven;
},
{
color = 1;
glyphname = eight.dnom;
kernLeft = eight;
kernRight = three;
lastChange = "2021-11-14 09:56:48 +0000";
layers = (
{
layerId = "F91D9E91-C1BC-4259-B0D8-112C0CBA2B8E";
shapes = (
{
closed = 1;
nodes = (
(232,-4,o),
(298,36,o),
(298,116,cs),
(298,174,o),
(261,215,o),
(208,227,c),
(252,241,o),
(275,279,o),
(275,317,cs),
(275,379,o),
(228,422,o),
(168,422,cs),
(117,422,o),
(63,384,o),
(63,322,cs),
(63,275,o),
(90,239,o),
(128,227,c),
(75,215,o),
(37,173,o),
(37,116,cs),
(37,36,o),
(104,-4,o),
(167,-4,cs)
);
},
{
closed = 1;
nodes = (
(112,13,o),
(54,49,o),
(54,118,cs),
(54,178,o),
(103,219,o),
(167,219,cs),
(231,219,o),
(281,179,o),
(281,118,cs),
(281,49,o),
(225,13,o),
(167,13,cs)
);
},
{
closed = 1;
nodes = (
(119,233,o),
(80,268,o),
(80,321,cs),
(80,374,o),
(126,405,o),
(168,405,cs),
(220,405,o),
(257,369,o),
(257,317,cs),
(257,268,o),
(219,233,o),
(169,233,cs)
);
}
);
width = 337;
},
{
layerId = "957254E3-B7AD-4837-9092-D4428001DE8E";
shapes = (
{
closed = 1;
nodes = (
(279,-7,o),
(358,37,o),
(358,128,cs),
(358,162,o),
(348,200,o),
(313,227,c),
(331,246,o),
(339,268,o),
(339,298,cs),
(339,378,o),
(268,425,o),
(192,425,cs),
(113,425,o),
(43,377,o),
(43,297,cs),
(43,265,o),
(55,244,o),
(70,227,c),
(37,201,o),
(25,166,o),
(25,128,cs),
(25,37,o),
(104,-7,o),
(192,-7,cs)
);
},
{
closed = 1;
nodes = (
(152,87,o),
(125,104,o),
(125,138,cs),
(125,172,o),
(153,187,o),
(192,187,cs),
(231,187,o),
(259,172,o),
(259,138,cs),
(259,104,o),
(231,87,o),
(192,87,cs)
);
},
{
closed = 1;
nodes = (
(163,256,o),
(142,268,o),
(142,291,cs),
(142,314,o),
(159,329,o),
(192,329,cs),
(222,329,o),
(240,315,o),
(240,291,cs),
(240,268,o),
(220,256,o),
(192,256,cs)
);
}
);
width = 383;
},
{
layerId = m003;
shapes = (
{
closed = 1;
nodes = (
(261,-5,o),
(333,37,o),
(333,122,cs),
(333,170,o),
(309,208,o),
(265,227,c),
(293,242,o),
(311,269,o),
(311,308,cs),
(311,379,o),
(253,423,o),
(185,423,cs),
(120,423,o),
(57,381,o),
(57,310,cs),
(57,270,o),
(76,243,o),
(104,227,c),
(60,208,o),
(36,169,o),
(36,122,cs),
(36,37,o),
(109,-5,o),
(185,-5,cs)
);
},
{
closed = 1;
nodes = (
(136,50,o),
(94,77,o),
(94,127,cs),
(94,175,o),
(132,204,o),
(185,204,cs),
(237,204,o),
(274,174,o),
(274,127,cs),
(274,77,o),
(234,50,o),
(185,50,cs)
);
},
{
closed = 1;
nodes = (
(145,244,o),
(116,268,o),
(116,306,cs),
(116,344,o),
(147,368,o),
(185,368,cs),
(226,368,o),
(254,342,o),
(254,304,cs),
(254,268,o),
(225,244,o),
(185,244,cs)
);
}
);
width = 369;
}
);
note = eight;
},
{
color = 1;
glyphname = nine.dnom;
kernLeft = nine;
kernRight = nine;
lastChange = "2021-11-14 09:56:48 +0000";
layers = (
{
layerId = "F91D9E91-C1BC-4259-B0D8-112C0CBA2B8E";
shapes = (
{
closed = 1;
nodes = (
(154,0,l),
(280,217,ls),
(291,236,o),
(301,260,o),
(301,288,cs),
(301,362,o),
(239,422,o),
(168,422,cs),
(94,422,o),
(33,360,o),
(33,288,cs),
(33,217,o),
(94,155,o),
(167,155,cs),
(197,155,o),
(227,169,o),
(248,186,c),
(247,190,l),
(135,0,l)
);
},
{
closed = 1;
nodes = (
(104,171,o),
(51,224,o),
(51,287,cs),
(51,351,o),
(104,405,o),
(168,405,cs),
(231,405,o),
(284,352,o),
(284,288,cs),
(284,224,o),
(230,171,o),
(168,171,cs)
);
}
);
width = 335;
},
{
layerId = "957254E3-B7AD-4837-9092-D4428001DE8E";
shapes = (
{
closed = 1;
nodes = (
(195,0,l),
(319,193,ls),
(335,218,o),
(343,246,o),
(343,274,cs),
(343,364,o),
(270,425,o),
(181,425,cs),
(94,425,o),
(20,364,o),
(20,273,cs),
(20,191,o),
(84,129,o),
(166,129,cs),
(175,129,o),
(183,129,o),
(192,129,c),
(180,144,l),
(79,0,l)
);
},
{
closed = 1;
nodes = (
(148,217,o),
(121,236,o),
(121,273,cs),
(121,311,o),
(147,329,o),
(181,329,cs),
(214,329,o),
(242,311,o),
(242,273,cs),
(242,237,o),
(215,217,o),
(181,217,cs)
);
}
);
width = 363;
},
{
layerId = m003;
shapes = (
{
closed = 1;
nodes = (
(178,0,l),
(304,205,ls),
(318,228,o),
(326,255,o),
(326,282,cs),
(326,363,o),
(259,423,o),
(178,423,cs),
(97,423,o),
(30,363,o),
(30,281,cs),
(30,204,o),
(91,142,o),
(170,142,cs),
(187,142,o),
(207,147,o),
(224,157,c),
(217,167,l),
(111,0,l)
);
},
{
closed = 1;
nodes = (
(129,194,o),
(90,230,o),
(90,281,cs),
(90,332,o),
(130,368,o),
(178,368,cs),
(226,368,o),
(266,332,o),
(266,281,cs),
(266,230,o),
(226,194,o),
(178,194,cs)
);
}
);
width = 357;
}
);
note = nine;
},
{
color = 1;
glyphname = zero.numr;
kernLeft = zero;
kernRight = zero;
lastChange = "2021-11-14 09:56:48 +0000";
layers = (
{
layerId = "F91D9E91-C1BC-4259-B0D8-112C0CBA2B8E";
shapes = (
{
closed = 1;
nodes = (
(253,275,o),
(289,371,o),
(289,487,cs),
(289,606,o),
(252,701,o),
(163,701,cs),
(68,701,o),
(42,591,o),
(42,488,cs),
(42,386,o),
(69,275,o),
(167,275,cs)
);
},
{
closed = 1;
nodes = (
(86,293,o),
(59,386,o),
(59,488,cs),
(59,591,o),
(86,684,o),
(163,684,cs),
(236,684,o),
(270,604,o),
(270,486,cs),
(270,373,o),
(237,293,o),
(167,293,cs)
);
}
);
width = 331;
},
{
layerId = "957254E3-B7AD-4837-9092-D4428001DE8E";
shapes = (
{
closed = 1;
nodes = (
(329,273,o),
(338,411,o),
(338,492,cs),
(338,563,o),
(332,704,o),
(183,704,cs),
(36,704,o),
(27,566,o),
(27,491,cs),
(27,409,o),
(37,273,o),
(182,273,cs)
);
},
{
closed = 1;
nodes = (
(133,367,o),
(130,425,o),
(130,488,cs),
(130,553,o),
(133,608,o),
(183,608,cs),
(233,608,o),
(237,553,o),
(237,488,cs),
(237,426,o),
(233,367,o),
(182,367,cs)
);
}
);
width = 365;
},
{
layerId = m003;
shapes = (
{
closed = 1;
nodes = (
(296,274,o),
(317,391,o),
(317,489,cs),
(317,586,o),
(296,702,o),
(178,702,cs),
(57,702,o),
(39,580,o),
(39,489,cs),
(39,396,o),
(58,274,o),
(179,274,cs)
);
},
{
closed = 1;
nodes = (
(114,330,o),
(99,405,o),
(99,488,cs),
(99,574,o),
(114,647,o),
(178,647,cs),
(239,647,o),
(258,579,o),
(258,487,cs),
(258,400,o),
(240,330,o),
(179,330,cs)
);
}
);
width = 356;
}
);
note = zero;
},
{
color = 1;
glyphname = one.numr;
kernLeft = one;
kernRight = one;
lastChange = "2021-11-14 09:56:48 +0000";
layers = (
{
layerId = "F91D9E91-C1BC-4259-B0D8-112C0CBA2B8E";
shapes = (
{
closed = 1;
nodes = (
(147,279,l),
(147,697,l),
(130,697,l),
(130,654,ls),
(130,635,o),
(117,628,o),
(100,628,cs),
(17,628,l),
(17,613,l),
(137,613,l),
(130,623,l),
(130,279,l)
);
}
);
width = 247;
},
{
layerId = "957254E3-B7AD-4837-9092-D4428001DE8E";
shapes = (
{
closed = 1;
nodes = (
(214,279,l),
(214,697,l),
(114,697,l),
(114,681,ls),
(114,645,o),
(97,634,o),
(66,634,cs),
(10,634,l),
(10,554,l),
(142,554,l),
(114,603,l),
(114,279,l)
);
}
);
width = 294;
},
{
layerId = m003;
shapes = (
{
closed = 1;
nodes = (
(189,279,l),
(189,697,l),
(130,697,l),
(130,668,ls),
(130,640,o),
(116,631,o),
(91,631,cs),
(22,631,l),
(22,584,l),
(148,584,l),
(130,614,l),
(130,279,l)
);
}
);
width = 289;
}
);
note = one;
},
{
color = 1;
glyphname = two.numr;
kernLeft = two;
kernRight = two;
lastChange = "2021-11-14 09:56:48 +0000";
layers = (
{
layerId = "F91D9E91-C1BC-4259-B0D8-112C0CBA2B8E";
shapes = (
{
closed = 1;
nodes = (
(299,279,l),
(299,296,l),
(52,296,l),
(49,295,l),
(151,373,o),
(281,462,o),
(281,581,cs),
(281,654,o),
(234,700,o),
(162,700,cs),
(81,700,o),
(37,645,o),
(37,565,c),
(54,564,l),
(54,634,o),
(89,683,o),
(162,683,cs),
(225,683,o),
(264,644,o),
(264,581,cs),
(264,459,o),
(115,369,o),
(33,299,c),
(33,279,l)
);
}
);
width = 331;
},
{
layerId = "957254E3-B7AD-4837-9092-D4428001DE8E";
shapes = (
{
closed = 1;
nodes = (
(328,279,l),
(328,372,l),
(135,372,l),
(108,328,l),
(237,377,o),
(312,463,o),
(312,562,cs),
(312,646,o),
(253,702,o),
(175,702,cs),
(76,702,o),
(23,614,o),
(23,542,c),
(120,535,l),
(123,561,o),
(130,605,o),
(173,605,cs),
(203,605,o),
(213,583,o),
(213,558,cs),
(213,474,o),
(85,388,o),
(29,351,c),
(29,279,l)
);
}
);
width = 353;
},
{
layerId = m003;
shapes = (
{
closed = 1;
nodes = (
(316,279,l),
(316,333,l),
(96,333,l),
(81,311,l),
(194,372,o),
(300,462,o),
(300,572,cs),
(300,650,o),
(247,701,o),
(172,701,cs),
(82,701,o),
(33,631,o),
(33,554,c),
(90,549,l),
(92,601,o),
(116,644,o),
(170,644,cs),
(217,644,o),
(241,614,o),
(241,570,cs),
(241,467,o),
(103,378,o),
(34,326,c),
(34,279,l)
);
}
);
width = 349;
}
);
note = two;
},
{
color = 1;
glyphname = three.numr;
kernLeft = three;
kernRight = three;
lastChange = "2021-11-14 09:56:48 +0000";
layers = (
{
layerId = "F91D9E91-C1BC-4259-B0D8-112C0CBA2B8E";
shapes = (
{
closed = 1;
nodes = (
(255,275,o),
(313,325,o),
(313,396,cs),
(313,468,o),
(249,497,o),
(194,502,c),
(254,511,o),
(291,544,o),
(291,597,cs),
(291,657,o),
(239,701,o),
(173,701,cs),
(102,701,o),
(53,655,o),
(53,591,c),
(70,591,l),
(71,653,o),
(118,683,o),
(172,683,cs),
(230,683,o),
(274,647,o),
(274,596,cs),
(274,525,o),
(203,507,o),
(147,508,c),
(147,494,l),
(243,492,o),
(296,460,o),
(296,396,cs),
(296,332,o),
(244,293,o),
(174,293,cs),
(100,293,o),
(50,333,o),
(50,399,c),
(33,399,l),
(33,326,o),
(88,275,o),
(173,275,cs)
);
}
);
width = 350;
},
{
layerId = "957254E3-B7AD-4837-9092-D4428001DE8E";
shapes = (
{
closed = 1;
nodes = (
(280,273,o),
(346,330,o),
(346,412,cs),
(346,453,o),
(328,488,o),
(288,508,c),
(309,524,o),
(322,551,o),
(322,585,cs),
(322,655,o),
(266,703,o),
(186,703,cs),
(100,703,o),
(39,648,o),
(39,573,c),
(137,566,l),
(138,593,o),
(154,609,o),
(182,609,cs),
(208,609,o),
(221,596,o),
(221,573,cs),
(221,549,o),
(206,535,o),
(164,535,c),
(164,457,l),
(225,457,o),
(247,443,o),
(247,413,cs),
(247,384,o),
(226,367,o),
(187,367,cs),
(147,367,o),
(120,389,o),
(120,423,c),
(21,417,l),
(21,331,o),
(86,273,o),
(183,273,cs)
);
}
);
width = 370;
},
{
layerId = m003;
shapes = (
{
closed = 1;
nodes = (
(273,274,o),
(334,327,o),
(334,404,cs),
(334,461,o),
(294,493,o),
(247,505,c),
(282,518,o),
(312,545,o),
(312,591,cs),
(312,656,o),
(258,702,o),
(185,702,cs),
(107,702,o),
(51,652,o),
(51,582,c),
(109,579,l),
(110,618,o),
(136,646,o),
(183,646,cs),
(224,646,o),
(253,622,o),
(253,585,cs),
(253,536,o),
(209,521,o),
(161,522,c),
(161,475,l),
(227,475,o),
(276,458,o),
(276,404,cs),
(276,359,o),
(242,330,o),
(185,330,cs),
(129,330,o),
(91,361,o),
(91,411,c),
(32,408,l),
(32,328,o),
(93,274,o),
(184,274,cs)
);
}
);
width = 370;
}
);
note = three;
},
{
color = 1;
glyphname = four.numr;
kernLeft = four;
kernRight = four;
lastChange = "2021-11-14 09:56:48 +0000";
layers = (
{
layerId = "F91D9E91-C1BC-4259-B0D8-112C0CBA2B8E";
shapes = (
{
closed = 1;
nodes = (
(261,279,l),
(261,379,l),
(330,379,l),
(330,396,l),
(261,396,l),
(261,697,l),
(240,697,l),
(24,396,l),
(24,379,l),
(243,379,l),
(243,279,l)
);
},
{
closed = 1;
nodes = (
(244,678,l),
(243,677,l),
(243,396,l),
(37,396,l),
(39,390,l)
);
}
);
width = 355;
},
{
layerId = "957254E3-B7AD-4837-9092-D4428001DE8E";
shapes = (
{
closed = 1;
nodes = (
(287,279,l),
(287,377,l),
(353,377,l),
(353,467,l),
(287,467,l),
(287,697,l),
(197,697,l),
(21,458,l),
(21,377,l),
(196,377,l),
(196,279,l)
);
},
{
closed = 1;
nodes = (
(209,612,l),
(199,614,l),
(199,467,l),
(70,467,l),
(78,436,l)
);
}
);
width = 371;
},
{
layerId = m003;
shapes = (
{
closed = 1;
nodes = (
(278,279,l),
(278,378,l),
(345,378,l),
(345,433,l),
(278,433,l),
(278,697,l),
(225,697,l),
(25,424,l),
(25,378,l),
(219,378,l),
(219,279,l)
);
},
{
closed = 1;
nodes = (
(226,626,l),
(219,631,l),
(219,433,l),
(69,433,l),
(75,412,l)
);
}
);
width = 372;
}
);
note = four;
},
{
color = 1;
glyphname = five.numr;
kernLeft = five;
kernRight = five;
lastChange = "2021-11-14 09:56:48 +0000";
layers = (
{
layerId = "F91D9E91-C1BC-4259-B0D8-112C0CBA2B8E";
shapes = (
{
closed = 1;
nodes = (
(250,275,o),
(311,339,o),
(311,417,cs),
(311,493,o),
(256,554,o),
(181,554,cs),
(137,554,o),
(98,532,o),
(68,494,c),
(71,496,l),
(103,688,l),
(93,680,l),
(291,680,l),
(291,697,l),
(87,697,l),
(51,485,l),
(72,477,l),
(97,514,o),
(138,536,o),
(180,536,cs),
(245,536,o),
(293,485,o),
(293,417,cs),
(293,350,o),
(241,293,o),
(172,293,cs),
(114,293,o),
(67,333,o),
(55,394,c),
(37,391,l),
(54,315,o),
(112,275,o),
(172,275,cs)
);
}
);
width = 347;
},
{
layerId = "957254E3-B7AD-4837-9092-D4428001DE8E";
shapes = (
{
closed = 1;
nodes = (
(276,272,o),
(342,348,o),
(342,428,cs),
(342,504,o),
(282,573,o),
(194,573,cs),
(172,573,o),
(141,571,o),
(110,539,c),
(134,529,l),
(157,646,l),
(114,608,l),
(324,608,l),
(324,697,l),
(78,697,l),
(35,473,l),
(126,451,l),
(133,464,o),
(149,480,o),
(180,480,cs),
(225,480,o),
(236,452,o),
(236,428,cs),
(236,402,o),
(224,367,o),
(180,367,cs),
(138,367,o),
(121,398,o),
(120,420,c),
(23,403,l),
(31,331,o),
(97,272,o),
(182,272,cs)
);
}
);
width = 368;
},
{
layerId = m003;
shapes = (
{
closed = 1;
nodes = (
(267,274,o),
(330,343,o),
(330,423,cs),
(330,499,o),
(273,563,o),
(192,563,cs),
(156,563,o),
(122,550,o),
(93,516,c),
(111,512,l),
(139,667,l),
(108,643,l),
(312,643,l),
(312,697,l),
(86,697,l),
(47,479,l),
(103,464,l),
(123,494,o),
(152,508,o),
(183,508,cs),
(239,508,o),
(269,470,o),
(269,423,cs),
(269,375,o),
(238,330,o),
(181,330,cs),
(130,330,o),
(98,366,o),
(92,407,c),
(34,397,l),
(46,325,o),
(106,274,o),
(181,274,cs)
);
}
);
width = 365;
}
);
note = five;
},
{
color = 1;
glyphname = seven.numr;
kernLeft = seven;
kernRight = seven;
lastChange = "2021-11-14 09:56:48 +0000";
layers = (
{
layerId = "F91D9E91-C1BC-4259-B0D8-112C0CBA2B8E";
shapes = (
{
closed = 1;
nodes = (
(98,279,l),
(315,680,l),
(315,697,l),
(19,697,l),
(19,680,l),
(302,680,l),
(298,683,l),
(79,279,l)
);
}
);
width = 337;
},
{
layerId = "957254E3-B7AD-4837-9092-D4428001DE8E";
shapes = (
{
closed = 1;
nodes = (
(152,279,l),
(321,626,l),
(321,697,l),
(17,697,l),
(17,604,l),
(250,604,l),
(222,645,l),
(41,279,l)
);
}
);
width = 336;
},
{
layerId = m003;
shapes = (
{
closed = 1;
nodes = (
(129,279,l),
(323,653,l),
(323,697,l),
(22,697,l),
(22,643,l),
(280,643,l),
(264,664,l),
(64,279,l)
);
}
);
width = 345;
}
);
note = seven;
},
{
color = 1;
glyphname = eight.numr;
kernLeft = eight;
kernRight = three;
lastChange = "2021-11-14 09:56:48 +0000";
layers = (
{
layerId = "F91D9E91-C1BC-4259-B0D8-112C0CBA2B8E";
shapes = (
{
closed = 1;
nodes = (
(232,275,o),
(298,315,o),
(298,394,cs),
(298,452,o),
(261,494,o),
(208,506,c),
(253,520,o),
(275,558,o),
(275,596,cs),
(275,658,o),
(228,701,o),
(168,701,cs),
(118,701,o),
(63,664,o),
(63,601,cs),
(63,554,o),
(90,518,o),
(128,506,c),
(74,494,o),
(37,453,o),
(37,394,cs),
(37,316,o),
(103,275,o),
(167,275,cs)
);
},
{
closed = 1;
nodes = (
(112,292,o),
(54,328,o),
(54,397,cs),
(54,457,o),
(103,498,o),
(167,498,cs),
(231,498,o),
(281,458,o),
(281,397,cs),
(281,327,o),
(225,292,o),
(167,292,cs)
);
},
{
closed = 1;
nodes = (
(119,513,o),
(80,547,o),
(80,600,cs),
(80,653,o),
(126,684,o),
(168,684,cs),
(220,684,o),
(257,648,o),
(257,596,cs),
(257,547,o),
(219,513,o),
(169,513,cs)
);
}
);
width = 337;
},
{
layerId = "957254E3-B7AD-4837-9092-D4428001DE8E";
shapes = (
{
closed = 1;
nodes = (
(279,272,o),
(358,316,o),
(358,406,cs),
(358,441,o),
(348,479,o),
(313,506,c),
(331,525,o),
(339,546,o),
(339,577,cs),
(339,657,o),
(268,704,o),
(192,704,cs),
(113,704,o),
(43,656,o),
(43,576,cs),
(43,544,o),
(54,524,o),
(70,506,c),
(37,480,o),
(25,445,o),
(25,406,cs),
(25,316,o),
(104,272,o),
(192,272,cs)
);
},
{
closed = 1;
nodes = (
(152,366,o),
(125,383,o),
(125,416,cs),
(125,451,o),
(153,466,o),
(192,466,cs),
(231,466,o),
(259,451,o),
(259,416,cs),
(259,384,o),
(232,366,o),
(192,366,cs)
);
},
{
closed = 1;
nodes = (
(163,533,o),
(142,547,o),
(142,570,cs),
(142,593,o),
(159,608,o),
(192,608,cs),
(222,608,o),
(240,594,o),
(240,570,cs),
(240,547,o),
(220,533,o),
(192,533,cs)
);
}
);
width = 383;
},
{
layerId = m003;
shapes = (
{
closed = 1;
nodes = (
(261,274,o),
(333,316,o),
(333,400,cs),
(333,448,o),
(309,487,o),
(265,506,c),
(297,523,o),
(311,553,o),
(311,587,cs),
(311,658,o),
(253,702,o),
(185,702,cs),
(120,702,o),
(57,660,o),
(57,589,cs),
(57,549,o),
(76,522,o),
(104,506,c),
(60,487,o),
(36,448,o),
(36,400,cs),
(36,316,o),
(109,274,o),
(185,274,cs)
);
},
{
closed = 1;
nodes = (
(136,329,o),
(94,356,o),
(94,406,cs),
(94,454,o),
(132,483,o),
(185,483,cs),
(237,483,o),
(274,453,o),
(274,406,cs),
(274,356,o),
(234,329,o),
(185,329,cs)
);
},
{
closed = 1;
nodes = (
(145,523,o),
(116,547,o),
(116,585,cs),
(116,623,o),
(147,647,o),
(185,647,cs),
(226,647,o),
(254,621,o),
(254,583,cs),
(254,547,o),
(225,523,o),
(185,523,cs)
);
}
);
width = 369;
}
);
note = eight;
},
{
color = 1;
glyphname = nine.numr;
kernLeft = nine;
kernRight = nine;
lastChange = "2021-11-14 09:56:48 +0000";
layers = (
{
layerId = "F91D9E91-C1BC-4259-B0D8-112C0CBA2B8E";
shapes = (
{
closed = 1;
nodes = (
(154,279,l),
(280,495,ls),
(291,514,o),
(301,536,o),
(301,567,cs),
(301,641,o),
(239,701,o),
(168,701,cs),
(94,701,o),
(33,639,o),
(33,566,cs),
(33,496,o),
(94,434,o),
(167,434,cs),
(197,434,o),
(227,448,o),
(248,465,c),
(247,468,l),
(135,279,l)
);
},
{
closed = 1;
nodes = (
(104,450,o),
(51,503,o),
(51,566,cs),
(51,630,o),
(104,684,o),
(168,684,cs),
(231,684,o),
(284,631,o),
(284,566,cs),
(284,503,o),
(231,450,o),
(168,450,cs)
);
}
);
width = 335;
},
{
layerId = "957254E3-B7AD-4837-9092-D4428001DE8E";
shapes = (
{
closed = 1;
nodes = (
(195,279,l),
(319,471,ls),
(334,494,o),
(343,528,o),
(343,553,cs),
(343,642,o),
(269,704,o),
(181,704,cs),
(94,704,o),
(20,643,o),
(20,552,cs),
(20,470,o),
(84,408,o),
(166,408,cs),
(175,408,o),
(183,408,o),
(192,408,c),
(180,423,l),
(79,279,l)
);
},
{
closed = 1;
nodes = (
(148,496,o),
(121,515,o),
(121,552,cs),
(121,589,o),
(148,608,o),
(181,608,cs),
(214,608,o),
(242,589,o),
(242,552,cs),
(242,515,o),
(215,496,o),
(181,496,cs)
);
}
);
width = 363;
},
{
layerId = m003;
shapes = (
{
closed = 1;
nodes = (
(178,279,l),
(304,484,ls),
(318,507,o),
(326,534,o),
(326,561,cs),
(326,642,o),
(259,702,o),
(178,702,cs),
(97,702,o),
(30,642,o),
(30,560,cs),
(30,483,o),
(91,421,o),
(170,421,cs),
(187,421,o),
(207,426,o),
(224,436,c),
(217,446,l),
(111,279,l)
);
},
{
closed = 1;
nodes = (
(129,473,o),
(90,509,o),
(90,560,cs),
(90,611,o),
(130,647,o),
(178,647,cs),
(226,647,o),
(266,611,o),
(266,560,cs),
(266,508,o),
(226,473,o),
(178,473,cs)
);
}
);
width = 357;
}
);
note = nine;
},
{
glyphname = fraction;
kernLeft = fraction;
kernRight = fraction;
lastChange = "2021-11-14 09:56:48 +0000";
layers = (
{
layerId = "F91D9E91-C1BC-4259-B0D8-112C0CBA2B8E";
shapes = (
{
closed = 1;
nodes = (
(-139,0,l),
(229,697,l),
(210,697,l),
(-158,0,l)
);
}
);
width = 71;
},
{
layerId = "957254E3-B7AD-4837-9092-D4428001DE8E";
shapes = (
{
closed = 1;
nodes = (
(-69,0,l),
(368,697,l),
(262,697,l),
(-175,0,l)
);
}
);
width = 193;
},
{
layerId = m003;
shapes = (
{
closed = 1;
nodes = (
(-114,0,l),
(288,697,l),
(227,697,l),
(-175,0,l)
);
}
);
width = 113;
}
);
note = fraction;
unicode = 8260;
},
{
glyphname = onesuperior;
kernLeft = onesuperior;
kernRight = onesuperior;
lastChange = "2021-11-14 09:56:48 +0000";
layers = (
{
layerId = "F91D9E91-C1BC-4259-B0D8-112C0CBA2B8E";
shapes = (
{
closed = 1;
nodes = (
(147,488,l),
(147,902,l),
(132,902,l),
(132,859,ls),
(132,841,o),
(122,833,o),
(103,833,cs),
(23,833,l),
(23,820,l),
(139,820,l),
(132,830,l),
(132,488,l)
);
}
);
width = 227;
},
{
layerId = "957254E3-B7AD-4837-9092-D4428001DE8E";
shapes = (
{
closed = 1;
nodes = (
(192,488,l),
(192,902,l),
(117,902,l),
(117,879,ls),
(117,850,o),
(100,838,o),
(71,838,cs),
(18,838,l),
(18,777,l),
(136,777,l),
(113,814,l),
(113,488,l)
);
}
);
width = 252;
},
{
layerId = m003;
shapes = (
{
closed = 1;
nodes = (
(190,488,l),
(190,902,l),
(146,902,l),
(146,869,ls),
(146,846,o),
(132,836,o),
(109,836,cs),
(42,836,l),
(42,799,l),
(159,799,l),
(144,823,l),
(144,488,l)
);
}
);
width = 271;
}
);
metricLeft = one.lf;
metricRight = one.lf;
unicode = 185;
},
